<svg viewBox="0 0 330 200" xmlns="http://www.w3.org/2000/svg"><g><g><g><g><g><line x1="61.91500186920166" y1="176.5999994277954" x2="56.91500186920166" y2="176.5999994277954" style="visibility: inherit;" fill="rgb(0, 0, 0)" stroke="rgb(204, 204, 204)" stroke-width="1px"></line><line x1="61.91500186920166" y1="161.88333280881244" x2="56.91500186920166" y2="161.88333280881244" style="visibility: inherit;" fill="rgb(0, 0, 0)" stroke="rgb(204, 204, 204)" stroke-width="1px"></line><line x1="61.91500186920166" y1="147.16666618982953" x2="56.91500186920166" y2="147.16666618982953" style="visibility: inherit;" fill="rgb(0, 0, 0)" stroke="rgb(204, 204, 204)" stroke-width="1px"></line><line x1="61.91500186920166" y1="132.44999957084656" x2="56.91500186920166" y2="132.44999957084656" style="visibility: inherit;" fill="rgb(0, 0, 0)" stroke="rgb(204, 204, 204)" stroke-width="1px"></line><line x1="61.91500186920166" y1="117.73333295186357" x2="56.91500186920166" y2="117.73333295186357" style="visibility: inherit;" fill="rgb(0, 0, 0)" stroke="rgb(204, 204, 204)" stroke-width="1px"></line><line x1="61.91500186920166" y1="103.01666633288069" x2="56.91500186920166" y2="103.01666633288069" style="visibility: inherit;" fill="rgb(0, 0, 0)" stroke="rgb(204, 204, 204)" stroke-width="1px"></line><line x1="61.91500186920166" y1="88.2999997138977" x2="56.91500186920166" y2="88.2999997138977" style="visibility: inherit;" fill="rgb(0, 0, 0)" stroke="rgb(204, 204, 204)" stroke-width="1px"></line><line x1="61.91500186920166" y1="73.58333309491475" x2="56.91500186920166" y2="73.58333309491475" style="visibility: inherit;" fill="rgb(0, 0, 0)" stroke="rgb(204, 204, 204)" stroke-width="1px"></line><line x1="61.91500186920166" y1="58.86666647593181" x2="56.91500186920166" y2="58.86666647593181" style="visibility: inherit;" fill="rgb(0, 0, 0)" stroke="rgb(204, 204, 204)" stroke-width="1px"></line><line x1="61.91500186920166" y1="44.14999985694885" x2="56.91500186920166" y2="44.14999985694885" style="visibility: inherit;" fill="rgb(0, 0, 0)" stroke="rgb(204, 204, 204)" stroke-width="1px"></line><line x1="61.91500186920166" y1="29.433333237965893" x2="56.91500186920166" y2="29.433333237965893" style="visibility: inherit;" fill="rgb(0, 0, 0)" stroke="rgb(204, 204, 204)" stroke-width="1px"></line><line x1="61.91500186920166" y1="14.716666618982938" x2="56.91500186920166" y2="14.716666618982938" style="visibility: inherit;" fill="rgb(0, 0, 0)" stroke="rgb(204, 204, 204)" stroke-width="1px"></line><line x1="61.91500186920166" y1="0" x2="56.91500186920166" y2="0" style="visibility: inherit;" fill="rgb(0, 0, 0)" stroke="rgb(204, 204, 204)" stroke-width="1px"></line></g><g transform="translate(51.91500186920166, 0)"><text style="text-anchor: end; visibility: hidden; font-family: Roboto, sans-serif; font-size: 12px; font-weight: 200;" x="0" y="176.5999994277954" dx="0em" dy="0.3em" fill="rgb(33, 33, 33)" stroke="none" stroke-width="1px">-0.44</text><text style="text-anchor: end; visibility: inherit; font-family: Roboto, sans-serif; font-size: 12px; font-weight: 200;" x="0" y="161.88333280881244" dx="0em" dy="0.3em" fill="rgb(33, 33, 33)" stroke="none" stroke-width="1px">-0.42</text><text style="text-anchor: end; visibility: hidden; font-family: Roboto, sans-serif; font-size: 12px; font-weight: 200;" x="0" y="147.16666618982953" dx="0em" dy="0.3em" fill="rgb(33, 33, 33)" stroke="none" stroke-width="1px">-0.4</text><text style="text-anchor: end; visibility: inherit; font-family: Roboto, sans-serif; font-size: 12px; font-weight: 200;" x="0" y="132.44999957084656" dx="0em" dy="0.3em" fill="rgb(33, 33, 33)" stroke="none" stroke-width="1px">-0.38</text><text style="text-anchor: end; visibility: hidden; font-family: Roboto, sans-serif; font-size: 12px; font-weight: 200;" x="0" y="117.73333295186357" dx="0em" dy="0.3em" fill="rgb(33, 33, 33)" stroke="none" stroke-width="1px">-0.36</text><text style="text-anchor: end; visibility: inherit; font-family: Roboto, sans-serif; font-size: 12px; font-weight: 200;" x="0" y="103.01666633288069" dx="0em" dy="0.3em" fill="rgb(33, 33, 33)" stroke="none" stroke-width="1px">-0.34</text><text style="text-anchor: end; visibility: hidden; font-family: Roboto, sans-serif; font-size: 12px; font-weight: 200;" x="0" y="88.2999997138977" dx="0em" dy="0.3em" fill="rgb(33, 33, 33)" stroke="none" stroke-width="1px">-0.32</text><text style="text-anchor: end; visibility: inherit; font-family: Roboto, sans-serif; font-size: 12px; font-weight: 200;" x="0" y="73.58333309491475" dx="0em" dy="0.3em" fill="rgb(33, 33, 33)" stroke="none" stroke-width="1px">-0.3</text><text style="text-anchor: end; visibility: hidden; font-family: Roboto, sans-serif; font-size: 12px; font-weight: 200;" x="0" y="58.86666647593181" dx="0em" dy="0.3em" fill="rgb(33, 33, 33)" stroke="none" stroke-width="1px">-0.28</text><text style="text-anchor: end; visibility: inherit; font-family: Roboto, sans-serif; font-size: 12px; font-weight: 200;" x="0" y="44.14999985694885" dx="0em" dy="0.3em" fill="rgb(33, 33, 33)" stroke="none" stroke-width="1px">-0.26</text><text style="text-anchor: end; visibility: hidden; font-family: Roboto, sans-serif; font-size: 12px; font-weight: 200;" x="0" y="29.433333237965893" dx="0em" dy="0.3em" fill="rgb(33, 33, 33)" stroke="none" stroke-width="1px">-0.24</text><text style="text-anchor: end; visibility: inherit; font-family: Roboto, sans-serif; font-size: 12px; font-weight: 200;" x="0" y="14.716666618982938" dx="0em" dy="0.3em" fill="rgb(33, 33, 33)" stroke="none" stroke-width="1px">-0.22</text><text style="text-anchor: end; visibility: hidden; font-family: Roboto, sans-serif; font-size: 12px; font-weight: 200;" x="0" y="0" dx="0em" dy="0.3em" fill="rgb(33, 33, 33)" stroke="none" stroke-width="1px">-0.2</text></g><line x1="61.91500186920166" y1="0" x2="61.91500186920166" y2="176.5999994277954" fill="rgb(0, 0, 0)" stroke="rgb(204, 204, 204)" stroke-width="1px"></line></g></g><g transform="translate(61, 0)" clip-path="url(#clip_0)"><clipPath id="clip_0"><rect width="268" height="176"></rect></clipPath><g><g><g><line x1="0" y1="0" x2="0" y2="176.5999994277954" fill="rgb(0, 0, 0)" stroke="rgb(66, 66, 66)" stroke-width="1px" opacity="0.25"></line><line x1="22.34041651089986" y1="0" x2="22.34041651089986" y2="176.5999994277954" fill="rgb(0, 0, 0)" stroke="rgb(66, 66, 66)" stroke-width="1px" opacity="0.25"></line><line x1="44.68083302179972" y1="0" x2="44.68083302179972" y2="176.5999994277954" fill="rgb(0, 0, 0)" stroke="rgb(66, 66, 66)" stroke-width="1px" opacity="0.25"></line><line x1="67.02124953269958" y1="0" x2="67.02124953269958" y2="176.5999994277954" fill="rgb(0, 0, 0)" stroke="rgb(66, 66, 66)" stroke-width="1px" opacity="0.25"></line><line x1="89.36166604359944" y1="0" x2="89.36166604359944" y2="176.5999994277954" fill="rgb(0, 0, 0)" stroke="rgb(66, 66, 66)" stroke-width="1px" opacity="0.25"></line><line x1="111.70208255449931" y1="0" x2="111.70208255449931" y2="176.5999994277954" fill="rgb(0, 0, 0)" stroke="rgb(66, 66, 66)" stroke-width="1px" opacity="0.25"></line><line x1="134.04249906539917" y1="0" x2="134.04249906539917" y2="176.5999994277954" fill="rgb(0, 0, 0)" stroke="rgb(66, 66, 66)" stroke-width="1px" opacity="0.25"></line><line x1="156.38291557629904" y1="0" x2="156.38291557629904" y2="176.5999994277954" fill="rgb(0, 0, 0)" stroke="rgb(66, 66, 66)" stroke-width="1px" opacity="0.25"></line><line x1="178.72333208719888" y1="0" x2="178.72333208719888" y2="176.5999994277954" fill="rgb(0, 0, 0)" stroke="rgb(66, 66, 66)" stroke-width="1px" opacity="0.25"></line><line x1="201.06374859809875" y1="0" x2="201.06374859809875" y2="176.5999994277954" fill="rgb(0, 0, 0)" stroke="rgb(66, 66, 66)" stroke-width="1px" opacity="0.25"></line><line x1="223.40416510899863" y1="0" x2="223.40416510899863" y2="176.5999994277954" fill="rgb(0, 0, 0)" stroke="rgb(66, 66, 66)" stroke-width="1px" opacity="0.25"></line><line x1="245.74458161989847" y1="0" x2="245.74458161989847" y2="176.5999994277954" fill="rgb(0, 0, 0)" stroke="rgb(66, 66, 66)" stroke-width="1px" opacity="0.25"></line><line x1="268.08499813079834" y1="0" x2="268.08499813079834" y2="176.5999994277954" fill="rgb(0, 0, 0)" stroke="rgb(66, 66, 66)" stroke-width="1px" opacity="0.25"></line></g><g><line x1="0" y1="176.5999994277954" x2="268.08499813079834" y2="176.5999994277954" fill="rgb(0, 0, 0)" stroke="rgb(66, 66, 66)" stroke-width="1px" opacity="0.25"></line><line x1="0" y1="161.88333280881244" x2="268.08499813079834" y2="161.88333280881244" fill="rgb(0, 0, 0)" stroke="rgb(66, 66, 66)" stroke-width="1px" opacity="0.25"></line><line x1="0" y1="147.16666618982953" x2="268.08499813079834" y2="147.16666618982953" fill="rgb(0, 0, 0)" stroke="rgb(66, 66, 66)" stroke-width="1px" opacity="0.25"></line><line x1="0" y1="132.44999957084656" x2="268.08499813079834" y2="132.44999957084656" fill="rgb(0, 0, 0)" stroke="rgb(66, 66, 66)" stroke-width="1px" opacity="0.25"></line><line x1="0" y1="117.73333295186357" x2="268.08499813079834" y2="117.73333295186357" fill="rgb(0, 0, 0)" stroke="rgb(66, 66, 66)" stroke-width="1px" opacity="0.25"></line><line x1="0" y1="103.01666633288069" x2="268.08499813079834" y2="103.01666633288069" fill="rgb(0, 0, 0)" stroke="rgb(66, 66, 66)" stroke-width="1px" opacity="0.25"></line><line x1="0" y1="88.2999997138977" x2="268.08499813079834" y2="88.2999997138977" fill="rgb(0, 0, 0)" stroke="rgb(66, 66, 66)" stroke-width="1px" opacity="0.25"></line><line x1="0" y1="73.58333309491475" x2="268.08499813079834" y2="73.58333309491475" fill="rgb(0, 0, 0)" stroke="rgb(66, 66, 66)" stroke-width="1px" opacity="0.25"></line><line x1="0" y1="58.86666647593181" x2="268.08499813079834" y2="58.86666647593181" fill="rgb(0, 0, 0)" stroke="rgb(66, 66, 66)" stroke-width="1px" opacity="0.25"></line><line x1="0" y1="44.14999985694885" x2="268.08499813079834" y2="44.14999985694885" fill="rgb(0, 0, 0)" stroke="rgb(66, 66, 66)" stroke-width="1px" opacity="0.25"></line><line x1="0" y1="29.433333237965893" x2="268.08499813079834" y2="29.433333237965893" fill="rgb(0, 0, 0)" stroke="rgb(66, 66, 66)" stroke-width="1px" opacity="0.25"></line><line x1="0" y1="14.716666618982938" x2="268.08499813079834" y2="14.716666618982938" fill="rgb(0, 0, 0)" stroke="rgb(66, 66, 66)" stroke-width="1px" opacity="0.25"></line><line x1="0" y1="0" x2="268.08499813079834" y2="0" fill="rgb(0, 0, 0)" stroke="rgb(66, 66, 66)" stroke-width="1px" opacity="0.25"></line></g></g></g><g><g><line x1="0" y1="-147.16666618982953" x2="268.08499813079834" y2="-147.16666618982953" fill="rgb(0, 0, 0)" stroke="rgb(153, 153, 153)" stroke-width="1.5px"></line></g></g><g><g><line x1="22.34041651089986" y1="0" x2="22.34041651089986" y2="176.5999994277954" fill="rgb(0, 0, 0)" stroke="rgb(153, 153, 153)" stroke-width="1.5px"></line></g></g><g><g><g><g><g><path style="fill: none;" stroke="rgb(238, 51, 119)" stroke-width="2px" d="M23.25547997118632,165.0209801214598L24.17054343147278,165.0209801214643L25.085606891759234,134.98618823406457L26.000670352045695,120.09451294989415L26.915733812332153,111.89596254452063L27.83079727261861,81.10582482406552L28.74586073290507,81.75707887517198L29.66092419319153,80.56773083283835L30.575987653477988,79.82665614681542L31.491051113764446,78.6496237839383L32.4061145740509,79.80861735083442L33.321178034337365,81.3008053582502L34.23624149462382,65.48443155128444L35.15130495491027,61.68591675212598L36.066368415196735,68.26802048468494L36.981431875483196,74.24713029640873L37.89649533576966,62.32942630924144L38.81155879605611,53.15202457876377L39.726622256342566,55.283060684424086L40.641685716629034,60.82226469735873L41.55674917691549,61.864532571612486L42.47181263720194,55.88595519762616L43.386876097488404,60.017508345584666L44.301939557774865,56.66349969417398L45.21700301806132,48.412030404749636L46.13206647834778,43.56615363240188L47.047129938634235,38.69956134641443L47.96219339892069,35.72980558754376L48.87725685920716,37.32089463241684L49.79232031949361,39.76912212255601L50.707383779780066,38.998364366731444L51.62244724006653,41.93854286076194L52.53751070035299,44.249575509559406L53.45257416063944,46.57648881058735L54.367637620925905,46.93238159098231L55.28270108121236,42.06999505568132L56.19776454149882,41.41251444570855L57.11282800178528,42.286389017907986L58.027891462071736,43.653571077352545L58.94295492235819,45.73449575344483L59.85801838264465,46.428437280524L60.77308184293111,47.88101293333066L61.68814530321757,49.78271411331126L62.60320876350403,50.45410132927001L63.51827222379048,50.97993659155012L64.43333568407694,50.52327992675102L65.3483991443634,52.8643067897073L66.26346260464986,53.03981437547018L67.17852606493632,53.10644194937157L68.09358952522278,49.002011443576684L69.00865298550923,49.80163588285565L69.92371644579569,50.285283797001505L70.83877990608215,49.18824361416654L71.75384336636861,47.45967277411595L72.66890682665507,46.1107009307482L73.58397028694152,45.4690854350274L74.49903374722798,46.00258645137092L75.41409720751444,46.49644743405044L76.32916066780089,47.34317736059166L77.24422412808737,49.36292081082516L78.15928758837383,50.08454621263003L79.07435104866028,51.99549491570023L79.98941450894674,50.70118854433752L80.90447796923318,50.11285334715856L81.81954142951966,48.216998408923615L82.73460488980612,45.747824219895264L83.64966835009257,44.7488114723071L84.56473181037903,46.577453248162506L85.47979527066548,45.40853244515419L86.39485873095194,44.365017231550055L87.30992219123841,44.762380754590914L88.22498565152486,42.62494673188069L89.14004911181132,43.12618066194132L90.05511257209778,44.20015409235406L90.97017603238423,41.55299254122354L91.88523949267069,39.76233145330354L92.80030295295715,39.19222329602341L93.71536641324361,39.73655231508761L94.63042987353008,40.18217780770218L95.54549333381652,40.75089849658661L96.46055679410298,40.68750153723296L97.37562025438943,41.25393187885663L98.29068371467591,41.677260267424806L99.20574717496237,42.586164145209665L100.12081063524882,43.35844902539628L101.03587409553528,44.37453312622509L101.95093755582174,45.821778647666434L102.86600101610819,46.3029990879222L103.78106447639466,45.06249888880811L104.69612793668111,45.431391866974444L105.61119139696757,45.035337111144585L106.52625485725403,45.77217500138146L107.44131831754048,46.261498770692896L108.35638177782695,46.58049527804416L109.27144523811342,46.87832074625295L110.18650869839986,46.68055885225537L111.10157215868632,47.96008021546558L112.01663561897277,46.828140845854236L112.93169907925923,47.45702990161494L113.84676253954571,45.412831968447534L114.76182599983215,46.55823599089886L115.67688946011862,45.67264767840008L116.59195292040506,46.065307353862536L117.50701638069152,44.97836470527737L118.42207984097799,45.283422220180114L119.33714330126445,45.85741721323024L120.25220676155091,46.053055380148805L121.16727022183736,46.53178067729247L122.08233368212382,46.686394721796326L122.99739714241028,47.24974549875855L123.91246060269673,45.91655343784348L124.8275240629832,44.91825917227594L125.74258752326966,43.85588221903391L126.65765098355611,44.132600240861024L127.57271444384257,44.07483132529659L128.48777790412902,43.9950862855652L129.40284136441548,43.79317571062357L130.31790482470194,44.41954505228526L131.2329682849884,43.93624614079121L132.14803174527486,43.38142807091128L133.06309520556132,42.168469125351926L133.9781586658478,42.330288129231505L134.89322212613425,42.68934991355187L135.80828558642068,41.7057209589597L136.72334904670714,40.09909339158293L137.63841250699363,39.3302621397411L138.55347596728006,39.72096486145379L139.46853942756653,39.75589916027236L140.383602887853,38.997989024355306L141.29866634813945,38.060044034461434L142.21372980842588,38.61208835548923L143.12879326871237,39.030970490568876L144.04385672899883,38.71264702671001L144.95892018928527,39.01135592173047L145.87398364957176,38.09013821679207L146.7890471098582,37.28102099374902L147.70411057014465,36.67266066020338L148.61917403043114,36.96939122172867L149.53423749071757,36.06104621969939L150.44930095100403,35.273029638204335L151.36436441129047,35.609947825334814L152.27942787157696,35.87368243662761L153.1944913318634,35.90812812724648L154.10955479214985,34.69054251685987L155.02461825243634,34.756489655812274L155.93968171272277,33.818288558349195L156.85474517300923,33.13219898954675L157.7698086332957,33.61735368320778L158.68487209358216,33.87423377226541L159.59993555386862,32.57511426543705L160.51499901415505,31.957816131957287L161.43006247444154,32.0486578248199L162.34512593472797,31.972524890808966L163.26018939501444,31.476665571896298L164.17525285530093,31.63093146162473L165.09031631558736,32.10564403235756L166.00537977587382,32.24428516278368L166.92044323616028,31.56292459963499L167.83550669644674,31.612516695569656L168.75057015673318,31.93450518885759L169.66563361701967,31.64216142226407L170.58069707730613,31.607143744277586L171.49576053759256,32.191291192544604L172.41082399787902,32.16033231837775L173.32588745816548,31.64058136841528L174.24095091845194,32.13234787431951L175.1560143787384,32.61198628473408L176.07107783902487,32.41285728629123L176.98614129931133,31.979819270068155L177.90120475959776,32.17525526769534L178.81626821988425,31.619471810307502L179.73133168017068,31.743811649471077L180.64639514045714,32.00959861895623L181.56145860074363,31.680472106511136L182.47652206103007,30.56696780687866L183.39158552131653,29.83242200067727L184.30664898160296,29.824232478514926L185.22171244188945,29.91975697407181L186.1367759021759,29.406401759539786L187.05183936246235,28.855609536684565L187.96690282274884,29.355579689910172L188.88196628303527,28.83281863314788L189.79702974332173,28.106538552647457L190.7120932036082,28.3742073558338L191.62715666389465,28.487917344956045L192.5422201241811,27.614213824803628L193.45728358446758,27.22303832908119L194.37234704475404,26.914338525997824L195.28741050504047,26.513230066402407L196.20247396532693,26.090240097415506L197.11753742561342,25.47059335380491L198.03260088589985,25.300054785107456L198.94766434618631,25.408967803441765L199.86272780647278,26.07297847604535L200.77779126675924,26.563452510023474L201.6928547270457,25.94197310164837L202.60791818733216,25.799943473194343L203.52298164761862,26.113665983199642L204.43804510790505,25.973388034107227L205.35310856819154,25.01866547165467L206.26817202847798,24.275279830805488L207.18323548876444,23.77688561573266L208.09829894905093,23.230355440917048L209.01336240933736,23.004893397384564L209.92842586962382,22.704901714993426L210.84348932991026,23.16384293810039L211.75855279019675,22.989406589234576L212.6736162504832,22.734850565236012L213.58867971076964,22.717106887430255L214.50374317105613,21.96883681406336L215.41880663134256,22.248090157238856L216.33387009162902,21.920758995799865L217.24893355191548,22.05278679231369L218.16399701220195,22.207146155264216L219.0790604724884,22.019987536840475L219.99412393277484,21.870099521460848L220.90918739306133,21.516978064404043L221.82425085334776,21.78641084470198L222.73931431363422,21.80367194590857L223.65437777392071,21.891625562989468L224.56944123420715,21.72082855734654L225.4845046944936,21.86829180873427L226.39956815478007,22.16752553451091L227.31463161506653,21.551228891799646L228.229695075353,20.71422525059869L229.14475853563945,20.977900721856976L230.05982199592592,21.13847166750491L230.97488545621235,21.04529850095367L231.88994891649884,21.33352125231L232.80501237678527,21.438066565217216L233.72007583707173,21.829133242611338L234.6351392973582,22.104298718987927L235.55020275764466,21.61788897521595L236.46526621793112,21.374066926088723L237.38032967821755,21.286117500291535L238.29539313850404,20.70232216531059L239.2104565987905,20.50909090359924L240.12552005907693,20.718110099183086L241.04058351936342,20.668132948058204L241.95564697964986,20.505796537676403L242.87071043993632,20.04789526015006L243.78577390022275,19.865159008561925L244.70083736050924,20.004590772033783L245.6159008207957,19.96120706654897L246.53096428108213,19.937715183150377" fill="none"></path></g></g></g></g><g opacity="0.2"><g><g><g><path style="fill: none;" stroke="rgb(238, 51, 119)" stroke-width="2px" d="M23.25547997118632,165.0209801214598L24.17054343147278,165.0209801214598L25.085606891759234,75.0066788001434L26.000670352045695,75.50877759726838L26.915733812332153,79.18366448256762L27.83079727261861,-72.3836270535121L28.74586073290507,85.65094961786286L29.66092419319153,72.2755297613795L30.575987653477988,73.92467519033617L31.491051113764446,68.10915797735711L32.4061145740509,91.33499922563733L33.321178034337365,97.61671657523763L34.23624149462382,-123.08288916987863L35.15130495491027,12.649510345103582L36.066368415196735,159.7293377409632L36.981431875483196,163.2196217404222L37.89649533576966,-126.74110549135276L38.81155879605611,-101.46712313001755L39.726622256342566,93.27936015105175L40.641685716629034,165.0209801214598L41.55674917691549,82.49239380254559L42.47181263720194,-68.29228171557916L43.386876097488404,149.87367518859187L44.301939557774865,-19.559745916429943L47.96219339892069,-43.34070062998895L48.87725685920716,81.23118197426767L49.79232031949361,109.71261343574568L50.707383779780066,16.230593613845272L51.62244724006653,131.64022578859445L52.53751070035299,116.99491000514074L53.45257416063944,122.07304636324004L54.367637620925905,58.82329071873571L55.28270108121236,-125.08466300724481L56.19776454149882,18.176029086825167L57.11282800178528,74.0127223020787L58.027891462071736,94.60579043769138L58.94295492235819,125.2878075950943L59.85801838264465,73.6243939696412L60.77308184293111,106.20246127109645L61.68814530321757,127.96016353134719L62.60320876350403,78.69742074441895L63.51827222379048,73.6034951159698L64.43333568407694,30.439511508463053L65.3483991443634,158.05843820619117L66.26346260464986,61.093700076874384L67.17852606493632,56.227425025510954L68.09358952522278,-147.16666618982953L69.00865298550923,88.77979090356341L69.92371644579569,74.32056921481632L70.83877990608215,-6.371505666989755L72.66890682665507,-24.765490280314957L73.58397028694152,11.150768681000228L74.49903374722798,75.04257746064714L75.41409720751444,73.8452025295753L76.32916066780089,95.03190337125774L77.24422412808737,165.0209801214598L78.15928758837383,92.08709480330147L79.07435104866028,165.0209801214598L79.98941450894674,-27.068662374429547L80.90447796923318,14.209676656776265L81.81954142951966,-69.2558822449192L83.64966835009257,-19.02431421523307L84.56473181037903,165.0209801214598L85.47979527066548,-31.396040856936008L86.39485873095194,-25.17362098931623L87.30992219123841,71.61270934981843L88.22498565152486,-103.79489468804175L89.14004911181132,77.92841748975519L90.05511257209778,119.76781289216312L90.97017603238423,-147.16666618982953L92.80030295295715,-2.5088032179249L93.71536641324361,80.05591202168561L94.63042987353008,73.6025740751994L95.54549333381652,83.92851565903233L96.46055679410298,35.81584578075284L97.37562025438943,85.30286199527531L98.29068371467591,74.9877316757236L99.20574717496237,114.94162504385457L100.12081063524882,105.54806180372196L101.03587409553528,127.12975755865628L101.95093755582174,165.0209801214598L102.86600101610819,86.37876919236412L103.78106447639466,-59.38161795841698L104.69612793668111,76.8278614872869L105.61119139696757,10.965178965763128L106.52625485725403,109.83052858389998L107.44131831754048,89.24805241714698L108.35638177782695,74.89464076928599L109.27144523811342,73.58441641429708L110.18650869839986,28.767361989788338L111.10157215868632,165.0209801214598L112.01663561897277,-57.75802044606803L112.93169907925923,106.13373408599033L113.84676253954571,-147.16666618982953L114.76182599983215,155.50064219814323L115.67688946011862,-39.358471211421595L116.59195292040506,84.12169299585422L117.50701638069152,-61.34810030947781L118.42207984097799,75.39954654780648L119.33714330126445,103.04055023582984L120.25220676155091,65.71907910769195L121.16727022183736,95.08453427242388L122.08233368212382,62.50626960508925L122.99739714241028,105.39609007660474L123.91246060269673,-92.88334112818137L125.74258752326966,-68.64966198165388L126.65765098355611,73.68413004246477L127.57271444384257,37.853977428411596L128.48777790412902,35.3366523904062L129.40284136441548,21.690654878073516L130.31790482470194,113.54341936574961L131.2329682849884,-9.828369044208266L133.06309520556132,-94.91976227155223L133.9781586658478,60.762388554033535L134.89322212613425,83.90632296237393L135.80828558642068,-72.0755224686542L137.63841250699363,-50.96184151995426L138.55347596728006,85.94980541831792L139.46853942756653,43.920171237736554L140.383602887853,-52.01395516380753L141.29866634813945,-75.39535910173247L142.21372980842588,105.87301375933856L143.12879326871237,90.43487923844343L144.04385672899883,-0.6299567996912607L144.95892018928527,76.19122494905598L145.87398364957176,-77.37814606738371L147.70411057014465,-40.64357527587472L148.61917403043114,74.9394647534458L149.53423749071757,-80.9633027485802L150.44930095100403,-66.93481564440813L151.36436441129047,79.60201435821197L152.27942787157696,70.53906089557132L153.1944913318634,40.46556660335974L154.10955479214985,-127.46097697742009L155.02461825243634,43.59607453426389L155.93968171272277,-92.7501246419901L156.85474517300923,-60.01784880011806L157.7698086332957,99.90537131244722L158.68487209358216,69.19399049810202L159.59993555386862,-147.16666618982953L160.51499901415505,-53.98073904607294L161.43006247444154,44.77349358197689L162.34512593472797,21.242656261438892L163.26018939501444,-38.83322578255461L164.17525285530093,53.63715136553509L165.09031631558736,100.23049870440104L166.00537977587382,52.258945429873265L166.92044323616028,-67.38269913094645L167.83550669644674,38.856508377457935L168.75057015673318,79.24247951462078L169.66563361701967,-11.55937745402042L170.58069707730613,26.402545952682924L171.49576053759256,119.50853991529343L172.41082399787902,27.50635849216086L173.32588745816548,-46.933439450384704L174.24095091845194,106.89271553989037L175.1560143787384,105.93483313866663L176.07107783902487,1.8033013384722913L176.98614129931133,-34.95162006815426L177.90120475959776,62.54736556708316L178.81626821988425,-55.2219895086065L179.73133168017068,51.276765095944484L180.64639514045714,73.98671386508576L181.56145860074363,-20.577002553031736L183.39158552131653,-88.02975779933873L184.30664898160296,28.50330837272939L185.22171244188945,45.407345068354424L186.1367759021759,-54.25457323893196L187.05183936246235,-61.3669158566447L187.96690282274884,111.67076804317405L188.88196628303527,-57.67083955124052L189.79702974332173,-92.67971436452378L190.7120932036082,73.11258038534264L191.62715666389465,47.588084528631285L192.5422201241811,-119.87014545590237L198.03260088589985,-4.334843298655205L198.94766434618631,44.42492350946197L199.86272780647278,142.55508522693432L200.77779126675924,113.00735170783032L201.6928547270457,-84.10237416569493L202.60791818733216,0.534249698874838L203.52298164761862,82.17945923602859L204.43804510790505,0.7890490491454116L205.35310856819154,-147.16666618982953L209.92842586962382,-32.62443512538262L210.84348932991026,108.18307172968905L211.75855279019675,-9.467014048618399L212.6736162504832,-24.835938934480076L213.58867971076964,19.38680296815221L214.50374317105613,-119.08075869180783L215.41880663134256,75.11393619081156L216.33387009162902,-40.311803232648664L217.24893355191548,47.26085190063081L218.16399701220195,51.80371006432829L219.0790604724884,-14.016527828359198L220.90918739306133,-47.044172673484056L221.82425085334776,74.31563506783199L222.73931431363422,25.18281385338657L223.65437777392071,39.18062701047276L224.56944123420715,-11.98971182445116L225.4845046944936,51.09161397155042L226.39956815478007,81.70738198211048L227.31463161506653,-101.56909001864138L228.229695075353,-147.16666618982953L229.14475853563945,74.07478290637044L230.05982199592592,53.60105533915196L230.97488545621235,2.1342619886387126L231.88994891649884,80.0625347434157L232.80501237678527,42.82362834148217L233.72007583707173,102.13556189027807L234.6351392973582,78.8285374769491L235.55020275764466,-79.03914441387384L236.46526621793112,-29.2752896592175L237.38032967821755,2.946718631077765L238.29539313850404,-101.4933837567452L239.2104565987905,-20.089234711703448L240.12552005907693,64.7984111395011L241.04058351936342,10.089006038599818L241.95564697964986,-13.985267266020713L243.78577390022275,-19.24750213049073L244.70083736050924,49.95785664226318L245.6159008207957,10.607332696917677L246.53096428108213,14.854273618808561" fill="none"></path></g></g></g></g></g></g><g transform="translate(61, 176)" clip-path="url(#clip_1)"><clipPath id="clip_1"><rect width="268" height="23"></rect></clipPath><g><g><line x1="0" y1="0" x2="0" y2="5" style="visibility: inherit;" fill="rgb(0, 0, 0)" stroke="rgb(204, 204, 204)" stroke-width="1px"></line><line x1="22.34041651089986" y1="0" x2="22.34041651089986" y2="5" style="visibility: inherit;" fill="rgb(0, 0, 0)" stroke="rgb(204, 204, 204)" stroke-width="1px"></line><line x1="44.68083302179972" y1="0" x2="44.68083302179972" y2="5" style="visibility: inherit;" fill="rgb(0, 0, 0)" stroke="rgb(204, 204, 204)" stroke-width="1px"></line><line x1="67.02124953269958" y1="0" x2="67.02124953269958" y2="5" style="visibility: inherit;" fill="rgb(0, 0, 0)" stroke="rgb(204, 204, 204)" stroke-width="1px"></line><line x1="89.36166604359944" y1="0" x2="89.36166604359944" y2="5" style="visibility: inherit;" fill="rgb(0, 0, 0)" stroke="rgb(204, 204, 204)" stroke-width="1px"></line><line x1="111.70208255449931" y1="0" x2="111.70208255449931" y2="5" style="visibility: inherit;" fill="rgb(0, 0, 0)" stroke="rgb(204, 204, 204)" stroke-width="1px"></line><line x1="134.04249906539917" y1="0" x2="134.04249906539917" y2="5" style="visibility: inherit;" fill="rgb(0, 0, 0)" stroke="rgb(204, 204, 204)" stroke-width="1px"></line><line x1="156.38291557629904" y1="0" x2="156.38291557629904" y2="5" style="visibility: inherit;" fill="rgb(0, 0, 0)" stroke="rgb(204, 204, 204)" stroke-width="1px"></line><line x1="178.72333208719888" y1="0" x2="178.72333208719888" y2="5" style="visibility: inherit;" fill="rgb(0, 0, 0)" stroke="rgb(204, 204, 204)" stroke-width="1px"></line><line x1="201.06374859809875" y1="0" x2="201.06374859809875" y2="5" style="visibility: inherit;" fill="rgb(0, 0, 0)" stroke="rgb(204, 204, 204)" stroke-width="1px"></line><line x1="223.40416510899863" y1="0" x2="223.40416510899863" y2="5" style="visibility: inherit;" fill="rgb(0, 0, 0)" stroke="rgb(204, 204, 204)" stroke-width="1px"></line><line x1="245.74458161989847" y1="0" x2="245.74458161989847" y2="5" style="visibility: inherit;" fill="rgb(0, 0, 0)" stroke="rgb(204, 204, 204)" stroke-width="1px"></line><line x1="268.08499813079834" y1="0" x2="268.08499813079834" y2="5" style="visibility: inherit;" fill="rgb(0, 0, 0)" stroke="rgb(204, 204, 204)" stroke-width="1px"></line></g><g transform="translate(0, 8)"><text style="text-anchor: middle; visibility: hidden; font-family: Roboto, sans-serif; font-size: 12px; font-weight: 200;" x="0" y="0" dx="0em" dy="0.95em" fill="rgb(33, 33, 33)" stroke="none" stroke-width="1px">-50k</text><text style="text-anchor: middle; visibility: inherit; font-family: Roboto, sans-serif; font-size: 12px; font-weight: 200;" x="22.34041651089986" y="0" dx="0em" dy="0.95em" fill="rgb(33, 33, 33)" stroke="none" stroke-width="1px">0</text><text style="text-anchor: middle; visibility: hidden; font-family: Roboto, sans-serif; font-size: 12px; font-weight: 200;" x="44.68083302179972" y="0" dx="0em" dy="0.95em" fill="rgb(33, 33, 33)" stroke="none" stroke-width="1px">50k</text><text style="text-anchor: middle; visibility: inherit; font-family: Roboto, sans-serif; font-size: 12px; font-weight: 200;" x="67.02124953269958" y="0" dx="0em" dy="0.95em" fill="rgb(33, 33, 33)" stroke="none" stroke-width="1px">100k</text><text style="text-anchor: middle; visibility: hidden; font-family: Roboto, sans-serif; font-size: 12px; font-weight: 200;" x="89.36166604359944" y="0" dx="0em" dy="0.95em" fill="rgb(33, 33, 33)" stroke="none" stroke-width="1px">150k</text><text style="text-anchor: middle; visibility: inherit; font-family: Roboto, sans-serif; font-size: 12px; font-weight: 200;" x="111.70208255449931" y="0" dx="0em" dy="0.95em" fill="rgb(33, 33, 33)" stroke="none" stroke-width="1px">200k</text><text style="text-anchor: middle; visibility: hidden; font-family: Roboto, sans-serif; font-size: 12px; font-weight: 200;" x="134.04249906539917" y="0" dx="0em" dy="0.95em" fill="rgb(33, 33, 33)" stroke="none" stroke-width="1px">250k</text><text style="text-anchor: middle; visibility: inherit; font-family: Roboto, sans-serif; font-size: 12px; font-weight: 200;" x="156.38291557629904" y="0" dx="0em" dy="0.95em" fill="rgb(33, 33, 33)" stroke="none" stroke-width="1px">300k</text><text style="text-anchor: middle; visibility: hidden; font-family: Roboto, sans-serif; font-size: 12px; font-weight: 200;" x="178.72333208719888" y="0" dx="0em" dy="0.95em" fill="rgb(33, 33, 33)" stroke="none" stroke-width="1px">350k</text><text style="text-anchor: middle; visibility: inherit; font-family: Roboto, sans-serif; font-size: 12px; font-weight: 200;" x="201.06374859809875" y="0" dx="0em" dy="0.95em" fill="rgb(33, 33, 33)" stroke="none" stroke-width="1px">400k</text><text style="text-anchor: middle; visibility: hidden; font-family: Roboto, sans-serif; font-size: 12px; font-weight: 200;" x="223.40416510899863" y="0" dx="0em" dy="0.95em" fill="rgb(33, 33, 33)" stroke="none" stroke-width="1px">450k</text><text style="text-anchor: middle; visibility: inherit; font-family: Roboto, sans-serif; font-size: 12px; font-weight: 200;" x="245.74458161989847" y="0" dx="0em" dy="0.95em" fill="rgb(33, 33, 33)" stroke="none" stroke-width="1px">500k</text><text style="text-anchor: middle; visibility: hidden; font-family: Roboto, sans-serif; font-size: 12px; font-weight: 200;" x="268.08499813079834" y="0" dx="0em" dy="0.95em" fill="rgb(33, 33, 33)" stroke="none" stroke-width="1px">550k</text></g><line x1="0" y1="0" x2="268.08499813079834" y2="0" fill="rgb(0, 0, 0)" stroke="rgb(204, 204, 204)" stroke-width="1px"></line></g></g></g></g></svg>