<svg viewBox="0 0 330 200" xmlns="http://www.w3.org/2000/svg"><g><g><g><g><g><line x1="72.29800224304199" y1="176.5999994277954" x2="67.29800224304199" y2="176.5999994277954" style="visibility: inherit;" fill="rgb(0, 0, 0)" stroke="rgb(204, 204, 204)" stroke-width="1px"></line><line x1="72.29800224304199" y1="163.98571375438146" x2="67.29800224304199" y2="163.98571375438146" style="visibility: inherit;" fill="rgb(0, 0, 0)" stroke="rgb(204, 204, 204)" stroke-width="1px"></line><line x1="72.29800224304199" y1="151.37142808096752" x2="67.29800224304199" y2="151.37142808096752" style="visibility: inherit;" fill="rgb(0, 0, 0)" stroke="rgb(204, 204, 204)" stroke-width="1px"></line><line x1="72.29800224304199" y1="138.75714240755354" x2="67.29800224304199" y2="138.75714240755354" style="visibility: inherit;" fill="rgb(0, 0, 0)" stroke="rgb(204, 204, 204)" stroke-width="1px"></line><line x1="72.29800224304199" y1="126.14285673413958" x2="67.29800224304199" y2="126.14285673413958" style="visibility: inherit;" fill="rgb(0, 0, 0)" stroke="rgb(204, 204, 204)" stroke-width="1px"></line><line x1="72.29800224304199" y1="113.52857106072561" x2="67.29800224304199" y2="113.52857106072561" style="visibility: inherit;" fill="rgb(0, 0, 0)" stroke="rgb(204, 204, 204)" stroke-width="1px"></line><line x1="72.29800224304199" y1="100.91428538731165" x2="67.29800224304199" y2="100.91428538731165" style="visibility: inherit;" fill="rgb(0, 0, 0)" stroke="rgb(204, 204, 204)" stroke-width="1px"></line><line x1="72.29800224304199" y1="88.2999997138977" x2="67.29800224304199" y2="88.2999997138977" style="visibility: inherit;" fill="rgb(0, 0, 0)" stroke="rgb(204, 204, 204)" stroke-width="1px"></line><line x1="72.29800224304199" y1="75.68571404048376" x2="67.29800224304199" y2="75.68571404048376" style="visibility: inherit;" fill="rgb(0, 0, 0)" stroke="rgb(204, 204, 204)" stroke-width="1px"></line><line x1="72.29800224304199" y1="63.07142836706978" x2="67.29800224304199" y2="63.07142836706978" style="visibility: inherit;" fill="rgb(0, 0, 0)" stroke="rgb(204, 204, 204)" stroke-width="1px"></line><line x1="72.29800224304199" y1="50.457142693655825" x2="67.29800224304199" y2="50.457142693655825" style="visibility: inherit;" fill="rgb(0, 0, 0)" stroke="rgb(204, 204, 204)" stroke-width="1px"></line><line x1="72.29800224304199" y1="37.84285702024188" x2="67.29800224304199" y2="37.84285702024188" style="visibility: inherit;" fill="rgb(0, 0, 0)" stroke="rgb(204, 204, 204)" stroke-width="1px"></line><line x1="72.29800224304199" y1="25.228571346827923" x2="67.29800224304199" y2="25.228571346827923" style="visibility: inherit;" fill="rgb(0, 0, 0)" stroke="rgb(204, 204, 204)" stroke-width="1px"></line><line x1="72.29800224304199" y1="12.614285673413953" x2="67.29800224304199" y2="12.614285673413953" style="visibility: inherit;" fill="rgb(0, 0, 0)" stroke="rgb(204, 204, 204)" stroke-width="1px"></line><line x1="72.29800224304199" y1="0" x2="67.29800224304199" y2="0" style="visibility: inherit;" fill="rgb(0, 0, 0)" stroke="rgb(204, 204, 204)" stroke-width="1px"></line></g><g transform="translate(62.29800224304199, 0)"><text style="text-anchor: end; visibility: hidden; font-family: Roboto, sans-serif; font-size: 12px; font-weight: 200;" x="0" y="176.5999994277954" dx="0em" dy="0.3em" fill="rgb(33, 33, 33)" stroke="none" stroke-width="1px">-200</text><text style="text-anchor: end; visibility: inherit; font-family: Roboto, sans-serif; font-size: 12px; font-weight: 200;" x="0" y="163.98571375438146" dx="0em" dy="0.3em" fill="rgb(33, 33, 33)" stroke="none" stroke-width="1px">0</text><text style="text-anchor: end; visibility: hidden; font-family: Roboto, sans-serif; font-size: 12px; font-weight: 200;" x="0" y="151.37142808096752" dx="0em" dy="0.3em" fill="rgb(33, 33, 33)" stroke="none" stroke-width="1px">200</text><text style="text-anchor: end; visibility: hidden; font-family: Roboto, sans-serif; font-size: 12px; font-weight: 200;" x="0" y="138.75714240755354" dx="0em" dy="0.3em" fill="rgb(33, 33, 33)" stroke="none" stroke-width="1px">400</text><text style="text-anchor: end; visibility: inherit; font-family: Roboto, sans-serif; font-size: 12px; font-weight: 200;" x="0" y="126.14285673413958" dx="0em" dy="0.3em" fill="rgb(33, 33, 33)" stroke="none" stroke-width="1px">600</text><text style="text-anchor: end; visibility: hidden; font-family: Roboto, sans-serif; font-size: 12px; font-weight: 200;" x="0" y="113.52857106072561" dx="0em" dy="0.3em" fill="rgb(33, 33, 33)" stroke="none" stroke-width="1px">800</text><text style="text-anchor: end; visibility: hidden; font-family: Roboto, sans-serif; font-size: 12px; font-weight: 200;" x="0" y="100.91428538731165" dx="0em" dy="0.3em" fill="rgb(33, 33, 33)" stroke="none" stroke-width="1px">1e+3</text><text style="text-anchor: end; visibility: inherit; font-family: Roboto, sans-serif; font-size: 12px; font-weight: 200;" x="0" y="88.2999997138977" dx="0em" dy="0.3em" fill="rgb(33, 33, 33)" stroke="none" stroke-width="1px">1.2e+3</text><text style="text-anchor: end; visibility: hidden; font-family: Roboto, sans-serif; font-size: 12px; font-weight: 200;" x="0" y="75.68571404048376" dx="0em" dy="0.3em" fill="rgb(33, 33, 33)" stroke="none" stroke-width="1px">1.4e+3</text><text style="text-anchor: end; visibility: hidden; font-family: Roboto, sans-serif; font-size: 12px; font-weight: 200;" x="0" y="63.07142836706978" dx="0em" dy="0.3em" fill="rgb(33, 33, 33)" stroke="none" stroke-width="1px">1.6e+3</text><text style="text-anchor: end; visibility: inherit; font-family: Roboto, sans-serif; font-size: 12px; font-weight: 200;" x="0" y="50.457142693655825" dx="0em" dy="0.3em" fill="rgb(33, 33, 33)" stroke="none" stroke-width="1px">1.8e+3</text><text style="text-anchor: end; visibility: hidden; font-family: Roboto, sans-serif; font-size: 12px; font-weight: 200;" x="0" y="37.84285702024188" dx="0em" dy="0.3em" fill="rgb(33, 33, 33)" stroke="none" stroke-width="1px">2e+3</text><text style="text-anchor: end; visibility: hidden; font-family: Roboto, sans-serif; font-size: 12px; font-weight: 200;" x="0" y="25.228571346827923" dx="0em" dy="0.3em" fill="rgb(33, 33, 33)" stroke="none" stroke-width="1px">2.2e+3</text><text style="text-anchor: end; visibility: inherit; font-family: Roboto, sans-serif; font-size: 12px; font-weight: 200;" x="0" y="12.614285673413953" dx="0em" dy="0.3em" fill="rgb(33, 33, 33)" stroke="none" stroke-width="1px">2.4e+3</text><text style="text-anchor: end; visibility: hidden; font-family: Roboto, sans-serif; font-size: 12px; font-weight: 200;" x="0" y="0" dx="0em" dy="0.3em" fill="rgb(33, 33, 33)" stroke="none" stroke-width="1px">2.6e+3</text></g><line x1="72.29800224304199" y1="0" x2="72.29800224304199" y2="176.5999994277954" fill="rgb(0, 0, 0)" stroke="rgb(204, 204, 204)" stroke-width="1px"></line></g></g><g transform="translate(72, 0)" clip-path="url(#clip_0)"><clipPath id="clip_0"><rect width="257" height="176"></rect></clipPath><g><g><g><line x1="0" y1="0" x2="0" y2="176.5999994277954" fill="rgb(0, 0, 0)" stroke="rgb(66, 66, 66)" stroke-width="1px" opacity="0.25"></line><line x1="21.4751664797465" y1="0" x2="21.4751664797465" y2="176.5999994277954" fill="rgb(0, 0, 0)" stroke="rgb(66, 66, 66)" stroke-width="1px" opacity="0.25"></line><line x1="42.950332959493" y1="0" x2="42.950332959493" y2="176.5999994277954" fill="rgb(0, 0, 0)" stroke="rgb(66, 66, 66)" stroke-width="1px" opacity="0.25"></line><line x1="64.4254994392395" y1="0" x2="64.4254994392395" y2="176.5999994277954" fill="rgb(0, 0, 0)" stroke="rgb(66, 66, 66)" stroke-width="1px" opacity="0.25"></line><line x1="85.900665918986" y1="0" x2="85.900665918986" y2="176.5999994277954" fill="rgb(0, 0, 0)" stroke="rgb(66, 66, 66)" stroke-width="1px" opacity="0.25"></line><line x1="107.37583239873251" y1="0" x2="107.37583239873251" y2="176.5999994277954" fill="rgb(0, 0, 0)" stroke="rgb(66, 66, 66)" stroke-width="1px" opacity="0.25"></line><line x1="128.850998878479" y1="0" x2="128.850998878479" y2="176.5999994277954" fill="rgb(0, 0, 0)" stroke="rgb(66, 66, 66)" stroke-width="1px" opacity="0.25"></line><line x1="150.32616535822552" y1="0" x2="150.32616535822552" y2="176.5999994277954" fill="rgb(0, 0, 0)" stroke="rgb(66, 66, 66)" stroke-width="1px" opacity="0.25"></line><line x1="171.801331837972" y1="0" x2="171.801331837972" y2="176.5999994277954" fill="rgb(0, 0, 0)" stroke="rgb(66, 66, 66)" stroke-width="1px" opacity="0.25"></line><line x1="193.2764983177185" y1="0" x2="193.2764983177185" y2="176.5999994277954" fill="rgb(0, 0, 0)" stroke="rgb(66, 66, 66)" stroke-width="1px" opacity="0.25"></line><line x1="214.75166479746503" y1="0" x2="214.75166479746503" y2="176.5999994277954" fill="rgb(0, 0, 0)" stroke="rgb(66, 66, 66)" stroke-width="1px" opacity="0.25"></line><line x1="236.2268312772115" y1="0" x2="236.2268312772115" y2="176.5999994277954" fill="rgb(0, 0, 0)" stroke="rgb(66, 66, 66)" stroke-width="1px" opacity="0.25"></line><line x1="257.701997756958" y1="0" x2="257.701997756958" y2="176.5999994277954" fill="rgb(0, 0, 0)" stroke="rgb(66, 66, 66)" stroke-width="1px" opacity="0.25"></line></g><g><line x1="0" y1="176.5999994277954" x2="257.701997756958" y2="176.5999994277954" fill="rgb(0, 0, 0)" stroke="rgb(66, 66, 66)" stroke-width="1px" opacity="0.25"></line><line x1="0" y1="163.98571375438146" x2="257.701997756958" y2="163.98571375438146" fill="rgb(0, 0, 0)" stroke="rgb(66, 66, 66)" stroke-width="1px" opacity="0.25"></line><line x1="0" y1="151.37142808096752" x2="257.701997756958" y2="151.37142808096752" fill="rgb(0, 0, 0)" stroke="rgb(66, 66, 66)" stroke-width="1px" opacity="0.25"></line><line x1="0" y1="138.75714240755354" x2="257.701997756958" y2="138.75714240755354" fill="rgb(0, 0, 0)" stroke="rgb(66, 66, 66)" stroke-width="1px" opacity="0.25"></line><line x1="0" y1="126.14285673413958" x2="257.701997756958" y2="126.14285673413958" fill="rgb(0, 0, 0)" stroke="rgb(66, 66, 66)" stroke-width="1px" opacity="0.25"></line><line x1="0" y1="113.52857106072561" x2="257.701997756958" y2="113.52857106072561" fill="rgb(0, 0, 0)" stroke="rgb(66, 66, 66)" stroke-width="1px" opacity="0.25"></line><line x1="0" y1="100.91428538731165" x2="257.701997756958" y2="100.91428538731165" fill="rgb(0, 0, 0)" stroke="rgb(66, 66, 66)" stroke-width="1px" opacity="0.25"></line><line x1="0" y1="88.2999997138977" x2="257.701997756958" y2="88.2999997138977" fill="rgb(0, 0, 0)" stroke="rgb(66, 66, 66)" stroke-width="1px" opacity="0.25"></line><line x1="0" y1="75.68571404048376" x2="257.701997756958" y2="75.68571404048376" fill="rgb(0, 0, 0)" stroke="rgb(66, 66, 66)" stroke-width="1px" opacity="0.25"></line><line x1="0" y1="63.07142836706978" x2="257.701997756958" y2="63.07142836706978" fill="rgb(0, 0, 0)" stroke="rgb(66, 66, 66)" stroke-width="1px" opacity="0.25"></line><line x1="0" y1="50.457142693655825" x2="257.701997756958" y2="50.457142693655825" fill="rgb(0, 0, 0)" stroke="rgb(66, 66, 66)" stroke-width="1px" opacity="0.25"></line><line x1="0" y1="37.84285702024188" x2="257.701997756958" y2="37.84285702024188" fill="rgb(0, 0, 0)" stroke="rgb(66, 66, 66)" stroke-width="1px" opacity="0.25"></line><line x1="0" y1="25.228571346827923" x2="257.701997756958" y2="25.228571346827923" fill="rgb(0, 0, 0)" stroke="rgb(66, 66, 66)" stroke-width="1px" opacity="0.25"></line><line x1="0" y1="12.614285673413953" x2="257.701997756958" y2="12.614285673413953" fill="rgb(0, 0, 0)" stroke="rgb(66, 66, 66)" stroke-width="1px" opacity="0.25"></line><line x1="0" y1="0" x2="257.701997756958" y2="0" fill="rgb(0, 0, 0)" stroke="rgb(66, 66, 66)" stroke-width="1px" opacity="0.25"></line></g></g></g><g><g><line x1="0" y1="163.98571375438146" x2="257.701997756958" y2="163.98571375438146" fill="rgb(0, 0, 0)" stroke="rgb(153, 153, 153)" stroke-width="1.5px"></line></g></g><g><g><line x1="21.4751664797465" y1="0" x2="21.4751664797465" y2="176.5999994277954" fill="rgb(0, 0, 0)" stroke="rgb(153, 153, 153)" stroke-width="1.5px"></line></g></g><g><g><g><g><g><path style="fill: none;" stroke="rgb(238, 51, 119)" stroke-width="2px" d="M23.234412117767334,159.18454611017827L24.11403493677775,154.37817110405777L24.993657755788167,148.97182569822854L25.873280574798585,141.9323491729496L26.752903393809,134.4347969984751L27.632526212819418,127.0242186199063L28.512149031829836,119.76873734542441L29.391771850840254,113.11143193713825L30.271394669850668,106.99422406576146L31.151017488861083,101.32013269570409L32.0306403078715,96.42437255434908L32.910263126881915,91.94768299804196L33.78988594589233,88.77018980451118L34.66950876490275,85.85454997064663L35.549131583913166,82.82399257355605L36.42875440292359,80.24940832060781L37.308377221934,78.46448134877598L38.18800004094442,77.07671428614454L39.06762285995484,75.60284570379447L39.94724567896525,74.0942768393267L40.82686849797567,72.58043726087466L41.70649131698609,71.39284528146347L42.5861141359965,69.80859608250229L43.46573695500692,68.53235802849926L44.34535977401734,67.58736938292847L45.224982593027754,66.74128236369557L46.10460541203817,65.95802611598072L46.98422823104859,64.94382019324723L47.863851050059,63.94906704557922L48.74347386906941,63.20414346774616L49.62309668807983,62.540983592352156L50.50271950709025,61.85237481910285L51.38234232610066,61.175344858004706L52.261965145111084,60.64719188745508L53.1415879641215,60.220778603757665L54.02121078313191,59.778793622514684L54.900833602142335,59.37505939130588L55.78045642115275,58.96935233755384L56.660079240163164,58.46322922050482L57.539702059173585,57.880067183286414L58.419324878184,57.432936619524455L59.298947697194414,56.95629183698238L60.178570516204836,56.5279203812704L61.05819333521525,56.19828604686764L61.937816154225665,55.84901821582924L62.81743897323609,55.771950591476056L63.6970617922465,55.52193770361159L64.57668461125692,55.2688567473993L65.45630743026733,54.98068630251164L66.33593024927775,54.56176986941987L67.21555306828816,54.1115663513107L68.09517588729858,53.82808757310401L68.974798706309,53.44511813233207L69.85442152531942,53.15585404968716L70.73404434432983,52.87704948210009L71.61366716334025,52.6516225617083L72.49328998235066,52.40033538967943L73.37291280136108,52.10988078865281L74.2525356203715,51.77622917528743L75.13215843938193,51.53997800423222L76.01178125839233,51.349578552953226L76.89140407740275,51.15126528358764L77.77102689641316,50.94483788887192L78.6506497154236,50.7367279915794L79.530272534434,50.4670611013171L80.40989535344443,50.191128840712075L81.28951817245483,49.93946251243326L82.16914099146524,49.66034573248053L83.04876381047566,49.507914963648396L83.92838662948608,49.30167142098538L84.8080094484965,49.10547609450708L85.68763226750691,49.038029612703575L86.56725508651733,48.862312802029734L87.44687790552774,48.69715347096319L88.32650072453816,48.388509986515864L89.20612354354859,48.14241591751252L90.08574636255901,48.002197739362686L90.96536918156941,47.74078932278253L91.84499200057984,47.58460430181628L92.72461481959024,47.386887076774315L93.60423763860067,47.18904003345787L94.48386045761109,47.14247476125089L95.36348327662151,47.113225223250915L96.24310609563192,47.06291140505113L97.12272891464234,46.98445904576279L98.00235173365274,46.88464550037246L98.88197455266317,46.57936179384381L99.76159737167359,46.54287377790942L100.64122019068401,46.29757154508693L101.52084300969442,46.148625347029395L102.40046582870484,46.035180165890104L103.28008864771525,45.86081384554596L104.15971146672567,45.644537934400674L105.03933428573609,45.42400964615671L105.9189571047465,45.170330491295275L106.79857992375692,44.98658479200263L107.67820274276733,44.7444589945985L108.55782556177775,44.54102929570583L109.43744838078817,44.30203646406802L110.31707119979859,44.07406008013061L111.196694018809,43.8445370220519L112.07631683781942,43.58961520544809L112.95593965682983,43.32466467270828L113.83556247584025,43.09232352354612L114.71518529485067,42.864563968705795L115.59480811386109,42.66228848377429L116.4744309328715,42.47765246169518L117.35405375188192,42.263328602323725L118.23367657089233,41.99837006634996L119.11329938990275,41.76223897759511L119.99292220891317,41.50726058351134L120.8725450279236,41.28810177280654L121.752167846934,41.06451123922719L122.63179066594442,40.87788685748772L123.51141348495483,40.69182623849485L124.39103630396525,40.431472279051455L125.27065912297567,40.25122117305437L126.15028194198608,40.09084838143272L127.0299047609965,39.90701113970265L127.90952758000691,39.69971110309722L128.78915039901733,39.535244979413356L129.66877321802775,39.37661461384702L130.54839603703815,39.197028774344616L131.4280188560486,39.10542989664949L132.30764167505902,38.96054424928828L133.1872644940694,38.80600511801414L134.06688731307983,38.63801706660979L134.94651013209025,38.38974992000219L135.82613295110067,38.18145512183775L136.70575577011107,37.945435355890154L137.5853785891215,37.78015427342089L138.46500140813194,37.69552958791509L139.34462422714233,37.40239117931624L140.22424704615275,37.202077969645295L141.10386986516315,37.00325609178006L141.9834926841736,36.85288532303128L142.86311550318402,36.650226453218224L143.7427383221944,36.48786341519489L144.62236114120483,36.357746596072076L145.50198396021526,36.2775984243097L146.38160677922568,36.14050673676207L147.26122959823607,35.9411625400028L148.1408524172465,35.80127269577445L149.0204752362569,35.70732326323999L149.90009805526734,35.506839037289765L150.77972087427776,35.28922005324826L151.65934369328815,35.121257645978005L152.53896651229857,35.02839910936494L153.41858933130902,34.80562526205562L154.29821215031942,34.57500050071977L155.17783496932984,34.36583202017562L156.05745778834023,34.16239087553931L156.93708060735068,33.923692652916024L157.8167034263611,33.712421256855784L158.6963262453715,33.47550247495033L159.57594906438192,33.245748784420876L160.45557188339234,33.0439856199188L161.33519470240276,32.82866392939325L162.21481752141315,32.61926333723732L163.09444034042357,32.41335243620873L163.97406315943402,32.22247531174925L164.85368597844442,32.04489237464835L165.73330879745484,31.831868822837237L166.61293161646523,31.620793335051204L167.49255443547568,31.410460265600168L168.3721772544861,31.20697909853339L169.2518000734965,30.993825793975166L170.13142289250692,30.81378602580282L171.0110457115173,30.68788188553037L171.89066853052776,30.57459001004971L172.77029134953816,30.38770158035803L173.64991416854858,30.225666958795106L174.529536987559,30.06045639639193L175.40915980656942,29.935697821070566L176.28878262557984,29.78148057625705L177.16840544459023,29.672640436615612L178.04802826360066,29.513301571771265L178.9276510826111,29.316048369806975L179.8072739016215,29.11152733607425L180.68689672063192,28.897491626745428L181.56651953964231,28.730609858984703L182.44614235865276,28.519904332533738L183.32576517766316,28.33944283989695L184.20538799667358,28.155890196685522L185.085010815684,27.957751122327487L185.96463363469442,27.81648603057031L186.84425645370484,27.68145216322412L187.72387927271524,27.52102805755276L188.60350209172566,27.352023950530977L189.4831249107361,27.20491792449639L190.3627477297465,27.036593574220646L191.24237054875692,26.83585370761716L192.12199336776732,26.674368854950938L193.00161618677774,26.53695636013724L193.8812390057882,26.393035882704616L194.76086182479858,26.25331142210782L195.640484643809,26.068512800501903L196.5201074628194,25.910122559287018L197.39973028182985,25.738213612025195L198.27935310084024,25.554151917529634L199.15897591985066,25.379993256274815L200.03859873886108,25.197698369596182L200.9182215578715,25.027883407507307L201.79784437688193,24.85788639745324L202.67746719589232,24.69849492810893L203.55709001490274,24.538481079518093L204.4367128339132,24.384606715540198L205.31633565292358,24.211505413374223L206.195958471934,24.071531708379943L207.0755812909444,23.90891946104475L207.95520410995485,23.714016144909426L208.83482692896524,23.528233081709235L209.71444974797566,23.34171307186834L210.59407256698609,23.18062305592388L211.4736953859965,23.032038841406255L212.35331820500693,22.85336401940739L213.23294102401732,22.709721413243876L214.11256384302774,22.559342280764334L214.99218666203816,22.422361269914717L215.8718094810486,22.27337898136448L216.751432300059,22.130748453411588L217.6310551190694,21.98273082354418L218.51067793807982,21.87772934625959L219.39030075709027,21.78171818609378L220.26992357610067,21.622473897696494L221.1495463951111,21.50176952482618L222.02916921412148,21.330297027801013L222.90879203313193,21.140200342606246L223.78841485214232,20.966772170560205L224.66803767115275,20.774328699068313L225.54766049016317,20.614619658419347L226.4272833091736,20.454180752227536L227.306906128184,20.299225270395493L228.1865289471944,20.13421005423437L229.06615176620483,19.981924621415118L229.94577458521528,19.84827019005394L230.82539740422567,19.699570459939352L231.7050202232361,19.584242405792438L232.58464304224648,19.446583291823718L233.46426586125693,19.33424261358492L234.34388868026733,19.200415994367148L235.22351149927775,19.093826827677134L236.10313431828817,18.998847162848254L236.98275713729856,18.88747489858609" fill="none"></path></g></g></g></g><g opacity="0.2"><g><g><g><path style="fill: none;" stroke="rgb(238, 51, 119)" stroke-width="2px" d="M23.234412117767334,159.18454611017827L24.11403493677775,149.57660247294365L24.993657755788167,138.17534851644197L25.873280574798585,120.85612830539866L26.752903393809,104.51948888427994L27.632526212819418,90.08233730229124L28.512149031829836,76.3879611172402L29.391771850840254,66.69632628710482L30.271394669850668,58.2762675026541L31.151017488861083,50.507964776010695L32.0306403078715,47.73523176148741L32.910263126881915,42.99857673009924L33.78988594589233,50.887209456003994L34.66950876490275,48.21549697512381L35.549131583913166,40.71302276498796L36.42875440292359,41.938157544082L37.308377221934,50.14719035439783L38.18800004094442,53.69587439877301L39.06762285995484,49.32382026603608L39.94724567896525,45.716384015866325L40.82686849797567,42.619547626277125L41.70649131698609,46.72592722548591L42.5861141359965,35.353137022728504L43.46573695500692,39.528554890756574L44.34535977401734,45.18897691308301L45.224982593027754,45.86189793141047L46.10460541203817,45.86600927696077L46.98422823104859,37.94032824620953L47.863851050059,36.49623736954089L48.74347386906941,41.92239738613919L49.62309668807983,42.95159652308071L50.50271950709025,40.843661924720934L51.38234232610066,39.86419159098046L52.261965145111084,43.51130155579566L53.1415879641215,45.973674176165495L54.02121078313191,44.584639913785544L54.900833602142335,45.10640354037343L55.78045642115275,44.24001060756402L56.660079240163164,39.60100388256983L57.539702059173585,35.58590539355633L58.419324878184,39.909639667353844L59.298947697194414,37.81882797630467L60.178570516204836,38.917904589303234L61.05819333521525,42.331522463287364L61.937816154225665,40.82210430760328L62.81743897323609,52.38251507162498L63.6970617922465,44.287599047351236L64.57668461125692,43.655198650055965L65.45630743026733,41.48214464970294L66.33593024927775,34.539922111858935L67.21555306828816,32.16613589954471L68.09517588729858,39.74037387723544L68.974798706309,34.04957871222004L69.85442152531942,38.23171023815048L70.73404434432983,38.22840730324208L71.61366716334025,40.59413250658411L72.49328998235066,38.72205363778937L73.37291280136108,36.02524963041406L74.2525356203715,32.98461702831015L75.13215843938193,38.011352895463226L76.01178125839233,40.26728823448464L76.89140407740275,39.42177539368347L77.77102689641316,38.541416204641415L78.6506497154236,38.03681398110896L79.530272534434,33.75768857644705L80.40989535344443,32.83497636891777L81.28951817245483,33.874053513988535L82.16914099146524,31.58158571310166L83.04876381047566,39.492368890594804L83.92838662948608,35.557841995558526L84.8080094484965,35.848323187069916L85.68763226750691,44.417768558997L86.56725508651733,36.661745974961676L87.44687790552774,37.07609877426086L88.32650072453816,26.38490653072077L89.20612354354859,30.36973966513087L90.08574636255901,37.74582464576553L90.96536918156941,28.377831241757875L91.84499200057984,35.87125895185331L92.72461481959024,32.376076293674735L93.60423763860067,31.985744839163793L94.48386045761109,43.5212873520105L95.36348327662151,44.81166471948132L96.24310609563192,43.057559910362926L97.12272891464234,40.66694335839898L98.00235173365274,38.755306262193365L98.88197455266317,21.435339233699906L99.76159737167359,43.50417214384888L100.64122019068401,25.644309992941817L101.52084300969442,33.47181917516906L102.40046582870484,36.27618799281249L103.28008864771525,30.70195794321182L104.15971146672567,26.644937588053462L105.03933428573609,25.849908067052432L105.9189571047465,22.42284747896566L106.79857992375692,28.342969495219037L107.67820274276733,22.592844688236273L108.55782556177775,25.745030259775067L109.43744838078817,22.003490232835585L110.31707119979859,22.59689444059482L111.196694018809,22.013991872031475L112.07631683781942,19.112906345019507L112.95593965682983,17.645787313779824L113.83556247584025,20.364341416997075L114.71518529485067,20.37950874046913L115.59480811386109,22.510987336380968L116.4744309328715,23.9175910567118L117.35405375188192,20.52640850282798L118.23367657089233,14.888213923579656L119.11329938990275,17.389929195189197L119.99292220891317,14.961217254118774L120.8725450279236,18.2751465472317L121.752167846934,17.386310595173015L122.63179066594442,20.94772133279658L123.51141348495483,20.655861993619475L124.39103630396525,12.163161738631239L125.27065912297567,20.519694844925635L126.15028194198608,22.39268221329889L127.0299047609965,19.456026618042788L127.90952758000691,16.454574985050208L128.78915039901733,20.94733637534806L129.66877321802775,21.307718140363413L130.54839603703815,18.582234803072634L131.4280188560486,28.50973306192201L132.30764167505902,22.07292115825236L133.1872644940694,20.65681668809182L134.06688731307983,18.76128621153268L134.94651013209025,8.795569377193301L135.82613295110067,13.168839975467574L136.70575577011107,9.39608759860134L137.5853785891215,17.642353493338955L138.46500140813194,27.310652202944457L139.34462422714233,1.1724879984331487L140.22424704615275,12.269379197829492L141.10386986516315,12.082305276142096L141.9834926841736,17.8735743352237L142.86311550318402,10.894403581469843L143.7427383221944,15.711653304282141L144.62236114120483,19.594472714831944L145.50198396021526,25.882167501239206L146.38160677922568,18.24017701260729L147.26122959823607,9.739284863114342L148.1408524172465,17.292735138584472L149.0204752362569,23.19564185773963L149.90009805526734,8.633841053917081L150.77972087427776,5.931239587366907L151.65934369328815,12.317083124851253L152.53896651229857,22.340882339024763L153.41858933130902,4.1753100799425L154.29821215031942,2.6665386527719246L155.17783496932984,5.245969134090627L156.05745778834023,5.6649568210701124L156.93708060735068,0.28252797062475715L157.8167034263611,3.7553984950865384L158.6963262453715,-0.3212546899468277L159.57594906438192,0.2743514744179806L160.45557188339234,3.9168342507018523L161.33519470240276,1.5601401491023392L162.21481752141315,2.0318054133385886L163.09444034042357,2.1600116419968547L163.97406315943402,4.015321764333644L164.85368597844442,5.651144547816855L165.73330879745484,-0.010486240897939415L167.49255443547568,-0.3869130323680091L168.3721772544861,0.2729348310074088L169.2518000734965,-1.591152321155862L170.13142289250692,3.138573476158784L171.0110457115173,11.227822926790182L171.89066853052776,12.968246348187847L172.77029134953816,1.1862848733884326L173.64991416854858,4.771116422180537L174.529536987559,3.967895006674816L175.40915980656942,10.126998606975286L176.28878262557984,5.165867188200599L177.16840544459023,12.208602115855657L178.04802826360066,3.8128341464071243L178.9276510826111,-2.6650296195737146L180.68689672063192,-6.1626298105290145L181.56651953964231,1.2551614600793402L182.44614235865276,-6.346500886244618L185.085010815684,-5.324192487631816L185.96463363469442,3.9704203275371603L186.84425645370484,4.775135377943178L187.72387927271524,0.17461669865297938L188.60350209172566,-1.5969882760755703L189.4831249107361,1.8851058288529685L190.3627477297465,-2.0744894952315276L192.12199336776732,-1.5205049302017248L193.00161618677774,2.43177620236072L193.8812390057882,1.0276824045943014L194.76086182479858,1.5125286118681964L195.640484643809,-6.805370164891785L217.6310551190694,-7.350454513711582L218.51067793807982,0.9851215090848859L219.39030075709027,2.6011420814157433L220.26992357610067,-10.317737323572665" fill="none"></path></g></g></g></g></g></g><g transform="translate(72, 176)" clip-path="url(#clip_1)"><clipPath id="clip_1"><rect width="257" height="23"></rect></clipPath><g><g><line x1="0" y1="0" x2="0" y2="5" style="visibility: inherit;" fill="rgb(0, 0, 0)" stroke="rgb(204, 204, 204)" stroke-width="1px"></line><line x1="21.4751664797465" y1="0" x2="21.4751664797465" y2="5" style="visibility: inherit;" fill="rgb(0, 0, 0)" stroke="rgb(204, 204, 204)" stroke-width="1px"></line><line x1="42.950332959493" y1="0" x2="42.950332959493" y2="5" style="visibility: inherit;" fill="rgb(0, 0, 0)" stroke="rgb(204, 204, 204)" stroke-width="1px"></line><line x1="64.4254994392395" y1="0" x2="64.4254994392395" y2="5" style="visibility: inherit;" fill="rgb(0, 0, 0)" stroke="rgb(204, 204, 204)" stroke-width="1px"></line><line x1="85.900665918986" y1="0" x2="85.900665918986" y2="5" style="visibility: inherit;" fill="rgb(0, 0, 0)" stroke="rgb(204, 204, 204)" stroke-width="1px"></line><line x1="107.37583239873251" y1="0" x2="107.37583239873251" y2="5" style="visibility: inherit;" fill="rgb(0, 0, 0)" stroke="rgb(204, 204, 204)" stroke-width="1px"></line><line x1="128.850998878479" y1="0" x2="128.850998878479" y2="5" style="visibility: inherit;" fill="rgb(0, 0, 0)" stroke="rgb(204, 204, 204)" stroke-width="1px"></line><line x1="150.32616535822552" y1="0" x2="150.32616535822552" y2="5" style="visibility: inherit;" fill="rgb(0, 0, 0)" stroke="rgb(204, 204, 204)" stroke-width="1px"></line><line x1="171.801331837972" y1="0" x2="171.801331837972" y2="5" style="visibility: inherit;" fill="rgb(0, 0, 0)" stroke="rgb(204, 204, 204)" stroke-width="1px"></line><line x1="193.2764983177185" y1="0" x2="193.2764983177185" y2="5" style="visibility: inherit;" fill="rgb(0, 0, 0)" stroke="rgb(204, 204, 204)" stroke-width="1px"></line><line x1="214.75166479746503" y1="0" x2="214.75166479746503" y2="5" style="visibility: inherit;" fill="rgb(0, 0, 0)" stroke="rgb(204, 204, 204)" stroke-width="1px"></line><line x1="236.2268312772115" y1="0" x2="236.2268312772115" y2="5" style="visibility: inherit;" fill="rgb(0, 0, 0)" stroke="rgb(204, 204, 204)" stroke-width="1px"></line><line x1="257.701997756958" y1="0" x2="257.701997756958" y2="5" style="visibility: inherit;" fill="rgb(0, 0, 0)" stroke="rgb(204, 204, 204)" stroke-width="1px"></line></g><g transform="translate(0, 8)"><text style="text-anchor: middle; visibility: hidden; font-family: Roboto, sans-serif; font-size: 12px; font-weight: 200;" x="0" y="0" dx="0em" dy="0.95em" fill="rgb(33, 33, 33)" stroke="none" stroke-width="1px">-50k</text><text style="text-anchor: middle; visibility: inherit; font-family: Roboto, sans-serif; font-size: 12px; font-weight: 200;" x="21.4751664797465" y="0" dx="0em" dy="0.95em" fill="rgb(33, 33, 33)" stroke="none" stroke-width="1px">0</text><text style="text-anchor: middle; visibility: hidden; font-family: Roboto, sans-serif; font-size: 12px; font-weight: 200;" x="42.950332959493" y="0" dx="0em" dy="0.95em" fill="rgb(33, 33, 33)" stroke="none" stroke-width="1px">50k</text><text style="text-anchor: middle; visibility: inherit; font-family: Roboto, sans-serif; font-size: 12px; font-weight: 200;" x="64.4254994392395" y="0" dx="0em" dy="0.95em" fill="rgb(33, 33, 33)" stroke="none" stroke-width="1px">100k</text><text style="text-anchor: middle; visibility: hidden; font-family: Roboto, sans-serif; font-size: 12px; font-weight: 200;" x="85.900665918986" y="0" dx="0em" dy="0.95em" fill="rgb(33, 33, 33)" stroke="none" stroke-width="1px">150k</text><text style="text-anchor: middle; visibility: inherit; font-family: Roboto, sans-serif; font-size: 12px; font-weight: 200;" x="107.37583239873251" y="0" dx="0em" dy="0.95em" fill="rgb(33, 33, 33)" stroke="none" stroke-width="1px">200k</text><text style="text-anchor: middle; visibility: hidden; font-family: Roboto, sans-serif; font-size: 12px; font-weight: 200;" x="128.850998878479" y="0" dx="0em" dy="0.95em" fill="rgb(33, 33, 33)" stroke="none" stroke-width="1px">250k</text><text style="text-anchor: middle; visibility: inherit; font-family: Roboto, sans-serif; font-size: 12px; font-weight: 200;" x="150.32616535822552" y="0" dx="0em" dy="0.95em" fill="rgb(33, 33, 33)" stroke="none" stroke-width="1px">300k</text><text style="text-anchor: middle; visibility: hidden; font-family: Roboto, sans-serif; font-size: 12px; font-weight: 200;" x="171.801331837972" y="0" dx="0em" dy="0.95em" fill="rgb(33, 33, 33)" stroke="none" stroke-width="1px">350k</text><text style="text-anchor: middle; visibility: inherit; font-family: Roboto, sans-serif; font-size: 12px; font-weight: 200;" x="193.2764983177185" y="0" dx="0em" dy="0.95em" fill="rgb(33, 33, 33)" stroke="none" stroke-width="1px">400k</text><text style="text-anchor: middle; visibility: hidden; font-family: Roboto, sans-serif; font-size: 12px; font-weight: 200;" x="214.75166479746503" y="0" dx="0em" dy="0.95em" fill="rgb(33, 33, 33)" stroke="none" stroke-width="1px">450k</text><text style="text-anchor: middle; visibility: inherit; font-family: Roboto, sans-serif; font-size: 12px; font-weight: 200;" x="236.2268312772115" y="0" dx="0em" dy="0.95em" fill="rgb(33, 33, 33)" stroke="none" stroke-width="1px">500k</text><text style="text-anchor: middle; visibility: hidden; font-family: Roboto, sans-serif; font-size: 12px; font-weight: 200;" x="257.701997756958" y="0" dx="0em" dy="0.95em" fill="rgb(33, 33, 33)" stroke="none" stroke-width="1px">550k</text></g><line x1="0" y1="0" x2="257.701997756958" y2="0" fill="rgb(0, 0, 0)" stroke="rgb(204, 204, 204)" stroke-width="1px"></line></g></g></g></g></svg>