<svg viewBox="0 0 330 200" xmlns="http://www.w3.org/2000/svg"><g><g><g><g><g><line x1="61.91500186920166" y1="176.5999994277954" x2="56.91500186920166" y2="176.5999994277954" style="visibility: inherit;" fill="rgb(0, 0, 0)" stroke="rgb(204, 204, 204)" stroke-width="1px"></line><line x1="61.91500186920166" y1="161.8833328088125" x2="56.91500186920166" y2="161.8833328088125" style="visibility: inherit;" fill="rgb(0, 0, 0)" stroke="rgb(204, 204, 204)" stroke-width="1px"></line><line x1="61.91500186920166" y1="147.16666618982953" x2="56.91500186920166" y2="147.16666618982953" style="visibility: inherit;" fill="rgb(0, 0, 0)" stroke="rgb(204, 204, 204)" stroke-width="1px"></line><line x1="61.91500186920166" y1="132.44999957084656" x2="56.91500186920166" y2="132.44999957084656" style="visibility: inherit;" fill="rgb(0, 0, 0)" stroke="rgb(204, 204, 204)" stroke-width="1px"></line><line x1="61.91500186920166" y1="117.73333295186362" x2="56.91500186920166" y2="117.73333295186362" style="visibility: inherit;" fill="rgb(0, 0, 0)" stroke="rgb(204, 204, 204)" stroke-width="1px"></line><line x1="61.91500186920166" y1="103.01666633288069" x2="56.91500186920166" y2="103.01666633288069" style="visibility: inherit;" fill="rgb(0, 0, 0)" stroke="rgb(204, 204, 204)" stroke-width="1px"></line><line x1="61.91500186920166" y1="88.2999997138977" x2="56.91500186920166" y2="88.2999997138977" style="visibility: inherit;" fill="rgb(0, 0, 0)" stroke="rgb(204, 204, 204)" stroke-width="1px"></line><line x1="61.91500186920166" y1="73.58333309491479" x2="56.91500186920166" y2="73.58333309491479" style="visibility: inherit;" fill="rgb(0, 0, 0)" stroke="rgb(204, 204, 204)" stroke-width="1px"></line><line x1="61.91500186920166" y1="58.86666647593181" x2="56.91500186920166" y2="58.86666647593181" style="visibility: inherit;" fill="rgb(0, 0, 0)" stroke="rgb(204, 204, 204)" stroke-width="1px"></line><line x1="61.91500186920166" y1="44.14999985694885" x2="56.91500186920166" y2="44.14999985694885" style="visibility: inherit;" fill="rgb(0, 0, 0)" stroke="rgb(204, 204, 204)" stroke-width="1px"></line><line x1="61.91500186920166" y1="29.433333237965915" x2="56.91500186920166" y2="29.433333237965915" style="visibility: inherit;" fill="rgb(0, 0, 0)" stroke="rgb(204, 204, 204)" stroke-width="1px"></line><line x1="61.91500186920166" y1="14.716666618982957" x2="56.91500186920166" y2="14.716666618982957" style="visibility: inherit;" fill="rgb(0, 0, 0)" stroke="rgb(204, 204, 204)" stroke-width="1px"></line><line x1="61.91500186920166" y1="0" x2="56.91500186920166" y2="0" style="visibility: inherit;" fill="rgb(0, 0, 0)" stroke="rgb(204, 204, 204)" stroke-width="1px"></line></g><g transform="translate(51.91500186920166, 0)"><text style="text-anchor: end; visibility: hidden; font-family: Roboto, sans-serif; font-size: 12px; font-weight: 200;" x="0" y="176.5999994277954" dx="0em" dy="0.3em" fill="rgb(33, 33, 33)" stroke="none" stroke-width="1px">-0.21</text><text style="text-anchor: end; visibility: inherit; font-family: Roboto, sans-serif; font-size: 12px; font-weight: 200;" x="0" y="161.8833328088125" dx="0em" dy="0.3em" fill="rgb(33, 33, 33)" stroke="none" stroke-width="1px">-0.2</text><text style="text-anchor: end; visibility: hidden; font-family: Roboto, sans-serif; font-size: 12px; font-weight: 200;" x="0" y="147.16666618982953" dx="0em" dy="0.3em" fill="rgb(33, 33, 33)" stroke="none" stroke-width="1px">-0.19</text><text style="text-anchor: end; visibility: inherit; font-family: Roboto, sans-serif; font-size: 12px; font-weight: 200;" x="0" y="132.44999957084656" dx="0em" dy="0.3em" fill="rgb(33, 33, 33)" stroke="none" stroke-width="1px">-0.18</text><text style="text-anchor: end; visibility: hidden; font-family: Roboto, sans-serif; font-size: 12px; font-weight: 200;" x="0" y="117.73333295186362" dx="0em" dy="0.3em" fill="rgb(33, 33, 33)" stroke="none" stroke-width="1px">-0.17</text><text style="text-anchor: end; visibility: inherit; font-family: Roboto, sans-serif; font-size: 12px; font-weight: 200;" x="0" y="103.01666633288069" dx="0em" dy="0.3em" fill="rgb(33, 33, 33)" stroke="none" stroke-width="1px">-0.16</text><text style="text-anchor: end; visibility: hidden; font-family: Roboto, sans-serif; font-size: 12px; font-weight: 200;" x="0" y="88.2999997138977" dx="0em" dy="0.3em" fill="rgb(33, 33, 33)" stroke="none" stroke-width="1px">-0.15</text><text style="text-anchor: end; visibility: inherit; font-family: Roboto, sans-serif; font-size: 12px; font-weight: 200;" x="0" y="73.58333309491479" dx="0em" dy="0.3em" fill="rgb(33, 33, 33)" stroke="none" stroke-width="1px">-0.14</text><text style="text-anchor: end; visibility: hidden; font-family: Roboto, sans-serif; font-size: 12px; font-weight: 200;" x="0" y="58.86666647593181" dx="0em" dy="0.3em" fill="rgb(33, 33, 33)" stroke="none" stroke-width="1px">-0.13</text><text style="text-anchor: end; visibility: inherit; font-family: Roboto, sans-serif; font-size: 12px; font-weight: 200;" x="0" y="44.14999985694885" dx="0em" dy="0.3em" fill="rgb(33, 33, 33)" stroke="none" stroke-width="1px">-0.12</text><text style="text-anchor: end; visibility: hidden; font-family: Roboto, sans-serif; font-size: 12px; font-weight: 200;" x="0" y="29.433333237965915" dx="0em" dy="0.3em" fill="rgb(33, 33, 33)" stroke="none" stroke-width="1px">-0.11</text><text style="text-anchor: end; visibility: inherit; font-family: Roboto, sans-serif; font-size: 12px; font-weight: 200;" x="0" y="14.716666618982957" dx="0em" dy="0.3em" fill="rgb(33, 33, 33)" stroke="none" stroke-width="1px">-0.1</text><text style="text-anchor: end; visibility: hidden; font-family: Roboto, sans-serif; font-size: 12px; font-weight: 200;" x="0" y="0" dx="0em" dy="0.3em" fill="rgb(33, 33, 33)" stroke="none" stroke-width="1px">-0.09</text></g><line x1="61.91500186920166" y1="0" x2="61.91500186920166" y2="176.5999994277954" fill="rgb(0, 0, 0)" stroke="rgb(204, 204, 204)" stroke-width="1px"></line></g></g><g transform="translate(61, 0)" clip-path="url(#clip_0)"><clipPath id="clip_0"><rect width="218" height="176"></rect></clipPath><g><g><g><line x1="0" y1="0" x2="0" y2="176.5999994277954" fill="rgb(0, 0, 0)" stroke="rgb(66, 66, 66)" stroke-width="1px" opacity="0.25"></line><line x1="27.295999766349794" y1="0" x2="27.295999766349794" y2="176.5999994277954" fill="rgb(0, 0, 0)" stroke="rgb(66, 66, 66)" stroke-width="1px" opacity="0.25"></line><line x1="54.59199953269959" y1="0" x2="54.59199953269959" y2="176.5999994277954" fill="rgb(0, 0, 0)" stroke="rgb(66, 66, 66)" stroke-width="1px" opacity="0.25"></line><line x1="81.88799929904938" y1="0" x2="81.88799929904938" y2="176.5999994277954" fill="rgb(0, 0, 0)" stroke="rgb(66, 66, 66)" stroke-width="1px" opacity="0.25"></line><line x1="109.18399906539918" y1="0" x2="109.18399906539918" y2="176.5999994277954" fill="rgb(0, 0, 0)" stroke="rgb(66, 66, 66)" stroke-width="1px" opacity="0.25"></line><line x1="136.47999883174896" y1="0" x2="136.47999883174896" y2="176.5999994277954" fill="rgb(0, 0, 0)" stroke="rgb(66, 66, 66)" stroke-width="1px" opacity="0.25"></line><line x1="163.77599859809877" y1="0" x2="163.77599859809877" y2="176.5999994277954" fill="rgb(0, 0, 0)" stroke="rgb(66, 66, 66)" stroke-width="1px" opacity="0.25"></line><line x1="191.07199836444858" y1="0" x2="191.07199836444858" y2="176.5999994277954" fill="rgb(0, 0, 0)" stroke="rgb(66, 66, 66)" stroke-width="1px" opacity="0.25"></line><line x1="218.36799813079836" y1="0" x2="218.36799813079836" y2="176.5999994277954" fill="rgb(0, 0, 0)" stroke="rgb(66, 66, 66)" stroke-width="1px" opacity="0.25"></line></g><g><line x1="0" y1="176.5999994277954" x2="218.36799813079836" y2="176.5999994277954" fill="rgb(0, 0, 0)" stroke="rgb(66, 66, 66)" stroke-width="1px" opacity="0.25"></line><line x1="0" y1="161.8833328088125" x2="218.36799813079836" y2="161.8833328088125" fill="rgb(0, 0, 0)" stroke="rgb(66, 66, 66)" stroke-width="1px" opacity="0.25"></line><line x1="0" y1="147.16666618982953" x2="218.36799813079836" y2="147.16666618982953" fill="rgb(0, 0, 0)" stroke="rgb(66, 66, 66)" stroke-width="1px" opacity="0.25"></line><line x1="0" y1="132.44999957084656" x2="218.36799813079836" y2="132.44999957084656" fill="rgb(0, 0, 0)" stroke="rgb(66, 66, 66)" stroke-width="1px" opacity="0.25"></line><line x1="0" y1="117.73333295186362" x2="218.36799813079836" y2="117.73333295186362" fill="rgb(0, 0, 0)" stroke="rgb(66, 66, 66)" stroke-width="1px" opacity="0.25"></line><line x1="0" y1="103.01666633288069" x2="218.36799813079836" y2="103.01666633288069" fill="rgb(0, 0, 0)" stroke="rgb(66, 66, 66)" stroke-width="1px" opacity="0.25"></line><line x1="0" y1="88.2999997138977" x2="218.36799813079836" y2="88.2999997138977" fill="rgb(0, 0, 0)" stroke="rgb(66, 66, 66)" stroke-width="1px" opacity="0.25"></line><line x1="0" y1="73.58333309491479" x2="218.36799813079836" y2="73.58333309491479" fill="rgb(0, 0, 0)" stroke="rgb(66, 66, 66)" stroke-width="1px" opacity="0.25"></line><line x1="0" y1="58.86666647593181" x2="218.36799813079836" y2="58.86666647593181" fill="rgb(0, 0, 0)" stroke="rgb(66, 66, 66)" stroke-width="1px" opacity="0.25"></line><line x1="0" y1="44.14999985694885" x2="218.36799813079836" y2="44.14999985694885" fill="rgb(0, 0, 0)" stroke="rgb(66, 66, 66)" stroke-width="1px" opacity="0.25"></line><line x1="0" y1="29.433333237965915" x2="218.36799813079836" y2="29.433333237965915" fill="rgb(0, 0, 0)" stroke="rgb(66, 66, 66)" stroke-width="1px" opacity="0.25"></line><line x1="0" y1="14.716666618982957" x2="218.36799813079836" y2="14.716666618982957" fill="rgb(0, 0, 0)" stroke="rgb(66, 66, 66)" stroke-width="1px" opacity="0.25"></line><line x1="0" y1="0" x2="218.36799813079836" y2="0" fill="rgb(0, 0, 0)" stroke="rgb(66, 66, 66)" stroke-width="1px" opacity="0.25"></line></g></g></g><g><g><line x1="0" y1="-132.44999957084656" x2="218.36799813079836" y2="-132.44999957084656" fill="rgb(0, 0, 0)" stroke="rgb(153, 153, 153)" stroke-width="1.5px"></line></g></g><g><g><line x1="27.295999766349794" y1="0" x2="27.295999766349794" y2="176.5999994277954" fill="rgb(0, 0, 0)" stroke="rgb(153, 153, 153)" stroke-width="1.5px"></line></g></g><g><g><g><g><g><path style="fill: none;" stroke="rgb(204, 51, 17)" stroke-width="2px" d="M27.85502184156464,20.025383340999543L28.414043916779484,84.5860322299274L28.973065991994325,159.93579317835935L29.53208806720917,140.73300704344362L30.091110142424014,120.75082178111806L30.65013221763886,107.12853927971828L31.2091542928537,109.5562739828319L31.768176368068545,118.5468275213429L32.327198443283386,111.1224608729439L32.886220518498234,122.0007900028951L33.445242593713076,119.11645759447786L34.00426466892792,124.92363647773557L34.563286744142765,135.0487571488231L35.12230881935761,130.7279390981717L35.68133089457245,125.64251676808775L36.240352969787295,138.07879484850938L36.79937504500214,123.98940077949062L37.358397120216985,126.0973985793998L37.917419195431826,119.90819405564903L38.47644127064667,117.13004429139812L39.035463345861515,126.38055270140336L39.59448542107636,123.6559254580607L40.1535074962912,129.41753685870708L40.712529571506046,130.20610019651008L41.27155164672089,119.57323468560385L41.830573721935735,119.79404146569077L42.38959579715058,114.39545738515822L42.94861787236542,109.78050371855554L43.507639947580266,103.1376926902156L44.06666202279511,105.46020795167705L44.625684098009955,106.52870727031593L45.1847061732248,110.52074794340301L45.74372824843964,109.60779681678332L46.302750323654486,111.40374496441865L46.86177239886933,109.60470677973318L47.42079447408417,108.92951761561585L47.97981654929902,104.96213583592075L48.53883862451386,108.35702004680041L49.097860699728706,107.78089565184325L49.65688277494355,113.52156528665644L50.21590485015839,116.98794535030153L50.77492692537324,120.34451718559585L51.33394900058808,122.94968139521616L51.89297107580292,125.0293956238377L52.45199315101777,127.93432112968702L53.01101522623261,130.0097832879761L53.57003730144746,126.57630432890124L54.12905937666229,131.12581794702655L54.68808145187714,127.61825050957164L55.24710352709199,122.28836838442461L55.80612560230683,119.80345733349854L56.365147677521676,115.66567875945192L56.92416975273652,115.37186203947881L57.48319182795135,110.87080348162468L58.0422139031662,108.05802415009066L58.60123597838104,105.34319195555241L59.16025805359589,105.1272178457733L59.71928012881074,104.03216038279508L60.27830220402558,105.81067179330867L60.83732427924043,102.22437516961986L61.39634635445527,100.01351265920148L61.955368429670116,97.69267473384993L62.51439050488495,96.054808163691L63.07341258009979,97.01865688209567L63.63243465531464,99.4815654094751L64.19145673052948,97.94081047282967L64.75047880574434,98.7803836160628L65.30950088095918,100.20333636127337L65.86852295617402,100.32697164199837L66.42754503138886,102.4970699493346L66.9865671066037,102.90765521693919L67.54558918181854,99.89015757228077L68.10461125703338,97.84735167802106L68.66363333224824,99.10386111105026L69.22265540746308,95.90079552157613L69.78167748267792,94.49389462001851L70.34069955789278,95.38520117888565L70.89972163310762,97.08000510492715L71.45874370832244,99.38185277337152L72.0177657835373,98.85184349253797L72.57678785875214,100.61195481564033L73.13580993396698,98.66499865529376L73.69483200918182,96.69252240383925L74.25385408439668,97.10454930227243L74.81287615961152,98.09227624466614L75.37189823482636,100.37394203308793L75.9309203100412,102.57373452714882L76.48994238525604,101.75308642454925L77.04896446047088,101.38082077145012L77.60798653568574,100.01693575304026L78.16700861090058,100.93537422377025L78.72603068611542,99.8789372079229L79.28505276133026,98.09676600421955L79.84407483654512,98.1259506772705L80.40309691175996,100.43948250421079L80.96211898697479,99.64595731422125L81.52114106218964,99.95501512763823L82.08016313740448,98.87432695835952L82.63918521261932,101.3134564865468L83.19820728783418,98.85816053174145L83.75722936304902,97.872720224662L84.31625143826386,97.10456833873225L84.87527351347872,96.54452553164818L85.43429558869354,94.7515751854668L85.99331766390839,96.21998167619533L86.55233973912324,97.77819828596421L87.11136181433808,97.06410656855897L87.67038388955292,96.78208598437445L88.22940596476776,95.79627850307342L88.78842803998262,95.72476402403323L89.34745011519746,97.8366373747013L89.90647219041229,96.61350959026005L90.46549426562714,94.65208317757707L91.02451634084198,93.9855873196803L91.58353841605683,92.96524293815345L92.14256049127168,94.57447159422136L92.70158256648652,93.04080933200257L93.26060464170136,93.09405156722181L93.8196267169162,92.80884337349029L94.37864879213105,92.38851850096314L94.93767086734589,93.69352063012516L95.49669294256073,92.69462673844L96.05571501777558,92.87571403752872L96.61473709299042,93.66433278641574L97.17375916820527,91.74090964750036L97.73278124342012,91.1645955914008L98.29180331863496,91.912470181545L98.8508253938498,91.73849596559626L99.40984746906464,90.6373905706016L99.96886954427949,92.62395709701472L100.52789161949433,91.59382180709085L101.08691369470917,92.97856129001333L101.64593576992402,93.68853753660802L102.20495784513886,92.72405444644525L102.7639799203537,92.16072073002117L103.32300199556856,92.1345291106563L103.88202407078339,93.26747189988473L104.44104614599823,93.85332192410996L105.00006822121308,92.92276467047215L105.55909029642793,91.96029699274106L106.11811237164277,91.12775283947478L106.67713444685762,90.43331960235957L107.23615652207246,89.68284848722121L107.7951785972873,89.40620007370397L108.35420067250215,89.30472529823004L108.91322274771699,88.53153965291145L109.47224482293183,90.19811317299691L110.03126689814667,89.87861765435282L110.59028897336152,90.39690932194279L111.14931104857637,88.79779682062603L111.7083331237912,89.30117152831015L112.26735519900606,90.98035716680604L112.8263772742209,91.2538744914508L113.38539934943574,91.7516865372868L113.94442142465059,93.01334314233334L114.50344349986544,92.78118327060376L115.06246557508028,92.09281234815415L115.62148765029511,91.06194700431814L116.18050972550995,90.62325505369267L116.73953180072479,90.83196189186533L117.29855387593963,91.71975520301423L117.85757595115449,90.7939150412393L118.41659802636933,89.68830280094969L118.97562010158417,91.30639328865242L119.53464217679903,90.98763362787952L120.09366425201387,90.26985147975569L120.65268632722871,89.41015859335826L121.21170840244355,89.68290856180421L121.7707304776584,88.44893318169122L122.32975255287325,87.68681837215505L122.88877462808809,87.42440615230738L123.44779670330294,86.14654125399854L124.00681877851778,86.55853211095739L124.5658408537326,85.84964391100827L125.12486292894745,84.49050786924218L125.68388500416229,85.94905341876665L126.24290707937713,85.89186073237583L126.80192915459199,85.68195149310417L127.36095122980683,85.29178154782178L127.91997330502167,84.49687044299023L128.4789953802365,84.61420332142667L129.03801745545135,83.97495307537625L129.59703953066622,85.36174238515939L130.15606160588106,86.64061045380393L130.7150836810959,86.36810683308376L131.27410575631075,85.93362461893099L131.8331278315256,86.3989468694041L132.39214990674043,87.42398433147414L132.95117198195527,86.69097360830455L133.51019405717014,86.02332741523452L134.06921613238495,87.38360424583387L134.6282382075998,86.82503632897458L135.18726028281463,86.77223544993616L135.74628235802948,86.10730557875502L136.30530443324432,85.80766670681226L136.8643265084592,85.60252469114623L137.42334858367403,86.38790459418517L137.98237065888887,87.00643887901785L138.5413927341037,86.64969750109329L139.10041480931855,85.44154595488581L139.6594368845334,84.92053211184715L140.21845895974823,84.62987932804094L140.7774810349631,84.23530582769648L141.33650311017794,84.9692658352881L141.89552518539278,86.27611968544193L142.45454726060763,85.71678807134103L143.01356933582244,85.78321744311852L143.57259141103728,84.97446244025936L144.13161348625215,84.53750228251894L144.690635561467,83.64542086967965L145.24965763668183,83.47510704486928L145.80867971189667,84.32704651041082L146.3677017871115,83.6392696223281L146.92672386232636,83.43972844984604L147.4857459375412,84.40676088779968L148.04476801275607,83.73299506045403L148.6037900879709,84.41826012049654L149.16281216318575,83.78756079788377L149.7218342384006,84.99695196083894L150.28085631361543,84.32733319825655L150.83987838883027,84.26177420310962L151.3989004640451,84.22593874419762L151.95792253925998,84.24734153218228L152.5169446144748,84.9346016884932L153.07596668968964,83.85616420142605L153.63498876490448,83.30649719139846L154.19401084011932,84.49891834890921L154.75303291533416,84.2341668726678L155.31205499054903,85.39025262010037L155.87107706576387,84.72340789051142L156.4300991409787,84.72134897912393L156.98912121619355,85.36319714773529L157.5481432914084,86.53771535977414L158.10716536662324,87.39807487618026L158.66618744183808,87.87129888525047L159.22520951705295,88.46483398869329L159.7842315922678,88.2789307937411L160.34325366748263,89.14790213435178L160.90227574269747,88.61429746774125L161.46129781791228,87.94654783528712L162.02031989312715,87.80021846067211L162.579341968342,87.52878227456686L163.13836404355683,88.30495299652884L163.69738611877168,88.44960006410574L164.25640819398652,88.9655537571374L164.81543026920136,88.70961317736673L165.3744523444162,88.56221991286276L165.93347441963107,88.04735392778635L166.4924964948459,88.21014402395588L167.05151857006075,87.21302017394537L167.6105406452756,86.86261522767342L168.16956272049043,86.58139285591794L168.72858479570527,87.27002806885282L169.28760687092011,87.76408542622853L169.84662894613498,88.68778630058453L170.40565102134983,89.70642207800749L170.96467309656464,90.25705060487569L171.52369517177948,90.11093610566326L172.08271724699432,89.52574582357391L172.64173932220916,89.34454222344353L173.20076139742403,88.91603571157229L173.75978347263887,88.65350107177244L174.3188055478537,88.78642124924444L174.87782762306855,88.95099655384017L175.4368496982834,89.55806821570766L175.99587177349824,89.54081092517141L176.55489384871308,89.09069628298448L177.11391592392795,88.52244644930069L177.6729379991428,88.62342500360413L178.23196007435763,88.23789423327239L178.79098214957247,89.23601754657818L179.3500042247873,89.2008519031001L179.90902630000213,88.63578932289536L180.468048375217,89.58422780787981L181.02707045043184,88.66113285085214L181.58609252564668,89.62494366230621L182.14511460086152,89.91063770868327L182.70413667607636,89.52755240155783L183.2631587512912,89.14449984291052L183.82218082650604,90.1177405085005L184.3812029017209,89.56250074038272L184.94022497693575,89.16062929507437L185.4992470521506,90.10305645698357L186.05826912736543,90.23694476566473L186.61729120258028,89.88014949863125L187.17631327779512,90.33092341319343L187.73533535300996,90.28235837767605L188.29435742822483,91.24258743386851L188.85337950343967,91.55090698259482L189.41240157865448,91.78009951314735L189.97142365386932,91.82365938089458L190.53044572908416,91.45303076018682L191.089467804299,91.30298883861681L191.64848987951387,91.52856064988063L192.20751195472872,91.64533560759331L192.76653402994356,91.30522551728724L193.3255561051584,90.56221212365341L193.88457818037324,90.85778385618916L194.44360025558808,91.26426942359267L195.00262233080292,90.40148370728613L195.5616444060178,91.27638573325727L196.12066648123263,91.07056794611647L196.67968855644747,91.39254360049968L197.23871063166231,92.03535144415184L197.79773270687716,91.3480824420618L198.35675478209197,91.3975534871679L198.91577685730684,91.70889429556152L199.47479893252168,92.09215381584204L200.03382100773652,91.5596943545949L200.59284308295136,91.06027527909498L201.1518651581662,91.92453437622694L201.71088723338104,92.80488236097236L202.26990930859589,92.55814057599879L202.82893138381075,93.34607830404482L203.3879534590256,94.18869001396577L203.94697553424044,93.48794020500719L204.50599760945528,94.17160994712933L205.06501968467012,94.86885762306137L205.62404175988496,94.52330531833609L206.1830638350998,94.78130379837957L206.74208591031467,94.40044627574584L207.3011079855295,93.82334819643776L207.86013006074432,93.70686250304891L208.41915213595917,94.09228956307011L208.978174211174,93.27618600587901L209.53719628638888,93.73874986232569L210.09621836160372,94.01087838612555L210.65524043681856,94.37004093657761L211.2142625120334,94.2706513743517L211.77328458724824,93.59649671072556L212.33230666246308,93.69178568398799L212.89132873767792,93.55386726268742L213.4503508128928,93.1992790888708L214.00937288810763,92.93222695540098L214.56839496332248,93.15189693486917L215.12741703853732,92.92596668196101L215.68643911375216,92.76975541023224L216.245461188967,92.93553476617817L216.80448326418184,93.5638373048044L217.36350533939668,94.39525647649774L217.92252741461152,95.02832303684164L218.4815494898264,95.6634556363643" fill="none"></path></g></g></g></g><g opacity="0.2"><g><g><g><path style="fill: none;" stroke="rgb(204, 51, 17)" stroke-width="2px" d="M27.85502184156464,20.025383340999543L28.414043916779484,149.08212046996013L28.973065991994325,310.40934114214417L29.53208806720917,83.23978856355392L30.091110142424014,41.02170286248454L30.65013221763886,39.221188768819836L31.2091542928537,124.07178465855763L31.768176368068545,181.22946963399698L32.327198443283386,51.99418217283027L32.886220518498234,219.41753047937752L33.445242593713076,90.4312968284374L34.00426466892792,188.42060509666385L34.563286744142765,255.76333434760593L35.12230881935761,74.94893042102055L35.68133089457245,54.97826655078177L36.240352969787295,323.1375544210791L36.79937504500214,-99.53429407363943L37.358397120216985,161.6125512082211L37.917419195431826,9.554893180068031L38.47644127064667,64.86989355228327L39.035463345861515,309.46036213503436L39.59448542107636,67.06396617418888L40.1535074962912,254.72545297660966L40.712529571506046,148.1270011910476L41.27155164672089,-132.44999957084656L41.830573721935735,125.24301957538361L42.38959579715058,-24.08852224392957L43.507639947580266,-80.1881506695923L44.06666202279511,171.81222248833961L44.625684098009955,138.09160411119393L45.1847061732248,232.31361440349028L45.74372824843964,80.87045504076508L46.302750323654486,169.67317108769478L46.86177239886933,49.49615513191914L47.42079447408417,85.71848471305758L47.97981654929902,-35.25189821871331L48.53883862451386,231.60952259359806L49.097860699728706,86.30985867628561L49.65688277494355,332.9861556608773L56.365147677521676,-89.96466950433503L56.92416975273652,100.49147429092346L57.48319182795135,-121.35452019975992L58.60123597838104,-39.8660054648645L59.16025805359589,93.37112739032504L59.71928012881074,43.39068551259894L60.27830220402558,205.97831758477236L62.51439050488495,-2.358242876140597L63.07341258009979,155.83755978914L63.63243465531464,252.09079392331702L64.19145673052948,1.0272508061424066L64.75047880574434,152.37549911043132L65.30950088095918,192.36985248383377L65.86852295617402,108.45049460160433L66.42754503138886,247.10989315512217L66.9865671066037,130.65139290875828L67.54558918181854,-106.81635215926362L69.78167748267792,-7.111131229804247L70.34069955789278,160.58054695452174L70.89972163310762,222.61696296126715L71.45874370832244,272.0125987736399L72.0177657835373,58.613219739821204L72.57678785875214,235.86538883914503L73.69483200918182,-58.51585849364021L74.25385408439668,129.90493322342735L74.81287615961152,177.63074404859356L75.9309203100412,283.7548159783115L76.48994238525604,33.40996974610266L77.04896446047088,70.03785331503944L77.60798653568574,-16.063274715947998L78.16700861090058,179.9429949731593L78.72603068611542,8.035647394052022L79.28505276133026,-58.465009367773995L79.84407483654512,100.71638367524011L80.40309691175996,307.89454896625745L80.96211898697479,27.76874853415214L81.52114106218964,128.23010830061003L82.08016313740448,-0.9764514603368291L83.19820728783418,-132.44999957084656L83.75722936304902,4.144886095802988L84.31625143826386,23.349287904147094L84.87527351347872,42.26544781043795L85.43429558869354,-80.63768983656313L86.55233973912324,253.01249257998904L87.11136181433808,25.281872665425585L87.67038388955292,68.17930268806799L88.22940596476776,-5.070050058725943L88.78842803998262,88.34338512009234L89.34745011519746,317.70578226622763L90.46549426562714,-113.06265055709474L91.02451634084198,22.808538288978237L91.58353841605683,-16.910687048578215L92.70158256648652,-74.84441466171228L93.26060464170136,98.96967371324669L93.8196267169162,61.08084147053783L94.37864879213105,45.256308416914614L94.93767086734589,241.18444314733233L95.49669294256073,-21.085041185944124L96.05571501777558,113.66286168721943L96.61473709299042,184.8877777854289L97.17375916820527,-132.44999957084656L97.73278124342012,23.481851986459308L98.29180331863496,180.4027039653034L98.8508253938498,71.00025320194662L99.40984746906464,-41.586389011503734L102.20495784513886,-27.323776632925405L102.7639799203537,21.550725539733957L103.32300199556856,88.8287078174706L103.88202407078339,237.25265167571587L104.44104614599823,168.8195417298643L105.00006822121308,-26.963243995166298L107.23615652207246,-9.610441148931304L107.7951785972873,52.5636485234479L108.35420067250215,75.70299965747841L108.91322274771699,-15.775394651340303L109.47224482293183,316.46799118896865L110.03126689814667,46.22506787104601L110.59028897336152,161.6594804284276L111.14931104857637,-132.44999957084656L111.7083331237912,159.3796194376212L112.26735519900606,326.19571679242193L112.8263772742209,129.80230296615338L113.38539934943574,162.3384629125551L113.94442142465059,272.99021776280097L114.50344349986544,59.46448070709922L115.06246557508028,-7.282532531268629L115.62148765029511,-58.63796218434565L116.18050972550995,26.54286519828199L116.73953180072479,121.49609414411321L117.29855387593963,222.91474421415674L118.97562010158417,334.5500828890291L119.53464217679903,42.79873041650386L120.09366425201387,-18.850344087200924L120.65268632722871,-42.012030459913845L121.21170840244355,131.60927530998202L121.7707304776584,-102.27738923049097L122.32975255287325,-30.75111188163551L122.88877462808809,46.4223569970215L123.44779670330294,-114.59744987088246L124.00681877851778,151.62638595049992L124.5658408537326,-26.704968812464518L125.68388500416229,319.9812354190614L126.24290707937713,76.66700040096272L126.80192915459199,51.648923461180395L127.36095122980683,21.706184064053442L127.91997330502167,-45.713550774157355L128.4789953802365,103.93191244106971L129.03801745545135,-21.804702970764627L130.15606160588106,300.39161927326546L130.7150836810959,40.59495397219577L131.27410575631075,12.59143302284846L131.8331278315256,165.33335855478782L132.39214990674043,262.15518185789637L134.6282382075998,-10.238656742975639L135.18726028281463,77.55332670614267L135.74628235802948,-30.53604886174537L136.30530443324432,32.997628565008114L136.8643265084592,49.27836188403101L137.42334858367403,226.09937425509338L137.98237065888887,197.54557530451194L138.5413927341037,22.60331066874352L139.10041480931855,-132.44999957084656L139.6594368845334,-9.471451710768378L140.21845895974823,31.734662373357978L140.7774810349631,12.105430509663458L141.33650311017794,219.7396315945143L142.45454726060763,-17.89984097691153L143.01356933582244,98.1433685649383L143.57259141103728,-66.16363829493535L144.13161348625215,2.524621873861239L144.690635561467,-84.51274410024537L145.24965763668183,51.23275557498021L145.80867971189667,246.29871939089904L146.3677017871115,-47.677960783484764L146.92672386232636,45.1800922931634L147.4857459375412,270.6043274356869L150.28085631361543,-47.29931434390762L150.83987838883027,71.32226659891478L151.3989004640451,77.12429714347002L151.95792253925998,88.50594881606925L152.5169446144748,222.23161704656238L154.19401084011932,325.5703739683996L154.75303291533416,30.498472152676133L155.31205499054903,320.9572754811875L155.87107706576387,-51.68489931367251L156.4300991409787,84.29854685867943L156.98912121619355,217.6775748163671L159.22520951705295,212.6991959455198L159.7842315922678,49.220248597326716L160.34325366748263,272.40627791436265L161.46129781791228,-53.92794060320474L162.02031989312715,56.59502204597912L162.579341968342,29.43088721683422L163.13836404355683,255.04492254668813L163.69738611877168,119.63666633545566L164.25640819398652,200.6134963221127L164.81543026920136,33.12597121045597L165.3744523444162,56.43699776522779L165.93347441963107,-24.572825217597742L166.4924964948459,123.94536084804814L167.05151857006075,-132.44999957084656L167.6105406452756,9.396726357292692L168.16956272049043,24.191294604636713L168.72858479570527,240.58116144271546L170.96467309656464,214.55110192121901L171.52369517177948,57.015345580417204L172.08271724699432,-43.47453903799561L172.64173932220916,48.0212947392199L173.20076139742403,-9.134679731931541L173.75978347263887,28.37821436965604L174.3188055478537,119.40581404521568L174.87782762306855,126.98894007385954L175.4368496982834,230.33541619453445L175.99587177349824,85.52568017845228L176.55489384871308,-15.979207816106179L177.11391592392795,-44.558697225319335L177.6729379991428,112.34930404182334L178.23196007435763,-2.6408159915473988L178.79098214957247,325.2791057895293L179.3500042247873,80.8578236244852L179.90902630000213,-45.85541298234224L181.58609252564668,321.2208247187769L182.14511460086152,158.77734649194332L182.70413667607636,-3.1057332499526957L185.4992470521506,321.5508204690886L186.05826912736543,123.21903248241325L186.61729120258028,1.7185467281885813L187.17631327779512,202.05292953946443L187.73533535300996,78.20928317100999L188.29435742822483,330.67228195019226L188.85337950343967,168.66042097200534L189.41240157865448,149.27189872774835L189.97142365386932,102.78302372769718L190.53044572908416,-2.071601830664509L191.089467804299,53.32929655816232L191.64848987951387,148.7861593690692L192.20751195472872,121.37370536935978L192.76653402994356,4.467392907469598L193.3255561051584,-99.69854908555489L193.88457818037324,166.763362069014L194.44360025558808,195.9552449076084L195.5616444060178,317.9054726770689L196.12066648123263,37.60453195656217L196.67968855644747,175.27134460839983L197.23871063166231,259.96977140514105L197.79773270687716,-88.70890716728199L198.35675478209197,104.39488893499453L198.91577685730684,173.73548719420327L199.47479893252168,193.34852409101813L201.71088723338104,327.97464125183745L202.26990930859589,26.464752169134574L202.82893138381075,304.982788218325L205.06501968467012,284.1806438278299L205.62404175988496,0.449988503289541L206.1830638350998,165.2064303648088L206.74208591031467,-9.837686029487163L207.3011079855295,-64.54307254178902L207.86013006074432,61.656623529295395L208.41915213595917,200.4188935650509L209.53719628638888,222.01350582031304L210.09621836160372,169.67192110379207L210.65524043681856,194.4884655511924L211.2142625120334,66.49371036005375L211.77328458724824,-95.29824116942731L212.33230666246308,120.45976977060977L212.89132873767792,54.71164717729098L213.4503508128928,-6.91841441336754L214.00937288810763,17.338882850058244L214.56839496332248,155.49023970052775L215.12741703853732,28.64948280608319L215.68643911375216,48.21650055869091L216.245461188967,140.33604889142396L216.80448326418184,273.65946353021275" fill="none"></path></g></g></g></g></g></g><g transform="translate(61, 176)" clip-path="url(#clip_1)"><clipPath id="clip_1"><rect width="218" height="23"></rect></clipPath><g><g><line x1="0" y1="0" x2="0" y2="5" style="visibility: inherit;" fill="rgb(0, 0, 0)" stroke="rgb(204, 204, 204)" stroke-width="1px"></line><line x1="27.295999766349794" y1="0" x2="27.295999766349794" y2="5" style="visibility: inherit;" fill="rgb(0, 0, 0)" stroke="rgb(204, 204, 204)" stroke-width="1px"></line><line x1="54.59199953269959" y1="0" x2="54.59199953269959" y2="5" style="visibility: inherit;" fill="rgb(0, 0, 0)" stroke="rgb(204, 204, 204)" stroke-width="1px"></line><line x1="81.88799929904938" y1="0" x2="81.88799929904938" y2="5" style="visibility: inherit;" fill="rgb(0, 0, 0)" stroke="rgb(204, 204, 204)" stroke-width="1px"></line><line x1="109.18399906539918" y1="0" x2="109.18399906539918" y2="5" style="visibility: inherit;" fill="rgb(0, 0, 0)" stroke="rgb(204, 204, 204)" stroke-width="1px"></line><line x1="136.47999883174896" y1="0" x2="136.47999883174896" y2="5" style="visibility: inherit;" fill="rgb(0, 0, 0)" stroke="rgb(204, 204, 204)" stroke-width="1px"></line><line x1="163.77599859809877" y1="0" x2="163.77599859809877" y2="5" style="visibility: inherit;" fill="rgb(0, 0, 0)" stroke="rgb(204, 204, 204)" stroke-width="1px"></line><line x1="191.07199836444858" y1="0" x2="191.07199836444858" y2="5" style="visibility: inherit;" fill="rgb(0, 0, 0)" stroke="rgb(204, 204, 204)" stroke-width="1px"></line><line x1="218.36799813079836" y1="0" x2="218.36799813079836" y2="5" style="visibility: inherit;" fill="rgb(0, 0, 0)" stroke="rgb(204, 204, 204)" stroke-width="1px"></line></g><g transform="translate(0, 8)"><text style="text-anchor: middle; visibility: hidden; font-family: Roboto, sans-serif; font-size: 12px; font-weight: 200;" x="0" y="0" dx="0em" dy="0.95em" fill="rgb(33, 33, 33)" stroke="none" stroke-width="1px">-100k</text><text style="text-anchor: middle; visibility: inherit; font-family: Roboto, sans-serif; font-size: 12px; font-weight: 200;" x="27.295999766349794" y="0" dx="0em" dy="0.95em" fill="rgb(33, 33, 33)" stroke="none" stroke-width="1px">0</text><text style="text-anchor: middle; visibility: hidden; font-family: Roboto, sans-serif; font-size: 12px; font-weight: 200;" x="54.59199953269959" y="0" dx="0em" dy="0.95em" fill="rgb(33, 33, 33)" stroke="none" stroke-width="1px">100k</text><text style="text-anchor: middle; visibility: inherit; font-family: Roboto, sans-serif; font-size: 12px; font-weight: 200;" x="81.88799929904938" y="0" dx="0em" dy="0.95em" fill="rgb(33, 33, 33)" stroke="none" stroke-width="1px">200k</text><text style="text-anchor: middle; visibility: hidden; font-family: Roboto, sans-serif; font-size: 12px; font-weight: 200;" x="109.18399906539918" y="0" dx="0em" dy="0.95em" fill="rgb(33, 33, 33)" stroke="none" stroke-width="1px">300k</text><text style="text-anchor: middle; visibility: inherit; font-family: Roboto, sans-serif; font-size: 12px; font-weight: 200;" x="136.47999883174896" y="0" dx="0em" dy="0.95em" fill="rgb(33, 33, 33)" stroke="none" stroke-width="1px">400k</text><text style="text-anchor: middle; visibility: hidden; font-family: Roboto, sans-serif; font-size: 12px; font-weight: 200;" x="163.77599859809877" y="0" dx="0em" dy="0.95em" fill="rgb(33, 33, 33)" stroke="none" stroke-width="1px">500k</text><text style="text-anchor: middle; visibility: inherit; font-family: Roboto, sans-serif; font-size: 12px; font-weight: 200;" x="191.07199836444858" y="0" dx="0em" dy="0.95em" fill="rgb(33, 33, 33)" stroke="none" stroke-width="1px">600k</text><text style="text-anchor: middle; visibility: hidden; font-family: Roboto, sans-serif; font-size: 12px; font-weight: 200;" x="218.36799813079836" y="0" dx="0em" dy="0.95em" fill="rgb(33, 33, 33)" stroke="none" stroke-width="1px">700k</text></g><line x1="0" y1="0" x2="218.36799813079836" y2="0" fill="rgb(0, 0, 0)" stroke="rgb(204, 204, 204)" stroke-width="1px"></line></g></g></g></g></svg>