<svg viewBox="0 0 330 200" xmlns="http://www.w3.org/2000/svg"><g><g><g><g><g><line x1="51.53200149536133" y1="176.5999994277954" x2="46.53200149536133" y2="176.5999994277954" style="visibility: inherit;" fill="rgb(0, 0, 0)" stroke="rgb(204, 204, 204)" stroke-width="1px"></line><line x1="51.53200149536133" y1="154.52499949932087" x2="46.53200149536133" y2="154.52499949932087" style="visibility: inherit;" fill="rgb(0, 0, 0)" stroke="rgb(204, 204, 204)" stroke-width="1px"></line><line x1="51.53200149536133" y1="132.44999957084653" x2="46.53200149536133" y2="132.44999957084653" style="visibility: inherit;" fill="rgb(0, 0, 0)" stroke="rgb(204, 204, 204)" stroke-width="1px"></line><line x1="51.53200149536133" y1="110.37499964237217" x2="46.53200149536133" y2="110.37499964237217" style="visibility: inherit;" fill="rgb(0, 0, 0)" stroke="rgb(204, 204, 204)" stroke-width="1px"></line><line x1="51.53200149536133" y1="88.2999997138976" x2="46.53200149536133" y2="88.2999997138976" style="visibility: inherit;" fill="rgb(0, 0, 0)" stroke="rgb(204, 204, 204)" stroke-width="1px"></line><line x1="51.53200149536133" y1="66.22499978542326" x2="46.53200149536133" y2="66.22499978542326" style="visibility: inherit;" fill="rgb(0, 0, 0)" stroke="rgb(204, 204, 204)" stroke-width="1px"></line><line x1="51.53200149536133" y1="44.149999856948696" x2="46.53200149536133" y2="44.149999856948696" style="visibility: inherit;" fill="rgb(0, 0, 0)" stroke="rgb(204, 204, 204)" stroke-width="1px"></line><line x1="51.53200149536133" y1="22.074999928474348" x2="46.53200149536133" y2="22.074999928474348" style="visibility: inherit;" fill="rgb(0, 0, 0)" stroke="rgb(204, 204, 204)" stroke-width="1px"></line><line x1="51.53200149536133" y1="0" x2="46.53200149536133" y2="0" style="visibility: inherit;" fill="rgb(0, 0, 0)" stroke="rgb(204, 204, 204)" stroke-width="1px"></line></g><g transform="translate(41.53200149536133, 0)"><text style="text-anchor: end; visibility: hidden; font-family: Roboto, sans-serif; font-size: 12px; font-weight: 200;" x="0" y="176.5999994277954" dx="0em" dy="0.3em" fill="rgb(33, 33, 33)" stroke="none" stroke-width="1px">3.65</text><text style="text-anchor: end; visibility: inherit; font-family: Roboto, sans-serif; font-size: 12px; font-weight: 200;" x="0" y="154.52499949932087" dx="0em" dy="0.3em" fill="rgb(33, 33, 33)" stroke="none" stroke-width="1px">3.7</text><text style="text-anchor: end; visibility: hidden; font-family: Roboto, sans-serif; font-size: 12px; font-weight: 200;" x="0" y="132.44999957084653" dx="0em" dy="0.3em" fill="rgb(33, 33, 33)" stroke="none" stroke-width="1px">3.75</text><text style="text-anchor: end; visibility: inherit; font-family: Roboto, sans-serif; font-size: 12px; font-weight: 200;" x="0" y="110.37499964237217" dx="0em" dy="0.3em" fill="rgb(33, 33, 33)" stroke="none" stroke-width="1px">3.8</text><text style="text-anchor: end; visibility: hidden; font-family: Roboto, sans-serif; font-size: 12px; font-weight: 200;" x="0" y="88.2999997138976" dx="0em" dy="0.3em" fill="rgb(33, 33, 33)" stroke="none" stroke-width="1px">3.85</text><text style="text-anchor: end; visibility: inherit; font-family: Roboto, sans-serif; font-size: 12px; font-weight: 200;" x="0" y="66.22499978542326" dx="0em" dy="0.3em" fill="rgb(33, 33, 33)" stroke="none" stroke-width="1px">3.9</text><text style="text-anchor: end; visibility: hidden; font-family: Roboto, sans-serif; font-size: 12px; font-weight: 200;" x="0" y="44.149999856948696" dx="0em" dy="0.3em" fill="rgb(33, 33, 33)" stroke="none" stroke-width="1px">3.95</text><text style="text-anchor: end; visibility: inherit; font-family: Roboto, sans-serif; font-size: 12px; font-weight: 200;" x="0" y="22.074999928474348" dx="0em" dy="0.3em" fill="rgb(33, 33, 33)" stroke="none" stroke-width="1px">4</text><text style="text-anchor: end; visibility: hidden; font-family: Roboto, sans-serif; font-size: 12px; font-weight: 200;" x="0" y="0" dx="0em" dy="0.3em" fill="rgb(33, 33, 33)" stroke="none" stroke-width="1px">4.05</text></g><line x1="51.53200149536133" y1="0" x2="51.53200149536133" y2="176.5999994277954" fill="rgb(0, 0, 0)" stroke="rgb(204, 204, 204)" stroke-width="1px"></line></g></g><g transform="translate(51, 0)" clip-path="url(#clip_0)"><clipPath id="clip_0"><rect width="176" height="176"></rect></clipPath><g><g><g><line x1="0" y1="0" x2="0" y2="176.5999994277954" fill="rgb(0, 0, 0)" stroke="rgb(66, 66, 66)" stroke-width="1px" opacity="0.25"></line><line x1="22.058499813079834" y1="0" x2="22.058499813079834" y2="176.5999994277954" fill="rgb(0, 0, 0)" stroke="rgb(66, 66, 66)" stroke-width="1px" opacity="0.25"></line><line x1="44.11699962615967" y1="0" x2="44.11699962615967" y2="176.5999994277954" fill="rgb(0, 0, 0)" stroke="rgb(66, 66, 66)" stroke-width="1px" opacity="0.25"></line><line x1="66.1754994392395" y1="0" x2="66.1754994392395" y2="176.5999994277954" fill="rgb(0, 0, 0)" stroke="rgb(66, 66, 66)" stroke-width="1px" opacity="0.25"></line><line x1="88.23399925231934" y1="0" x2="88.23399925231934" y2="176.5999994277954" fill="rgb(0, 0, 0)" stroke="rgb(66, 66, 66)" stroke-width="1px" opacity="0.25"></line><line x1="110.29249906539917" y1="0" x2="110.29249906539917" y2="176.5999994277954" fill="rgb(0, 0, 0)" stroke="rgb(66, 66, 66)" stroke-width="1px" opacity="0.25"></line><line x1="132.350998878479" y1="0" x2="132.350998878479" y2="176.5999994277954" fill="rgb(0, 0, 0)" stroke="rgb(66, 66, 66)" stroke-width="1px" opacity="0.25"></line><line x1="154.40949869155884" y1="0" x2="154.40949869155884" y2="176.5999994277954" fill="rgb(0, 0, 0)" stroke="rgb(66, 66, 66)" stroke-width="1px" opacity="0.25"></line><line x1="176.46799850463867" y1="0" x2="176.46799850463867" y2="176.5999994277954" fill="rgb(0, 0, 0)" stroke="rgb(66, 66, 66)" stroke-width="1px" opacity="0.25"></line></g><g><line x1="0" y1="176.5999994277954" x2="176.46799850463867" y2="176.5999994277954" fill="rgb(0, 0, 0)" stroke="rgb(66, 66, 66)" stroke-width="1px" opacity="0.25"></line><line x1="0" y1="154.52499949932087" x2="176.46799850463867" y2="154.52499949932087" fill="rgb(0, 0, 0)" stroke="rgb(66, 66, 66)" stroke-width="1px" opacity="0.25"></line><line x1="0" y1="132.44999957084653" x2="176.46799850463867" y2="132.44999957084653" fill="rgb(0, 0, 0)" stroke="rgb(66, 66, 66)" stroke-width="1px" opacity="0.25"></line><line x1="0" y1="110.37499964237217" x2="176.46799850463867" y2="110.37499964237217" fill="rgb(0, 0, 0)" stroke="rgb(66, 66, 66)" stroke-width="1px" opacity="0.25"></line><line x1="0" y1="88.2999997138976" x2="176.46799850463867" y2="88.2999997138976" fill="rgb(0, 0, 0)" stroke="rgb(66, 66, 66)" stroke-width="1px" opacity="0.25"></line><line x1="0" y1="66.22499978542326" x2="176.46799850463867" y2="66.22499978542326" fill="rgb(0, 0, 0)" stroke="rgb(66, 66, 66)" stroke-width="1px" opacity="0.25"></line><line x1="0" y1="44.149999856948696" x2="176.46799850463867" y2="44.149999856948696" fill="rgb(0, 0, 0)" stroke="rgb(66, 66, 66)" stroke-width="1px" opacity="0.25"></line><line x1="0" y1="22.074999928474348" x2="176.46799850463867" y2="22.074999928474348" fill="rgb(0, 0, 0)" stroke="rgb(66, 66, 66)" stroke-width="1px" opacity="0.25"></line><line x1="0" y1="0" x2="176.46799850463867" y2="0" fill="rgb(0, 0, 0)" stroke="rgb(66, 66, 66)" stroke-width="1px" opacity="0.25"></line></g></g></g><g><g><line x1="0" y1="1788.0749942064288" x2="176.46799850463867" y2="1788.0749942064288" fill="rgb(0, 0, 0)" stroke="rgb(153, 153, 153)" stroke-width="1.5px"></line></g></g><g><g><line x1="22.058499813079834" y1="0" x2="22.058499813079834" y2="176.5999994277954" fill="rgb(0, 0, 0)" stroke="rgb(153, 153, 153)" stroke-width="1.5px"></line></g></g><g><g><g><g><g><path style="fill: none;" stroke="rgb(204, 51, 17)" stroke-width="2px" d="M22.51025788925171,22.92372584067932L22.962015965423586,26.751116587288482L23.413774041595456,108.51202011455455L23.865532117767334,86.95081219804217L24.31729019393921,79.58863605637784L24.769048270111085,76.44462373621637L25.22080634628296,70.76546079810007L25.672564422454833,71.18195850559964L26.12432249862671,68.50147001561344L26.576080574798585,94.5641145751158L27.02783865097046,87.95110447926444L27.479596727142333,97.43315338179805L27.93135480331421,99.55838414386086L28.383112879486085,95.29091135170857L28.83487095565796,90.80279562784756L29.286629031829833,86.99073910685713L29.73838710800171,83.19392378864363L30.190145184173584,80.97260250842348L30.641903260345458,79.71517483213826L31.093661336517332,77.36323323279196L31.54541941268921,80.4351026379919L31.997177488861084,84.43630650797051L32.448935565032954,85.6356482022324L32.90069364120483,83.40838170892177L33.35245171737671,152.41683362636235L33.80420979354859,148.11422025554862L34.25596786972046,146.91632789116528L34.707725945892335,146.6468415423749L35.159484022064206,142.66071521484446L35.61124209823608,139.5140388910815L36.06300017440796,135.69596621704667L36.51475825057983,134.71931955017973L36.96651632675171,131.32221126035293L37.418274402923586,128.50835341155644L37.870032479095464,125.46441302764806L38.321790555267334,122.78326457437352L38.77354863143921,120.54988177785332L39.22530670761108,117.97005894597729L39.67706478378296,115.86697762692741L40.12882285995483,115.42374802861575L40.58058093612671,116.74402137146389L41.032339012298586,114.48244440954123L41.48409708847046,116.84249474018392L41.935855164642334,120.65461651470073L42.38761324081421,120.98419434023945L42.83937131698608,118.78766259284336L43.29112939315796,116.85148608586225L43.74288746932983,115.54991839219166L44.19464554550171,114.51255641702352L44.646403621673585,148.81082435143304L45.09816169784546,146.34838307392974L45.54991977401734,144.02870320304947L46.00167785018921,142.2202307109367L46.45343592636108,140.75653752900143L46.90519400253296,138.5410592296888L47.35695207870483,136.71603777999607L47.80871015487671,134.8550836307097L48.260468231048584,132.855120022013L48.71222630722046,131.3432074297504L49.16398438339234,129.7122828960977L49.61574245956421,128.27306154539443L50.06750053573609,126.55971735140233L50.51925861190796,126.38126133978243L50.97101668807983,124.92419235304067L51.422774764251706,123.45389955864106L51.87453284042358,121.86738638640912L52.32629091659546,120.33942984071795L52.77804899276734,119.38574827728581L53.22980706893921,118.05161602198999L53.68156514511109,117.34501673875351L54.13332322128296,116.52827674695814L54.58508129745483,115.22402219223792L55.036839373626705,114.03970066091803L55.48859744979858,113.50414698229329L55.94035552597046,136.66834835680118L56.39211360214234,135.18306516244328L56.843871678314216,134.24848855710565L57.295629754486086,138.36034642781505L57.747387830657956,142.23181883897092L58.199145906829834,141.64988863872674L58.650903983001704,140.1286786257421L59.10266205917358,138.92200834046284L59.55442013534546,137.5166266104924L60.00617821151734,137.64409588478784L60.457936287689215,137.43429144656255L60.909694363861085,138.07929762260449L61.361452440032956,137.8096894743994L61.81321051620483,136.82071319465933L62.264968592376704,135.57667624205018L62.71672666854858,134.38368245320174L63.16848474472046,134.62829555609446L63.62024282089234,133.8349958164489L64.07200089706421,132.60341195706198L64.52375897323608,131.88461890499983L64.97551704940797,130.88822129128903L65.42727512557983,130.181724168354L65.87903320175171,130.47321061855604L66.33079127792358,129.35217281896666L66.78254935409547,128.35277975497905L67.23430743026734,145.7853986423501L67.6860655064392,145.45858795087761L68.13782358261109,144.4252676843414L68.58958165878296,143.29860016079886L69.04133973495483,142.07804522689688L69.4930978111267,141.05124912611333L69.94485588729859,140.0492514731297L70.39661396347046,138.90312507757596L70.84837203964233,138.35958404396493L71.30013011581421,137.28528482829415L71.75188819198608,136.66258643530205L72.20364626815797,136.56972526562794L72.65540434432982,135.9050277540581L73.10716242050171,134.9221447099466L73.55892049667358,133.9014809830286L74.01067857284546,132.87970411182064L74.46243664901733,131.8694105461134L74.9141947251892,131.04023406288445L75.36595280136109,130.06514238242997L75.81771087753296,129.17003578106602L76.26946895370483,128.2605240836773L76.7212270298767,127.35817765342811L77.17298510604859,126.66508429220495L77.62474318222046,125.97646841505993L78.07650125839234,125.22793550256051L78.52825933456421,139.37280847830323L78.98001741073608,139.86110280051108L79.43177548690797,139.01885658690654L79.88353356307984,138.08574254904704L80.33529163925171,137.48163788157046L80.78704971542358,137.04980618697277L81.23880779159546,136.6901348321391L81.69056586776733,135.76773775419906L82.1423239439392,135.17713770747318L82.59408202011109,134.46956500466777L83.04584009628296,133.58813684175777L83.49759817245484,132.8051447853617L83.9493562486267,132.04569659391922L84.40111432479858,131.23507796019902L84.85287240097045,130.40163978976358L85.30463047714234,129.63611266127643L85.75638855331421,128.89802396102465L86.20814662948608,128.32819095780562L86.65990470565796,128.68028901475918L87.11166278182984,127.88951494838155L87.5634208580017,127.12344187063935L88.01517893417358,126.39203779758654L88.46693701034546,125.83143638348672L88.91869508651733,125.53674222445628L89.37045316268922,124.89822119970178L89.82221123886109,136.8329022003445L90.27396931503296,136.7931530364572L90.72572739120484,135.98240492198735L91.17748546737671,135.2104141921867L91.6292435435486,134.41878191934993L92.08100161972047,133.85150982846994L92.53275969589234,133.5275444692833L92.98451777206422,133.03187962137363L93.43627584823608,132.47330525430107L93.88803392440795,131.722994276308L94.33979200057983,131.1544236632034L94.7915500767517,130.54186037051085L95.24330815292357,130.23946221225953L95.69506622909546,130.0060494501778L96.14682430526733,129.34837982050126L96.59858238143921,129.3277051509584L97.05034045761109,128.77365112906324L97.50209853378296,128.23606639362237L97.95385660995484,127.7940438409775L98.40561468612671,127.13565129655129L98.8573727622986,126.55388083312282L99.30913083847047,125.98866793627384L99.76088891464234,125.79452818872437L100.21264699081422,125.16899678362256L100.66440506698608,125.4712810208346L101.11616314315795,135.82267048589588L101.56792121932983,136.23545989500937L102.0196792955017,135.56963280072455L102.47143737167357,135.08815330046096L102.92319544784546,134.4796129189899L103.37495352401733,134.46421720361906L103.82671160018921,133.8015368209752L104.27846967636108,134.26232214683688L104.73022775253295,133.85510494815227L105.18198582870484,133.21646246821234L105.63374390487671,132.99004723406992L106.0855019810486,132.39312868214392L106.53726005722046,131.7898344038576L106.98901813339234,132.013342173777L107.44077620956422,131.99634448164133L107.89253428573609,132.13463099940708L108.34429236190795,131.62275506097262L108.79605043807983,131.01072844118528L109.2478085142517,130.77879463779107L109.69956659042357,130.19143057938095L110.15132466659546,129.6114339131021L110.60308274276733,129.27030306134847L111.05484081893921,128.6731741574168L111.50659889511108,128.08002221398925L111.95835697128295,127.99526975234504L112.41011504745484,137.14922072868245L112.86187312362671,136.6508909875654L113.31363119979859,136.21270831021153L113.76538927597046,135.9128250453762L114.21714735214233,135.42699563990203L114.66890542831422,134.8662285567687L115.12066350448609,134.28746889077843L115.57242158065795,133.77470558517572L116.02417965682983,133.18021054921388L116.4759377330017,132.61663499012766L116.92769580917358,132.61540015192327L117.37945388534546,132.17993871590338L117.83121196151733,131.6089235139647L118.28297003768921,131.26475766142508L118.73472811386108,130.9802906633829L119.18648619003297,130.63746086423987L119.63824426620484,130.18570057351545L120.0900023423767,129.6321718962616L120.54176041854859,129.08332124930308L120.99351849472046,128.91629054810235L121.44527657089235,128.5064844331957L121.89703464706422,127.97196749886108L122.34879272323609,127.74152713475203L122.80055079940797,127.60267014271018L123.25230887557983,127.61508780490837L123.7040669517517,135.85257196184324L124.15582502792358,135.55858324251992L124.60758310409545,135.04012118169157L125.05934118026732,134.4949018292846L125.51109925643921,134.2030601158106L125.96285733261108,134.1339313789845L126.41461540878296,133.6084282223668L126.86637348495483,133.07660339284388L127.3181315611267,132.54278469113612L127.76988963729859,132.01358389309576L128.22164771347047,131.50744910306716L128.67340578964235,131.1182416358292L129.12516386581422,131.97112427577684L129.5769219419861,131.48288306836326L130.02868001815796,130.9691315137219L130.48043809432983,130.54232175816833L130.9321961705017,130.03776725440076L131.38395424667357,129.75496352205457L131.83571232284547,129.3038285662087L132.28747039901734,128.98547247381327L132.7392284751892,129.0121397378712L133.19098655136108,128.7748797835238L133.64274462753295,128.2901908697068L134.09450270370485,128.08539435264308L134.54626077987672,128.35610536472763L134.9980188560486,135.85607913169798L135.44977693222046,135.49802924350956L135.90153500839233,135.44757296802322L136.35329308456423,134.9535892878805L136.8050511607361,134.5277353957519L137.25680923690797,134.04695477843228L137.70856731307984,134.07410989050277L138.1603253892517,133.72445194722894L138.61208346542358,133.52428568282448L139.06384154159545,133.04007230649074L139.51559961776732,132.94704536670082L139.9673576939392,132.5302282637364L140.4191157701111,132.1182278462332L140.87087384628296,131.6783788983872L141.32263192245483,131.20621083110584L141.7743899986267,130.77050950631832L142.22614807479857,130.32062527883247L142.67790615097047,130.15679982137004L143.12966422714234,130.06084326880944L143.5814223033142,129.6061072314803L144.03318037948608,129.22567395890619L144.48493845565795,128.82079677974554L144.93669653182985,128.6575360381614L145.3884546080017,128.3725655131878L145.84021268417357,128.1807864046244L146.29197076034546,135.08170429692674L146.74372883651733,134.64327974232245L147.1954869126892,134.1887222596718L147.64724498886108,134.0547665348234L148.09900306503295,133.61651563196247L148.55076114120484,133.16430439401998L149.00251921737672,132.7586876402774L149.45427729354859,132.3248686897254L149.90603536972046,132.37097835231177L150.35779344589233,131.9300116716035L150.80955152206423,131.63446920593148L151.2613095982361,131.33759209005052L151.71306767440797,131.03699275625846L152.16482575057984,130.62389253224958L152.6165838267517,130.24430495156614L153.06834190292358,129.9417327459525L153.52009997909545,129.74914044717545L153.97185805526732,129.82975836727528L154.4236161314392,129.5821588889478L154.8753742076111,129.1850000094447L155.32713228378296,128.76743302762597L155.77889035995483,128.35148898379694L156.2306484361267,127.93806859479857L156.6824065122986,127.53086628661138L157.13416458847047,127.4616248928658L157.58592266464234,133.86601519747802L158.0376807408142,133.62767653665514L158.48943881698608,133.38860109489858L158.94119689315798,133.18212349276044L159.39295496932985,133.58161003122797L159.84471304550172,133.50531350086686L160.29647112167356,133.08319096549383L160.74822919784546,133.09691460051243L161.19998727401733,132.69903427055053L161.6517453501892,132.53453936167696L162.10350342636107,132.24582276945287L162.55526150253294,131.8961757077154L163.00701957870484,131.52647998015206L163.4587776548767,131.15602731143917L163.91053573104858,130.78593129843367L164.36229380722045,130.38488711288522L164.81405188339232,130.1787468718167L165.26580995956422,130.10427797757663L165.7175680357361,130.08871373944294L166.16932611190796,129.75450017842095L166.62108418807983,129.3653585786836L167.0728422642517,129.0915674975942L167.5246003404236,128.771357945058L167.97635841659545,128.5872748326145L168.42811649276732,128.49597636718798L168.87987456893921,134.47449960484155L169.33163264511109,134.2542014555808L169.78339072128296,134.16240663926L170.23514879745483,133.77489157932118L170.6869068736267,133.38166185244833L171.1386649497986,133.51146339692338L171.59042302597047,133.11619604882063L172.04218110214234,132.8681410271764L172.4939391783142,132.6360375011666L172.94569725448608,132.28356508691527L173.39745533065798,132.03862915345886L173.84921340682985,131.6937020098927L174.30097148300172,131.33774605422286L174.7527295591736,131.17580412352552L175.20448763534546,131.6125709649624L175.65624571151733,131.62689933667542L176.1080037876892,131.2855196202469L176.5597618638611,130.91281957480382" fill="none"></path></g></g></g></g><g opacity="0.2"><g><g><g><path style="fill: none;" stroke="rgb(204, 51, 17)" stroke-width="2px" d="M22.51025788925171,22.923725840679516L22.962015965423586,30.57467994320124L23.413774041595456,271.788626219364L23.865532117767334,22.39646947279713L24.31729019393921,50.21347966613695L24.769048270111085,60.771659487273894L25.22080634628296,36.80954701894681L25.672564422454833,74.08580381707458L26.12432249862671,47.153834857744584L26.576080574798585,327.95821865631024L27.02783865097046,22.18363010848126L27.479596727142333,201.11195744678534L27.93135480331421,124.89599158827282L28.383112879486085,40.20055598108119L28.83487095565796,28.43839166486763L29.286629031829833,30.26521024434434L29.73838710800171,22.958672759053833L30.190145184173584,43.54819708065467L30.641903260345458,57.29528320344804L31.093661336517332,33.12054189440975L31.54541941268921,141.23146543041693L31.997177488861084,167.5434423740098L32.448935565032954,111.71984548132976L32.90069364120483,32.79149350031904L33.35245171737671,1788.0749942064288L33.80420979354859,41.93611257793581L34.25596786972046,116.18810372853268L34.707725945892335,139.4716986190259L35.159484022064206,32.653074230252095L35.61124209823608,49.61653998511059L36.06300017440796,22.912147042422966L36.51475825057983,104.9228803811298L36.96651632675171,24.390022747168167L37.418274402923586,37.2129102454841L37.870032479095464,23.761820310849124L38.321790555267334,30.613205762854854L38.77354863143921,41.61832719669466L39.22530670761108,24.308655373965316L39.67706478378296,37.489222476606336L40.12882285995483,98.47917388955699L40.58058093612671,168.48627233750003L41.032339012298586,23.679295057820617L41.48409708847046,213.86231956329434L41.935855164642334,281.01955997489324L42.38761324081421,135.1639646203797L42.83937131698608,22.18415641749292L43.29112939315796,29.849320863329503L43.74288746932983,55.82214427980779L44.19464554550171,65.92022476295034L44.646403621673585,1788.0749942064288L45.09816169784546,26.315261111825556L45.54991977401734,28.750282385178174L46.00167785018921,50.629895356163445L46.45343592636108,65.23949668726749L46.90519400253296,22.13784122446672L47.35695207870483,39.100464884906536L47.80871015487671,33.5580099449027L48.260468231048584,22.10226273527841L48.71222630722046,46.19068936640423L49.16398438339234,36.319448067287716L49.61574245956421,44.50250058059913L50.06750053573609,25.22180150919784L50.51925861190796,115.65853160099898L50.97101668807983,36.00650472895385L51.422774764251706,32.350130763139795L51.87453284042358,22.075631499288342L52.32629091659546,22.80056953195075L52.77804899276734,57.61454224992184L53.22980706893921,30.391734930747738L53.68156514511109,70.25806363706357L54.13332322128296,61.340178481670534L54.58508129745483,25.879161464762923L55.036839373626705,31.808558790140218L55.48859744979858,75.82114989032453L55.94035552597046,1788.0749942064288L56.39211360214234,27.917345743322848L56.843871678314216,65.888119913239L57.295629754486086,442.932527489789L57.747387830657956,432.5790818741883L58.199145906829834,97.46939741978343L58.650903983001704,23.23330080133875L59.10266205917358,45.08428256208964L59.55442013534546,26.931253179074055L60.00617821151734,147.79159147536924L60.457936287689215,120.53941611334444L60.909694363861085,190.61198740233814L61.361452440032956,115.60400598739086L61.81321051620483,54.45931972501177L62.264968592376704,30.8347818567643L62.71672666854858,32.848019088171476L63.16848474472046,155.67085842714968L63.62024282089234,64.86802778683688L64.07200089706421,24.410127751413633L64.52375897323608,68.08451268070434L64.97551704940797,41.54095977198043L65.42727512557983,66.187484479072L65.87903320175171,157.14073423491763L66.33079127792358,25.77326809161665L66.78254935409547,35.10725315162919L67.23430743026734,1788.0749942064288L67.6860655064392,114.3747586597545L68.13782358261109,45.20943884506272L68.58958165878296,34.10252924836758L69.04133973495483,22.68141317171061L69.4930978111267,39.6830889608157L69.94485588729859,40.227187217071254L70.39661396347046,23.691715950495826L70.84837203964233,83.23315970155198L71.30013011581421,27.36461601927605L71.75188819198608,72.39066775231555L72.20364626815797,126.90186049351674L72.65540434432982,66.1079065565088L73.10716242050171,30.834992380368966L73.55892049667358,24.90180563010771L74.01067857284546,22.84951627003526L74.46243664901733,22.17531442609701L74.9141947251892,40.27287083928346L75.36595280136109,22.45752131814985L75.81771087753296,29.59385046906906L76.26946895370483,26.274419532520632L76.7212270298767,25.375273216998302L77.17298510604859,47.71782759464094L77.62474318222046,46.92973248057916L78.07650125839234,38.641418164935466L78.52825933456421,1788.0749942064288L78.98001741073608,197.20674458025778L79.43177548690797,39.36235624910925L79.88353356307984,26.85578046680181L80.33529163925171,64.93907950341116L80.78704971542358,84.81471828159448L81.23880779159546,92.86787773082784L81.69056586776733,22.574046133331684L82.1423239439392,62.183009732945095L82.59408202011109,46.39900247321981L83.04584009628296,23.10719716214468L83.49759817245484,33.978425583417824L83.9493562486267,35.52777405194664L84.40111432479858,27.507140499633955L84.85287240097045,23.02772450138381L85.30463047714234,30.34520921411687L85.75638855331421,32.52433904599972L86.20814662948608,53.42912246558575L86.65990470565796,175.26565871671048L87.11166278182984,22.57846712902964L87.5634208580017,24.43865369984568L88.01517893417358,27.72166405278714L88.46693701034546,49.71885445697757L88.91869508651733,85.27187028912357L89.37045316268922,37.10470111268652L89.82221123886109,1788.0749942064288L90.27396931503296,131.25938332466612L90.72572739120484,22.415206073612275L91.17748546737671,26.40915463950595L91.6292435435486,22.170051335980396L92.08100161972047,52.92944468991442L92.53275969589234,87.03605809621257L92.98451777206422,61.47617673028384L93.43627584823608,51.35841229010515L93.88803392440795,22.123946666558858L94.33979200057983,47.617513097018275L94.7915500767517,40.019400419267335L95.24330815292357,85.29471210022967L95.69506622909546,95.11595404323833L96.14682430526733,30.482470604358163L96.59858238143921,126.20218529341408L97.05034045761109,44.54407899252038L97.50209853378296,46.05490164139559L97.95385660995484,59.84756612459881L98.40561468612671,25.37285219554466L98.8573727622986,36.14271350117182L99.30913083847047,37.673851677897154L99.76088891464234,95.29647803423819L100.21264699081422,26.375576124561952L100.66440506698608,173.46683977665415L101.11616314315795,1788.0749942064288L101.56792121932983,202.46993995867408L102.0196792955017,28.175447682641597L102.47143737167357,57.02486563325641L102.92319544784546,35.30640848164186L103.37495352401733,131.94232189819795L103.82671160018921,24.69770299538542L104.27846967636108,210.5105732534299L104.73022775253295,66.13159046203356L105.18198582870484,26.473259077126308L105.63374390487671,94.95848238694924L106.0855019810486,31.631087391407995L106.53726005722046,29.45069441789716L106.98901813339234,170.11319875434774L107.44077620956422,129.08477975028356L107.89253428573609,155.93643395443402L108.34429236190795,43.0956765924282L108.79605043807983,24.657387725092157L109.2478085142517,90.28370048357039L109.69956659042357,27.154829247227816L110.15132466659546,27.3895630664288L110.60308274276733,68.86681839563784L111.05484081893921,22.449731944777263L111.50659889511108,22.07699990271866L111.95835697128295,112.77951604540881L112.41011504745484,1788.0749942064288L112.86187312362671,46.36858181234578L113.31363119979859,56.46887279333731L113.76538927597046,81.09276621292742L114.21714735214233,46.21858374402228L114.66890542831422,31.440458267384237L115.12066350448609,27.071777685187648L115.57242158065795,38.36763221706921L116.02417965682983,22.08247351643994L116.4759377330017,26.839359625637975L116.92769580917358,132.38263201735387L117.37945388534546,49.742117315293L117.83121196151733,23.046882149408283L118.28297003768921,65.55317685821768L118.73472811386108,76.43714195757303L119.18648619003297,64.62718878310062L119.63824426620484,42.83704834409779L120.0900023423767,22.16047251196816L120.54176041854859,22.078157782544316L120.99351849472046,96.21730828104097L121.44527657089235,47.95108774860927L121.89703464706422,22.473310588499693L122.34879272323609,82.07433251967592L122.80055079940797,99.97368095907069L123.25230887557983,130.0958193616851L123.7040669517517,1788.0749942064288L124.15582502792358,76.3574587732075L124.60758310409545,30.22278973800443L125.05934118026732,23.83360886003974L125.51109925643921,74.73663754089506L125.96285733261108,119.99310735923991L126.41461540878296,25.6951638342861L126.86637348495483,23.443087573386983L127.3181315611267,22.074999928474348L127.76988963729859,22.082262992835275L128.22164771347047,25.96716033151271L128.67340578964235,49.652223736101234L129.12516386581422,311.16369809419507L129.5769219419861,28.517127493012175L130.02868001815796,22.218577026855577L130.48043809432983,39.8595077415246L130.9321961705017,22.43994259716036L131.38395424667357,69.22397169095126L131.83571232284547,32.3892881536074L132.28747039901734,60.34534918782816L132.7392284751892,134.78270637233217L133.19098655136108,77.24818414454325L133.64274462753295,22.649413583801596L134.09450270370485,83.28884319498576L134.54626077987672,187.78181332303015L134.9980188560486,1788.0749942064288L135.44977693222046,56.342032321526915L135.90153500839233,124.25368407044125L136.35329308456423,24.977804651391615L136.8050511607361,39.389092746901646L137.25680923690797,26.264419661299065L137.70856731307984,140.18284735558277L138.1603253892517,54.79573644526573L138.61208346542358,88.18572750128573L139.06384154159545,22.98951446713719L139.51559961776732,111.7323716358073L139.9673576939392,37.154279421585024L140.4191157701111,37.52711672544596L140.87087384628296,30.355103823536105L141.32263192245483,22.074999928474348L141.7743899986267,29.733217095357L142.22614807479857,25.649269688469225L142.67790615097047,91.91515315791838L143.12966422714234,107.58831973978778L143.5814223033142,22.761517403285474L144.03318037948608,39.54856437743505L144.48493845565795,33.07264777434856L144.93669653182985,89.92402090500099L145.3884546080017,60.546399230282816L145.84021268417357,82.3892758322541L146.29197076034546,1788.0749942064288L146.74372883651733,29.293433285212735L147.1954869126892,24.61738824020589L147.64724498886108,101.66313288650377L148.09900306503295,27.311879856307577L148.55076114120484,23.13130211487877L149.00251921737672,33.75663896590371L149.45427729354859,26.11179004791726L149.90603536972046,143.69490739039927L150.35779344589233,23.30214202006406L150.80955152206423,58.60800314033389L151.2613095982361,57.75811934830307L151.71306767440797,56.309190639199244L152.16482575057984,27.618823271908504L152.6165838267517,35.31093473914215L153.06834190292358,54.0430092967876L153.52009997909545,81.2942373025914L153.97185805526732,150.1729292295324L154.4236161314392,66.91789612545568L154.8753742076111,28.372918823816953L155.32713228378296,22.46394228809212L155.77889035995483,22.151525258769915L156.2306484361267,22.074999928474348L156.6824065122986,22.957514879228178L157.13416458847047,109.62839873078968L157.58592266464234,1788.0749942064288L158.0376807408142,71.8899373586209L158.48943881698608,71.28310306817531L158.94119689315798,79.39205127264478L159.39295496932985,237.9480093875595L159.84471304550172,113.5164539235371L160.29647112167356,22.180577516213624L160.74822919784546,136.71257625629218L161.19998727401733,27.57987640504556L161.6517453501892,88.95445444371836L162.10350342636107,55.54341102723191L162.55526150253294,38.75015360674471L163.00701957870484,32.76865168921294L163.4587776548767,31.924873081717386L163.91053573104858,31.379722207438512L164.36229380722045,22.373206614481695L164.81405188339232,74.50937730965967L165.26580995956422,109.9392368330769L165.7175680357361,125.8628212426948L166.16932611190796,38.7680481131412L166.62108418807983,23.142459865925993L167.0728422642517,54.156797305108796L167.5246003404236,40.89991539577685L167.97635841659545,77.938069997029L168.42811649276732,103.30974326038762L168.87987456893921,1788.0749942064288L169.33163264511109,73.16276307242282L169.78339072128296,108.64030619229658L170.23514879745483,25.753057825568852L170.6869068736267,23.48361336728491L171.1386649497986,169.8812017420074L171.59042302597047,22.08015775678863L172.04218110214234,63.00794647782317L172.4939391783142,67.10178849413018L172.94569725448608,32.51065501169652L173.39745533065798,62.530268418839285L173.84921340682985,33.56295724961232L174.30097148300172,29.81500551576918L174.7527295591736,84.8725070110749L175.20448763534546,256.8067138934107L175.65624571151733,135.7441676748352L176.1080037876892,32.94685992056149L176.5597618638611,23.286984320528212" fill="none"></path></g></g></g></g></g></g><g transform="translate(51, 176)" clip-path="url(#clip_1)"><clipPath id="clip_1"><rect width="176" height="23"></rect></clipPath><g><g><line x1="0" y1="0" x2="0" y2="5" style="visibility: inherit;" fill="rgb(0, 0, 0)" stroke="rgb(204, 204, 204)" stroke-width="1px"></line><line x1="22.058499813079834" y1="0" x2="22.058499813079834" y2="5" style="visibility: inherit;" fill="rgb(0, 0, 0)" stroke="rgb(204, 204, 204)" stroke-width="1px"></line><line x1="44.11699962615967" y1="0" x2="44.11699962615967" y2="5" style="visibility: inherit;" fill="rgb(0, 0, 0)" stroke="rgb(204, 204, 204)" stroke-width="1px"></line><line x1="66.1754994392395" y1="0" x2="66.1754994392395" y2="5" style="visibility: inherit;" fill="rgb(0, 0, 0)" stroke="rgb(204, 204, 204)" stroke-width="1px"></line><line x1="88.23399925231934" y1="0" x2="88.23399925231934" y2="5" style="visibility: inherit;" fill="rgb(0, 0, 0)" stroke="rgb(204, 204, 204)" stroke-width="1px"></line><line x1="110.29249906539917" y1="0" x2="110.29249906539917" y2="5" style="visibility: inherit;" fill="rgb(0, 0, 0)" stroke="rgb(204, 204, 204)" stroke-width="1px"></line><line x1="132.350998878479" y1="0" x2="132.350998878479" y2="5" style="visibility: inherit;" fill="rgb(0, 0, 0)" stroke="rgb(204, 204, 204)" stroke-width="1px"></line><line x1="154.40949869155884" y1="0" x2="154.40949869155884" y2="5" style="visibility: inherit;" fill="rgb(0, 0, 0)" stroke="rgb(204, 204, 204)" stroke-width="1px"></line><line x1="176.46799850463867" y1="0" x2="176.46799850463867" y2="5" style="visibility: inherit;" fill="rgb(0, 0, 0)" stroke="rgb(204, 204, 204)" stroke-width="1px"></line></g><g transform="translate(0, 8)"><text style="text-anchor: middle; visibility: hidden; font-family: Roboto, sans-serif; font-size: 12px; font-weight: 200;" x="0" y="0" dx="0em" dy="0.95em" fill="rgb(33, 33, 33)" stroke="none" stroke-width="1px">-100k</text><text style="text-anchor: middle; visibility: inherit; font-family: Roboto, sans-serif; font-size: 12px; font-weight: 200;" x="22.058499813079834" y="0" dx="0em" dy="0.95em" fill="rgb(33, 33, 33)" stroke="none" stroke-width="1px">0</text><text style="text-anchor: middle; visibility: hidden; font-family: Roboto, sans-serif; font-size: 12px; font-weight: 200;" x="44.11699962615967" y="0" dx="0em" dy="0.95em" fill="rgb(33, 33, 33)" stroke="none" stroke-width="1px">100k</text><text style="text-anchor: middle; visibility: inherit; font-family: Roboto, sans-serif; font-size: 12px; font-weight: 200;" x="66.1754994392395" y="0" dx="0em" dy="0.95em" fill="rgb(33, 33, 33)" stroke="none" stroke-width="1px">200k</text><text style="text-anchor: middle; visibility: hidden; font-family: Roboto, sans-serif; font-size: 12px; font-weight: 200;" x="88.23399925231934" y="0" dx="0em" dy="0.95em" fill="rgb(33, 33, 33)" stroke="none" stroke-width="1px">300k</text><text style="text-anchor: middle; visibility: inherit; font-family: Roboto, sans-serif; font-size: 12px; font-weight: 200;" x="110.29249906539917" y="0" dx="0em" dy="0.95em" fill="rgb(33, 33, 33)" stroke="none" stroke-width="1px">400k</text><text style="text-anchor: middle; visibility: hidden; font-family: Roboto, sans-serif; font-size: 12px; font-weight: 200;" x="132.350998878479" y="0" dx="0em" dy="0.95em" fill="rgb(33, 33, 33)" stroke="none" stroke-width="1px">500k</text><text style="text-anchor: middle; visibility: inherit; font-family: Roboto, sans-serif; font-size: 12px; font-weight: 200;" x="154.40949869155884" y="0" dx="0em" dy="0.95em" fill="rgb(33, 33, 33)" stroke="none" stroke-width="1px">600k</text><text style="text-anchor: middle; visibility: hidden; font-family: Roboto, sans-serif; font-size: 12px; font-weight: 200;" x="176.46799850463867" y="0" dx="0em" dy="0.95em" fill="rgb(33, 33, 33)" stroke="none" stroke-width="1px">700k</text></g><line x1="0" y1="0" x2="176.46799850463867" y2="0" fill="rgb(0, 0, 0)" stroke="rgb(204, 204, 204)" stroke-width="1px"></line></g></g></g></g></svg>