<svg viewBox="0 0 330 200" xmlns="http://www.w3.org/2000/svg"><g><g><g><g><g><line x1="51.53200149536133" y1="176.5999994277954" x2="46.53200149536133" y2="176.5999994277954" style="visibility: inherit;" fill="rgb(0, 0, 0)" stroke="rgb(204, 204, 204)" stroke-width="1px"></line><line x1="51.53200149536133" y1="156.9777772691515" x2="46.53200149536133" y2="156.9777772691515" style="visibility: inherit;" fill="rgb(0, 0, 0)" stroke="rgb(204, 204, 204)" stroke-width="1px"></line><line x1="51.53200149536133" y1="137.3555551105075" x2="46.53200149536133" y2="137.3555551105075" style="visibility: inherit;" fill="rgb(0, 0, 0)" stroke="rgb(204, 204, 204)" stroke-width="1px"></line><line x1="51.53200149536133" y1="117.73333295186362" x2="46.53200149536133" y2="117.73333295186362" style="visibility: inherit;" fill="rgb(0, 0, 0)" stroke="rgb(204, 204, 204)" stroke-width="1px"></line><line x1="51.53200149536133" y1="98.11111079321968" x2="46.53200149536133" y2="98.11111079321968" style="visibility: inherit;" fill="rgb(0, 0, 0)" stroke="rgb(204, 204, 204)" stroke-width="1px"></line><line x1="51.53200149536133" y1="78.48888863457576" x2="46.53200149536133" y2="78.48888863457576" style="visibility: inherit;" fill="rgb(0, 0, 0)" stroke="rgb(204, 204, 204)" stroke-width="1px"></line><line x1="51.53200149536133" y1="58.86666647593181" x2="46.53200149536133" y2="58.86666647593181" style="visibility: inherit;" fill="rgb(0, 0, 0)" stroke="rgb(204, 204, 204)" stroke-width="1px"></line><line x1="51.53200149536133" y1="39.244444317287865" x2="46.53200149536133" y2="39.244444317287865" style="visibility: inherit;" fill="rgb(0, 0, 0)" stroke="rgb(204, 204, 204)" stroke-width="1px"></line><line x1="51.53200149536133" y1="19.622222158643943" x2="46.53200149536133" y2="19.622222158643943" style="visibility: inherit;" fill="rgb(0, 0, 0)" stroke="rgb(204, 204, 204)" stroke-width="1px"></line><line x1="51.53200149536133" y1="0" x2="46.53200149536133" y2="0" style="visibility: inherit;" fill="rgb(0, 0, 0)" stroke="rgb(204, 204, 204)" stroke-width="1px"></line></g><g transform="translate(41.53200149536133, 0)"><text style="text-anchor: end; visibility: hidden; font-family: Roboto, sans-serif; font-size: 12px; font-weight: 200;" x="0" y="176.5999994277954" dx="0em" dy="0.3em" fill="rgb(33, 33, 33)" stroke="none" stroke-width="1px">0.45</text><text style="text-anchor: end; visibility: inherit; font-family: Roboto, sans-serif; font-size: 12px; font-weight: 200;" x="0" y="156.9777772691515" dx="0em" dy="0.3em" fill="rgb(33, 33, 33)" stroke="none" stroke-width="1px">0.5</text><text style="text-anchor: end; visibility: hidden; font-family: Roboto, sans-serif; font-size: 12px; font-weight: 200;" x="0" y="137.3555551105075" dx="0em" dy="0.3em" fill="rgb(33, 33, 33)" stroke="none" stroke-width="1px">0.55</text><text style="text-anchor: end; visibility: inherit; font-family: Roboto, sans-serif; font-size: 12px; font-weight: 200;" x="0" y="117.73333295186362" dx="0em" dy="0.3em" fill="rgb(33, 33, 33)" stroke="none" stroke-width="1px">0.6</text><text style="text-anchor: end; visibility: hidden; font-family: Roboto, sans-serif; font-size: 12px; font-weight: 200;" x="0" y="98.11111079321968" dx="0em" dy="0.3em" fill="rgb(33, 33, 33)" stroke="none" stroke-width="1px">0.65</text><text style="text-anchor: end; visibility: inherit; font-family: Roboto, sans-serif; font-size: 12px; font-weight: 200;" x="0" y="78.48888863457576" dx="0em" dy="0.3em" fill="rgb(33, 33, 33)" stroke="none" stroke-width="1px">0.7</text><text style="text-anchor: end; visibility: hidden; font-family: Roboto, sans-serif; font-size: 12px; font-weight: 200;" x="0" y="58.86666647593181" dx="0em" dy="0.3em" fill="rgb(33, 33, 33)" stroke="none" stroke-width="1px">0.75</text><text style="text-anchor: end; visibility: inherit; font-family: Roboto, sans-serif; font-size: 12px; font-weight: 200;" x="0" y="39.244444317287865" dx="0em" dy="0.3em" fill="rgb(33, 33, 33)" stroke="none" stroke-width="1px">0.8</text><text style="text-anchor: end; visibility: hidden; font-family: Roboto, sans-serif; font-size: 12px; font-weight: 200;" x="0" y="19.622222158643943" dx="0em" dy="0.3em" fill="rgb(33, 33, 33)" stroke="none" stroke-width="1px">0.85</text><text style="text-anchor: end; visibility: hidden; font-family: Roboto, sans-serif; font-size: 12px; font-weight: 200;" x="0" y="0" dx="0em" dy="0.3em" fill="rgb(33, 33, 33)" stroke="none" stroke-width="1px">0.9</text></g><line x1="51.53200149536133" y1="0" x2="51.53200149536133" y2="176.5999994277954" fill="rgb(0, 0, 0)" stroke="rgb(204, 204, 204)" stroke-width="1px"></line></g></g><g transform="translate(51, 0)" clip-path="url(#clip_0)"><clipPath id="clip_0"><rect width="278" height="176"></rect></clipPath><g><g><g><line x1="0" y1="0" x2="0" y2="176.5999994277954" fill="rgb(0, 0, 0)" stroke="rgb(66, 66, 66)" stroke-width="1px" opacity="0.25"></line><line x1="34.808499813079834" y1="0" x2="34.808499813079834" y2="176.5999994277954" fill="rgb(0, 0, 0)" stroke="rgb(66, 66, 66)" stroke-width="1px" opacity="0.25"></line><line x1="69.61699962615967" y1="0" x2="69.61699962615967" y2="176.5999994277954" fill="rgb(0, 0, 0)" stroke="rgb(66, 66, 66)" stroke-width="1px" opacity="0.25"></line><line x1="104.4254994392395" y1="0" x2="104.4254994392395" y2="176.5999994277954" fill="rgb(0, 0, 0)" stroke="rgb(66, 66, 66)" stroke-width="1px" opacity="0.25"></line><line x1="139.23399925231934" y1="0" x2="139.23399925231934" y2="176.5999994277954" fill="rgb(0, 0, 0)" stroke="rgb(66, 66, 66)" stroke-width="1px" opacity="0.25"></line><line x1="174.04249906539917" y1="0" x2="174.04249906539917" y2="176.5999994277954" fill="rgb(0, 0, 0)" stroke="rgb(66, 66, 66)" stroke-width="1px" opacity="0.25"></line><line x1="208.850998878479" y1="0" x2="208.850998878479" y2="176.5999994277954" fill="rgb(0, 0, 0)" stroke="rgb(66, 66, 66)" stroke-width="1px" opacity="0.25"></line><line x1="243.65949869155884" y1="0" x2="243.65949869155884" y2="176.5999994277954" fill="rgb(0, 0, 0)" stroke="rgb(66, 66, 66)" stroke-width="1px" opacity="0.25"></line><line x1="278.4679985046387" y1="0" x2="278.4679985046387" y2="176.5999994277954" fill="rgb(0, 0, 0)" stroke="rgb(66, 66, 66)" stroke-width="1px" opacity="0.25"></line></g><g><line x1="0" y1="176.5999994277954" x2="278.4679985046387" y2="176.5999994277954" fill="rgb(0, 0, 0)" stroke="rgb(66, 66, 66)" stroke-width="1px" opacity="0.25"></line><line x1="0" y1="156.9777772691515" x2="278.4679985046387" y2="156.9777772691515" fill="rgb(0, 0, 0)" stroke="rgb(66, 66, 66)" stroke-width="1px" opacity="0.25"></line><line x1="0" y1="137.3555551105075" x2="278.4679985046387" y2="137.3555551105075" fill="rgb(0, 0, 0)" stroke="rgb(66, 66, 66)" stroke-width="1px" opacity="0.25"></line><line x1="0" y1="117.73333295186362" x2="278.4679985046387" y2="117.73333295186362" fill="rgb(0, 0, 0)" stroke="rgb(66, 66, 66)" stroke-width="1px" opacity="0.25"></line><line x1="0" y1="98.11111079321968" x2="278.4679985046387" y2="98.11111079321968" fill="rgb(0, 0, 0)" stroke="rgb(66, 66, 66)" stroke-width="1px" opacity="0.25"></line><line x1="0" y1="78.48888863457576" x2="278.4679985046387" y2="78.48888863457576" fill="rgb(0, 0, 0)" stroke="rgb(66, 66, 66)" stroke-width="1px" opacity="0.25"></line><line x1="0" y1="58.86666647593181" x2="278.4679985046387" y2="58.86666647593181" fill="rgb(0, 0, 0)" stroke="rgb(66, 66, 66)" stroke-width="1px" opacity="0.25"></line><line x1="0" y1="39.244444317287865" x2="278.4679985046387" y2="39.244444317287865" fill="rgb(0, 0, 0)" stroke="rgb(66, 66, 66)" stroke-width="1px" opacity="0.25"></line><line x1="0" y1="19.622222158643943" x2="278.4679985046387" y2="19.622222158643943" fill="rgb(0, 0, 0)" stroke="rgb(66, 66, 66)" stroke-width="1px" opacity="0.25"></line><line x1="0" y1="0" x2="278.4679985046387" y2="0" fill="rgb(0, 0, 0)" stroke="rgb(66, 66, 66)" stroke-width="1px" opacity="0.25"></line></g></g></g><g><g><line x1="0" y1="353.1999988555908" x2="278.4679985046387" y2="353.1999988555908" fill="rgb(0, 0, 0)" stroke="rgb(153, 153, 153)" stroke-width="1.5px"></line></g></g><g><g><line x1="34.808499813079834" y1="0" x2="34.808499813079834" y2="176.5999994277954" fill="rgb(0, 0, 0)" stroke="rgb(153, 153, 153)" stroke-width="1.5px"></line></g></g><g><g><g><g><g><path style="fill: none;" stroke="rgb(204, 51, 17)" stroke-width="2px" d="M35.52137788925171,16.834365663024688L36.234255965423586,76.72170222993856L36.947134041595454,30.265296729875228L37.66001211776734,84.46899321613986L38.37289019393921,130.7819052078588L39.08576827011109,130.90135962052284L39.79864634628296,158.9836858348962L40.51152442245483,159.52696632568268L41.22440249862671,150.21545936110994L41.937280574798585,140.60618884334548L42.650158650970454,138.45428639374254L43.36303672714234,125.78004323884775L44.07591480331421,121.37127925442788L44.78879287948609,128.9431436715671L45.50167095565796,123.94121561925536L46.21454903182983,128.89260138895213L46.92742710800171,127.55470025713234L47.640305184173585,114.19709592191316L48.35318326034545,109.05288513519467L49.066061336517336,108.01725964711741L49.77893941268921,105.25219911928497L50.49181748886109,103.43667751578376L51.20469556503296,103.41075778695296L51.91757364120483,102.84232403996106L52.63045171737671,112.97732371556587L53.343329793548584,111.32384890981919L54.05620786972045,109.18748923888059L54.769085945892336,108.56268985584246L55.48196402206421,107.85226729739951L56.19484209823609,110.47193934233518L56.90772017440796,110.52950397917293L57.62059825057983,115.09081276212954L58.33347632675171,117.85024644593422L59.04635440292358,115.92224480578723L59.75923247909546,112.39524856737465L60.472110555267335,109.85547172910952L61.18498863143921,112.99434082286952L61.89786670761109,117.37752802606352L62.61074478378296,118.915863555224L63.32362285995483,119.15642580388202L64.03650093612671,117.50392819936293L64.74937901229859,118.89421156240905L65.46225708847047,115.86118966017143L66.17513516464233,114.44650391236479L66.8880132408142,113.89946343405758L67.60089131698608,115.54620107428197L68.31376939315795,115.3112227225951L69.02664746932983,116.98382693843547L69.7395255455017,117.13232506484506L70.45240362167358,121.97033537357464L71.16528169784546,123.31280019408447L71.87815977401733,122.5620344143241L72.59103785018921,124.55732983609877L73.30391592636107,124.37348937318535L74.01679400253295,127.7348359640849L74.72967207870484,130.5988156572401L75.44255015487671,131.6095425589271L76.15542823104859,133.49716655349016L76.86830630722046,132.57035013160322L77.58118438339234,134.90980658500797L78.29406245956422,134.7663871654429L79.00694053573609,135.67756393443483L79.71981861190795,134.62993902728317L80.43269668807983,133.5618202062598L81.1455747642517,133.2349554604273L81.85845284042358,133.93880796918256L82.57133091659546,134.99393266879994L83.28420899276733,134.1008095985323L83.99708706893921,132.39094690025976L84.70996514511108,132.26506407122233L85.42284322128295,133.8364282606347L86.13572129745484,132.6590024015483L86.84859937362671,133.2464345989835L87.56147744979859,133.79221278813714L88.27435552597046,136.82726272228973L88.98723360214234,135.4294988057174L89.70011167831422,134.13963219897823L90.41298975448609,132.04360722795255L91.12586783065795,130.16999179457804L91.83874590682983,129.6521580756141L92.5516239830017,130.23409981089824L93.26450205917358,129.10569921572673L93.97738013534546,128.1218721773161L94.69025821151733,126.33560254373502L95.40313628768921,126.41560101420141L96.11601436386108,124.44089667663111L96.82889244003294,122.9625079285102L97.54177051620483,124.41321477293353L98.25464859237671,124.60046977946614L98.96752666854859,123.82232664536512L99.68040474472046,121.93358688651605L100.39328282089234,120.98523028510135L101.10616089706421,120.35002062575971L101.81903897323609,119.26796281333729L102.53191704940797,118.75129282309858L103.24479512557983,118.73406284045176L103.9576732017517,117.62676978267707L104.67055127792358,117.66473577279109L105.38342935409545,118.31576003667753L106.09630743026733,120.7828279486014L106.8091855064392,120.99063820400794L107.52206358261108,120.88858179537226L108.23494165878297,121.3460792108397L108.94781973495483,119.88693278483325L109.66069781112671,119.48394311521896L110.37357588729859,119.69745754010219L111.08645396347046,119.35384214958881L111.79933203964234,119.15337806157916L112.51221011581421,119.02155162409747L113.22508819198609,118.20114654563764L113.93796626815796,117.55934818866916L114.65084434432983,116.62814117412893L115.3637224205017,116.48450988460185L116.07660049667358,114.85249465802121L116.78947857284545,115.26467091651007L117.50235664901733,114.93468245229289L118.2152347251892,114.85331518377052L118.9281128013611,115.09172364962981L119.64099087753297,115.07137200335863L120.35386895370483,114.12198472241386L121.06674702987671,113.38822953508242L121.77962510604858,114.26191191269668L122.49250318222046,115.24058803304271L123.20538125839234,115.3107519276414L123.91825933456421,117.33433741764661L124.63113741073609,115.63463085643848L125.34401548690796,115.57907556692697L126.05689356307984,114.13799577866061L126.7697716392517,113.75558695615199L127.48264971542358,114.17030365432633L128.19552779159545,113.12382857436876L128.90840586776733,112.55473297606997L129.6212839439392,111.78013906419571L130.33416202011108,111.5577514163447L131.04704009628296,111.45760734287325L131.75991817245483,110.9976849541493L132.4727962486267,111.41385497490316L133.18567432479858,110.78588117640695L133.89855240097046,111.24436924863487L134.61143047714233,110.7424624705828L135.3243085533142,111.17084996886516L136.0371866294861,110.72414180583523L136.75006470565796,110.24133457078094L137.46294278182984,109.74664492763863L138.1758208580017,109.14273804064753L138.8886989341736,109.52727868387896L139.60157701034547,110.24070212809319L140.31445508651734,110.96561763658707L141.02733316268922,111.40617331731308L141.7402112388611,113.14124575372492L142.45308931503297,112.53494348651775L143.16596739120484,112.10242534112064L143.87884546737672,111.64866491234646L144.5917235435486,111.21616800596088L145.30460161972047,111.58769732318L146.01747969589235,110.90430573292976L146.73035777206422,110.58827216175064L147.44323584823607,110.57884660180285L148.15611392440795,110.04937133194319L148.86899200057982,109.79920368791339L149.5818700767517,109.52525541196798L150.29474815292357,109.0912673194943L151.00762622909545,108.73639047889401L151.72050430526733,108.44981140874938L152.4333823814392,108.03127825541124L153.14626045761108,107.29144105108567L153.85913853378295,107.94974891424357L154.57201660995483,107.57902855063557L155.2848946861267,108.12026511001643L155.99777276229858,108.81893206189102L156.71065083847046,109.38032370873L157.42352891464233,109.39167748455651L158.13640699081424,108.93084957364923L158.84928506698606,109.1459838541747L159.56216314315796,110.66546690341627L160.27504121932984,110.60490019329256L160.9879192955017,110.15026941531897L161.7007973716736,109.74389469199801L162.41367544784546,108.69346112498803L163.12655352401734,108.21769168719247L163.83943160018922,107.66131395929621L164.5523096763611,107.53712244104682L165.26518775253297,106.86379366560413L165.97806582870484,107.30903468834224L166.69094390487672,106.9205529916217L167.4038219810486,106.46344215793259L168.11670005722047,106.0959776384796L168.82957813339235,106.3114881644432L169.54245620956422,105.8348811619506L170.2553342857361,105.67931740538087L170.96821236190794,105.77040493186296L171.68109043807982,105.80160304691199L172.3939685142517,105.89315522127654L173.10684659042357,105.96489941643927L173.81972466659545,106.22515599678349L174.53260274276732,106.68112446289615L175.2454808189392,106.85715017236566L175.95835889511108,106.55222042991352L176.67123697128295,106.8403415616488L177.38411504745483,108.19880898474662L178.0969931236267,108.10047860327815L178.80987119979858,107.73095807819476L179.52274927597045,107.3415979969839L180.23562735214233,106.79851580586782L180.94850542831423,106.53040081034848L181.6613835044861,106.43462477057984L182.37426158065796,106.12793839917474L183.08713965682983,106.06051229919403L183.8000177330017,105.54302155162718L184.51289580917359,104.88552515604671L185.22577388534546,104.66036561294233L185.93865196151734,105.04340443707892L186.6515300376892,104.66094655203148L187.3644081138611,104.36930402203761L188.07728619003296,103.83851514151732L188.79016426620484,103.68876253340531L189.50304234237672,103.30263300595878L190.2159204185486,102.86793573441578L190.92879849472047,103.0045180685435L191.64167657089234,103.21926803773444L192.35455464706422,103.19482527209706L193.0674327232361,102.97628397791148L193.78031079940797,103.17755117338784L194.49318887557982,103.54145545555689L195.2060669517517,104.78000285316196L195.91894502792357,104.38037238268831L196.63182310409545,103.72546535209611L197.34470118026732,103.9104519796305L198.0575792564392,104.05765058244498L198.77045733261107,103.47968540682845L199.48333540878295,103.2043481642927L200.19621348495482,102.63038894979191L200.9090915611267,102.17400966249198L201.62196963729858,101.7386108123451L202.33484771347045,101.45526641337057L203.04772578964236,101.02445255729194L203.76060386581423,100.6868662962257L204.4734819419861,100.53760814481923L205.18636001815798,100.50825309414637L205.89923809432983,100.89352635602822L206.6121161705017,100.72702583244106L207.32499424667358,100.32372351056519L208.03787232284546,99.8265949760161L208.75075039901733,99.58233620455535L209.4636284751892,99.51306314006462L210.1765065513611,99.34624808831384L210.88938462753296,99.21020676816582L211.60226270370484,99.3742835562431L212.3151407798767,99.73501150426885L213.0280188560486,100.88037459482638L213.74089693222047,100.56257154250322L214.45377500839234,100.23016103654027L215.16665308456422,99.72680039770037L215.8795311607361,99.17444608963498L216.59240923690797,99.14504612380921L217.30528731307984,98.81874072431927L218.0181653892517,98.73073852475378L218.73104346542357,98.379196338257L219.44392154159544,98.20647617042036L220.15679961776732,97.93712377059909L220.8696776939392,97.72958476148803L221.58255577011107,97.86407411013118L222.29543384628295,97.86366335748083L223.00831192245482,97.53250746066519L223.7211899986267,97.43208223079861L224.43406807479857,97.27605920531884L225.14694615097045,97.15305237719645L225.85982422714235,96.58195671953328L226.57270230331423,96.99347621107285L227.2855803794861,97.41444873386236L227.99845845565798,97.60805732219282L228.71133653182986,97.61188511689897L229.4242146080017,97.89399168337907L230.13709268417358,98.29403116978342L230.84997076034546,99.35378855973607L231.56284883651733,99.10721821023223L232.2757269126892,99.03505116652595L232.98860498886108,98.79616914048046L233.70148306503296,98.24471291779969L234.41436114120484,97.77580976642369L235.1272392173767,97.75278509981678L235.8401172935486,97.56645322420476L236.55299536972046,97.10082137801817L237.26587344589234,96.77539736762469L237.97875152206421,96.5090362967061L238.6916295982361,96.37539991002694L239.40450767440797,96.12413153378755L240.11738575057984,95.79884640917719L240.83026382675172,95.27929468051951L241.54314190292357,94.59291957869131L242.25601997909544,94.39830387073994L242.96889805526732,94.18290114698345L243.6817761314392,93.6694162165978L244.39465420761107,93.50281074884268L245.10753228378294,93.45421247398261L245.82041035995482,93.34641539496602L246.5332884361267,93.45369890062392L247.24616651229857,93.57119365280022L247.95904458847045,93.92185209705687L248.67192266464235,94.9217949374452L249.38480074081423,94.57303537027069L250.0976788169861,94.14373909398563L250.81055689315798,93.666645480307L251.52343496932986,93.48625729484291L252.23631304550173,93.15062771088063L252.94919112167358,92.6829978490484L253.66206919784545,92.49324786225031L254.37494727401733,92.25558975644545L255.0878253501892,91.62288080695875L255.80070342636108,91.13824673793985L256.51358150253293,91.220965887138L257.2264595787048,90.79320767706912L257.9393376548767,90.39180161568424L258.65221573104856,89.91583044709715L259.36509380722043,89.67535530789033L260.07797188339237,89.25514511378951L260.79084995956424,89.30919887302854L261.5037280357361,89.30437229480624L262.216606111908,89.07100531437105L262.92948418807987,88.96858629251221L263.64236226425174,88.96177323919662L264.3552403404236,89.02512239326784L265.06811841659544,89.21507604951006L265.7809964927673,89.58160160530338L266.4938745689392,90.53126938062015L267.20675264511107,90.33391533628016L267.91963072128294,90.09774267267278L268.6325087974548,89.7716927297715L269.3453868736267,89.86575345028945L270.05826494979857,89.41007064517851L270.77114302597045,89.03328246235709L271.4840211021423,88.80688936529758L272.1968991783142,88.64701547398364L272.9097772544861,88.22298541190088L273.62265533065795,88.20167865464356L274.3355334068298,87.83096169217765L275.0484114830017,87.35256720195108L275.7612895591736,86.95381225489132L276.47416763534545,86.73299080868327L277.1870457115173,86.50550035329843L277.8999237876892,86.43451682720872L278.6128018638611,86.16629815368964" fill="none"></path></g></g></g></g><g opacity="0.2"><g><g><g><path style="fill: none;" stroke="rgb(204, 51, 17)" stroke-width="2px" d="M35.52137788925171,16.834365663024688L36.234255965423586,136.54915146029344L36.947134041595454,-62.508191510163535L38.37289019393921,315.57088695241157L39.08576827011109,131.49684225497194L39.79864634628296,326.8888961697451L40.51152442245483,163.31474829315937L41.22440249862671,76.05783690074664L41.937280574798585,54.55402025984345L42.650158650970454,117.05326217765756L43.36303672714234,-12.80291348653559L44.07591480331421,68.8087372722621L44.78879287948609,226.69109002678508L45.50167095565796,54.437156267742985L46.21454903182983,202.57198542815735L46.92742710800171,106.32933010511469L47.640305184173585,-110.84932335858839L48.35318326034545,17.331786157823785L49.066061336517336,88.53596860491272L49.77893941268921,50.52799023575005L50.49181748886109,65.72732666229861L51.20469556503296,102.84703576884662L51.91757364120483,89.92409107953594L52.63045171737671,353.1999988555908L53.343329793548584,70.5200836545803L54.05620786972045,54.38578850820483L54.769085945892336,91.92724656943085L55.48196402206421,88.24628812489429L56.19484209823609,185.31343575409406L56.90772017440796,112.2299324796762L57.62059825057983,254.25143685877134L58.33347632675171,204.71008654864224L59.04635440292358,53.36835131837265L59.75923247909546,-5.446961432927992L60.472110555267335,22.545356444318326L61.18498863143921,223.92732444899292L61.89786670761109,276.5107291507691L62.61074478378296,176.24664023566828L63.32362285995483,128.35306987500448L64.03650093612671,52.74162254728626L64.74937901229859,174.71460148574522L65.46225708847047,-8.823970575352178L66.17513516464233,54.934763894635104L66.8880132408142,90.36357080002901L67.60089131698608,187.96975242321656L68.31376939315795,104.7524615231539L69.02664746932983,193.73813427829293L69.7395255455017,124.08830608322145L70.45240362167358,353.1999988555908L71.16528169784546,188.75202305088263L71.87815977401733,85.25210446179679L72.59103785018921,225.6093378757279L73.30391592636107,114.88851812542677L74.01679400253295,304.3430023054471L76.15542823104859,238.02894401779722L76.86830630722046,80.37106790462573L77.58118438339234,268.8758274731031L78.29406245956422,126.41859186325345L79.00694053573609,189.57026982343467L79.71981861190795,71.68222073535193L80.43269668807983,68.37983051502552L81.1455747642517,112.98143157379381L81.85845284042358,178.21116464410724L82.57133091659546,202.34902923506175L83.28420899276733,76.25205662180551L83.99708706893921,20.04349392648471L84.70996514511108,123.87637898785916L85.42284322128295,240.01538627263295L86.13572129745484,52.0022402561927L86.84859937362671,174.03368627796934L87.56147744979859,172.19463393791045L88.27435552597046,353.1999988555908L88.98723360214234,34.48433719693848L89.70011167831422,39.79128639785756L90.41298975448609,-23.21246364277936L91.12586783065795,-10.34479309544895L91.83874590682983,90.33791031177157L92.5516239830017,174.95264520384177L93.26450205917358,41.354681469119825L93.97738013534546,50.70740312994751L94.69025821151733,-15.864651835218776L95.40313628768921,132.8576200525004L96.11601436386108,-36.38939336536205L96.82889244003294,1.198262931332076L97.54177051620483,245.22727237029014L98.25464859237671,140.36643563460612L98.96752666854859,57.594589290502036L99.68040474472046,-40.54309425992865L100.39328282089234,38.53810955382433L101.10616089706421,64.54755238175842L101.81903897323609,23.224458809942917L102.53191704940797,72.42134571981758L103.24479512557983,117.1733775898745L103.9576732017517,16.3226997376433L104.67055127792358,121.17262433315223L105.38342935409545,179.0577268414867L106.09630743026733,353.1999988555908L106.8091855064392,140.75602126079372L107.52206358261108,111.08947933018503L108.23494165878297,165.6865072233103L108.94781973495483,-22.84909990112833L109.66069781112671,79.69968473783884L110.37357588729859,140.9684161863886L111.08645396347046,84.81278848188512L111.79933203964234,98.82212853731144L112.51221011581421,105.53327018134311L113.22508819198609,33.52289928594707L113.93796626815796,50.74111029820547L114.65084434432983,18.8459654886178L115.3637224205017,101.2739800032814L116.07660049667358,-59.43520184438662L116.78947857284545,159.6499299916471L117.50235664901733,79.1057040830336L118.2152347251892,105.94629410218336L118.9281128013611,141.401626981765L119.64099087753297,112.80735194424783L120.35386895370483,7.664518840115623L121.06674702987671,30.459453356914924L121.77962510604858,213.77927969701003L122.49250318222046,227.58355806573724L123.20538125839234,123.42695787492357L123.91825933456421,353.1999988555908L124.63113741073609,-83.9801489122275L125.34401548690796,109.00564651668034L126.05689356307984,-57.642991006365584L126.7697716392517,67.8348784685955L127.48264971542358,164.33513281345685L128.19552779159545,-14.378401969310246L128.90840586776733,42.71709667246234L129.6212839439392,16.045627282393113L130.33416202011108,83.87747888938375L131.04704009628296,98.90523857813068L131.75991817245483,52.947771939276116L132.4727962486267,164.30471215258282L133.18567432479858,30.42944204749442L133.89855240097046,170.31252952069767L134.61143047714233,45.64381921602067L135.3243085533142,167.1062433259006L136.0371866294861,52.008649530379145L136.75006470565796,46.36210236362451L137.46294278182984,43.866532162419205L138.1758208580017,28.194780767003383L138.8886989341736,161.40389570815404L139.60157701034547,207.10185691699206L140.31445508651734,210.01281358171224L141.02733316268922,171.98042617016426L141.7402112388611,353.1999988555908L142.45308931503297,28.12720268990606L143.16596739120484,51.51656230023156L143.87884546737672,47.69750037103506L144.5917235435486,49.890688501407176L145.30460161972047,164.58681378283333L146.01747969589235,12.832428895909581L146.73035777206422,64.96469320864541L147.44323584823607,109.21008832832126L148.15611392440795,32.708126152871955L148.86899200057982,73.04346636311297L149.5818700767517,69.04213777530022L150.29474815292357,44.588604734906994L151.00762622909545,55.69007580514828L151.72050430526733,65.36906227018278L152.4333823814392,44.75898850561553L153.14626045761108,-5.181654908027394L153.85913853378295,208.5859898510982L154.57201660995483,50.592925072033246L155.2848946861267,191.7751420138657L156.71065083847046,197.09806761722763L157.42352891464233,111.17527939484167L158.13640699081424,36.14990639099794L158.84928506698606,143.30419897165353L159.56216314315796,353.1999988555908L160.27504121932984,100.8866165706986L160.9879192955017,36.82086851057552L161.7007973716736,43.857503038930254L162.41367544784546,-62.494624433418494L163.12655352401734,30.284274326322382L163.83943160018922,16.059170967626528L164.5523096763611,86.98658504911646L165.26518775253297,-5.11622884999997L165.97806582870484,181.72696732078447L166.69094390487672,41.66625640402337L167.4038219810486,29.301456573701714L168.11670005722047,43.76155105822647L168.82957813339235,143.0481087023349L169.54245620956422,24.196025245469855L170.2553342857361,78.90376516313702L170.96821236190794,121.52366074817455L171.68109043807982,111.222974687054L172.3939685142517,121.8779485833134L173.10684659042357,118.55041248798538L173.81972466659545,152.0942378202361L174.53260274276732,187.41871858376288L175.2454808189392,138.17041713132684L175.95835889511108,52.057795096312496L176.67123697128295,158.56721878861308L177.38411504745483,353.1999988555908L178.0969931236267,90.28598115595432L178.80987119979858,40.48278626464575L179.52274927597045,36.164760000882616L180.23562735214233,7.077298332171267L180.94850542831423,57.08028012430652L181.6613835044861,88.69203677050405L182.37426158065796,49.06447691914529L183.08713965682983,93.46009232650513L183.8000177330017,8.415386363419202L184.51289580917359,-19.053148785421673L185.22577388534546,62.035093509156674L185.93865196151734,177.86716907408535L186.6515300376892,31.638268585478315L187.3644081138611,48.450332781315524L188.07728619003296,1.6376023027553828L188.79016426620484,74.7338305594996L189.50304234237672,28.332720511081924L190.2159204185486,18.118372519385456L190.92879849472047,129.74273618939523L191.64167657089234,145.43256922330056L192.35455464706422,98.3705086222827L193.0674327232361,59.66717078691297L193.78031079940797,143.22457426606704L194.49318887557982,176.2402309614818L195.2060669517517,353.1999988555908L195.91894502792357,23.90594710975374L196.63182310409545,-28.67690789149919L197.34470118026732,141.45655025107084L198.0575792564392,134.05121871641356L198.77045733261107,-14.747613588868628L199.48333540878295,46.66322129282971L200.19621348495482,-15.688958191370379L200.9090915611267,7.731441954887325L201.62196963729858,11.292846383486037L202.33484771347045,42.37169761174268L203.04772578964236,10.84969419566714L203.76060386581423,29.759228456288973L204.4734819419861,69.06038315437115L205.18636001815798,94.29439737179078L205.89923809432983,182.7512231362566L206.6121161705017,65.22026886470819L207.32499424667358,14.00134951505372L208.03787232284546,-6.968462306862012L208.75075039901733,46.91818876959012L209.4636284751892,84.52296765279691L210.1765065513611,63.118354412713984L210.88938462753296,69.559207139868L211.60226270370484,135.26392824532795L212.3151407798767,178.92098006450124L213.0280188560486,353.1999988555908L213.74089693222047,30.30415711120736L214.45377500839234,26.48380864887126L215.16665308456422,-12.336580310691946L215.8795311607361,-24.225245921797296L216.59240923690797,92.55409229807537L217.30528731307984,25.413997864500857L218.0181653892517,78.86589430580905L218.73104346542357,18.753311711053765L219.44392154159544,58.95115661593718L220.15679961776732,36.51165611834654L220.8696776939392,50.24057873235967L221.58255577011107,128.74146253409896L222.29543384628295,97.76904268375606L223.00831192245482,20.993142515614906L223.7211899986267,74.14389663620625L224.43406807479857,60.97529429176366L225.14694615097045,68.4396660017735L225.85982422714235,-37.165664070295136L227.2855803794861,196.6476172777804L227.99845845565798,143.3939522017755L228.71133653182986,98.5200271646178L229.4242146080017,165.03850387239694L230.13709268417358,193.81232045742553L230.84997076034546,353.1999988555908L231.56284883651733,39.85837325321067L232.2757269126892,81.6391451415669L232.98860498886108,41.032463396424916L233.70148306503296,-35.51965017995785L234.41436114120484,-16.318704467456975L235.1272392173767,92.13297491421137L235.8401172935486,51.94631115188681L236.55299536972046,-17.252259696586137L237.26587344589234,16.610345156149968L237.97875152206421,30.69308777506933L238.6916295982361,63.25430587830403L239.40450767440797,33.659809803513916L240.11738575057984,14.690159358004529L240.83026382675172,-34.658561853856554L241.54314190292357,-77.58083950972727L242.25601997909544,45.4343248378678L242.96889805526732,39.828057854138976L243.6817761314392,-36.287055501983424L244.39465420761107,51.21282352172386L245.10753228378294,81.08214646664774L245.82041035995482,65.8233722090489L246.5332884361267,120.92539944674112L247.24616651229857,123.74494208401356L247.95904458847045,184.23446719292076L248.67192266464235,353.1999988555908L249.38480074081423,4.232563036873987L250.0976788169861,-17.3761177506638L250.81055689315798,-30.622379913715985L251.52343496932986,46.359599471880166L252.23631304550173,5.219333954960028L252.94919112167358,-30.17557865008293L253.66206919784545,42.501263194657895L254.37494727401733,29.4668111694099L255.0878253501892,-76.00242708799892L255.80070342636108,-37.612933164160815L256.51358150253293,113.25735784497415L257.2264595787048,-23.47500996930771L258.65221573104856,-37.92799343429715L259.36509380722043,24.90911547749199L260.07797188339237,-24.225058789704278L260.79084995956424,103.946132725777L261.5037280357361,87.99389371441312L262.216606111908,25.53907227718323L262.92948418807987,61.011551134789215L263.64236226425174,87.09708655005372L264.3552403404236,106.40930568337562L265.06811841659544,141.47952071549088L265.7809964927673,190.69390447606435L266.4938745689392,353.1999988555908L267.20675264511107,35.605164868172594L267.91963072128294,24.433659612112887L268.6325087974548,-1.1164207104431192L269.3453868736267,116.15341411678632L270.05826494979857,-38.26995394280725L270.77114302597045,-16.811703966558117L271.4840211021423,25.04738270273333L272.1968991783142,43.506747322047474L272.9097772544861,-31.805452397395943L273.62265533065795,82.15520867113462L274.3355334068298,-17.636909713819932L275.7612895591736,-27.060320522791653L276.47416763534545,23.43708765065412L277.1870457115173,21.13594769411236L277.8999237876892,65.9868320923151L278.6128018638611,8.71189716483343" fill="none"></path></g></g></g></g></g></g><g transform="translate(51, 176)" clip-path="url(#clip_1)"><clipPath id="clip_1"><rect width="278" height="23"></rect></clipPath><g><g><line x1="0" y1="0" x2="0" y2="5" style="visibility: inherit;" fill="rgb(0, 0, 0)" stroke="rgb(204, 204, 204)" stroke-width="1px"></line><line x1="34.808499813079834" y1="0" x2="34.808499813079834" y2="5" style="visibility: inherit;" fill="rgb(0, 0, 0)" stroke="rgb(204, 204, 204)" stroke-width="1px"></line><line x1="69.61699962615967" y1="0" x2="69.61699962615967" y2="5" style="visibility: inherit;" fill="rgb(0, 0, 0)" stroke="rgb(204, 204, 204)" stroke-width="1px"></line><line x1="104.4254994392395" y1="0" x2="104.4254994392395" y2="5" style="visibility: inherit;" fill="rgb(0, 0, 0)" stroke="rgb(204, 204, 204)" stroke-width="1px"></line><line x1="139.23399925231934" y1="0" x2="139.23399925231934" y2="5" style="visibility: inherit;" fill="rgb(0, 0, 0)" stroke="rgb(204, 204, 204)" stroke-width="1px"></line><line x1="174.04249906539917" y1="0" x2="174.04249906539917" y2="5" style="visibility: inherit;" fill="rgb(0, 0, 0)" stroke="rgb(204, 204, 204)" stroke-width="1px"></line><line x1="208.850998878479" y1="0" x2="208.850998878479" y2="5" style="visibility: inherit;" fill="rgb(0, 0, 0)" stroke="rgb(204, 204, 204)" stroke-width="1px"></line><line x1="243.65949869155884" y1="0" x2="243.65949869155884" y2="5" style="visibility: inherit;" fill="rgb(0, 0, 0)" stroke="rgb(204, 204, 204)" stroke-width="1px"></line><line x1="278.4679985046387" y1="0" x2="278.4679985046387" y2="5" style="visibility: inherit;" fill="rgb(0, 0, 0)" stroke="rgb(204, 204, 204)" stroke-width="1px"></line></g><g transform="translate(0, 8)"><text style="text-anchor: middle; visibility: hidden; font-family: Roboto, sans-serif; font-size: 12px; font-weight: 200;" x="0" y="0" dx="0em" dy="0.95em" fill="rgb(33, 33, 33)" stroke="none" stroke-width="1px">-100k</text><text style="text-anchor: middle; visibility: inherit; font-family: Roboto, sans-serif; font-size: 12px; font-weight: 200;" x="34.808499813079834" y="0" dx="0em" dy="0.95em" fill="rgb(33, 33, 33)" stroke="none" stroke-width="1px">0</text><text style="text-anchor: middle; visibility: inherit; font-family: Roboto, sans-serif; font-size: 12px; font-weight: 200;" x="69.61699962615967" y="0" dx="0em" dy="0.95em" fill="rgb(33, 33, 33)" stroke="none" stroke-width="1px">100k</text><text style="text-anchor: middle; visibility: inherit; font-family: Roboto, sans-serif; font-size: 12px; font-weight: 200;" x="104.4254994392395" y="0" dx="0em" dy="0.95em" fill="rgb(33, 33, 33)" stroke="none" stroke-width="1px">200k</text><text style="text-anchor: middle; visibility: inherit; font-family: Roboto, sans-serif; font-size: 12px; font-weight: 200;" x="139.23399925231934" y="0" dx="0em" dy="0.95em" fill="rgb(33, 33, 33)" stroke="none" stroke-width="1px">300k</text><text style="text-anchor: middle; visibility: inherit; font-family: Roboto, sans-serif; font-size: 12px; font-weight: 200;" x="174.04249906539917" y="0" dx="0em" dy="0.95em" fill="rgb(33, 33, 33)" stroke="none" stroke-width="1px">400k</text><text style="text-anchor: middle; visibility: inherit; font-family: Roboto, sans-serif; font-size: 12px; font-weight: 200;" x="208.850998878479" y="0" dx="0em" dy="0.95em" fill="rgb(33, 33, 33)" stroke="none" stroke-width="1px">500k</text><text style="text-anchor: middle; visibility: inherit; font-family: Roboto, sans-serif; font-size: 12px; font-weight: 200;" x="243.65949869155884" y="0" dx="0em" dy="0.95em" fill="rgb(33, 33, 33)" stroke="none" stroke-width="1px">600k</text><text style="text-anchor: middle; visibility: hidden; font-family: Roboto, sans-serif; font-size: 12px; font-weight: 200;" x="278.4679985046387" y="0" dx="0em" dy="0.95em" fill="rgb(33, 33, 33)" stroke="none" stroke-width="1px">700k</text></g><line x1="0" y1="0" x2="278.4679985046387" y2="0" fill="rgb(0, 0, 0)" stroke="rgb(204, 204, 204)" stroke-width="1px"></line></g></g></g></g></svg>