<svg viewBox="0 0 330 200" xmlns="http://www.w3.org/2000/svg"><g><g><g><g><g><line x1="51.53200149536133" y1="176.5999994277954" x2="46.53200149536133" y2="176.5999994277954" style="visibility: inherit;" fill="rgb(0, 0, 0)" stroke="rgb(204, 204, 204)" stroke-width="1px"></line><line x1="51.53200149536133" y1="156.97777726915146" x2="46.53200149536133" y2="156.97777726915146" style="visibility: inherit;" fill="rgb(0, 0, 0)" stroke="rgb(204, 204, 204)" stroke-width="1px"></line><line x1="51.53200149536133" y1="137.35555511050754" x2="46.53200149536133" y2="137.35555511050754" style="visibility: inherit;" fill="rgb(0, 0, 0)" stroke="rgb(204, 204, 204)" stroke-width="1px"></line><line x1="51.53200149536133" y1="117.73333295186362" x2="46.53200149536133" y2="117.73333295186362" style="visibility: inherit;" fill="rgb(0, 0, 0)" stroke="rgb(204, 204, 204)" stroke-width="1px"></line><line x1="51.53200149536133" y1="98.11111079321968" x2="46.53200149536133" y2="98.11111079321968" style="visibility: inherit;" fill="rgb(0, 0, 0)" stroke="rgb(204, 204, 204)" stroke-width="1px"></line><line x1="51.53200149536133" y1="78.48888863457573" x2="46.53200149536133" y2="78.48888863457573" style="visibility: inherit;" fill="rgb(0, 0, 0)" stroke="rgb(204, 204, 204)" stroke-width="1px"></line><line x1="51.53200149536133" y1="58.86666647593181" x2="46.53200149536133" y2="58.86666647593181" style="visibility: inherit;" fill="rgb(0, 0, 0)" stroke="rgb(204, 204, 204)" stroke-width="1px"></line><line x1="51.53200149536133" y1="39.244444317287865" x2="46.53200149536133" y2="39.244444317287865" style="visibility: inherit;" fill="rgb(0, 0, 0)" stroke="rgb(204, 204, 204)" stroke-width="1px"></line><line x1="51.53200149536133" y1="19.622222158643943" x2="46.53200149536133" y2="19.622222158643943" style="visibility: inherit;" fill="rgb(0, 0, 0)" stroke="rgb(204, 204, 204)" stroke-width="1px"></line><line x1="51.53200149536133" y1="0" x2="46.53200149536133" y2="0" style="visibility: inherit;" fill="rgb(0, 0, 0)" stroke="rgb(204, 204, 204)" stroke-width="1px"></line></g><g transform="translate(41.53200149536133, 0)"><text style="text-anchor: end; visibility: hidden; font-family: Roboto, sans-serif; font-size: 12px; font-weight: 200;" x="0" y="176.5999994277954" dx="0em" dy="0.3em" fill="rgb(33, 33, 33)" stroke="none" stroke-width="1px">-0.5</text><text style="text-anchor: end; visibility: inherit; font-family: Roboto, sans-serif; font-size: 12px; font-weight: 200;" x="0" y="156.97777726915146" dx="0em" dy="0.3em" fill="rgb(33, 33, 33)" stroke="none" stroke-width="1px">0</text><text style="text-anchor: end; visibility: hidden; font-family: Roboto, sans-serif; font-size: 12px; font-weight: 200;" x="0" y="137.35555511050754" dx="0em" dy="0.3em" fill="rgb(33, 33, 33)" stroke="none" stroke-width="1px">0.5</text><text style="text-anchor: end; visibility: inherit; font-family: Roboto, sans-serif; font-size: 12px; font-weight: 200;" x="0" y="117.73333295186362" dx="0em" dy="0.3em" fill="rgb(33, 33, 33)" stroke="none" stroke-width="1px">1</text><text style="text-anchor: end; visibility: hidden; font-family: Roboto, sans-serif; font-size: 12px; font-weight: 200;" x="0" y="98.11111079321968" dx="0em" dy="0.3em" fill="rgb(33, 33, 33)" stroke="none" stroke-width="1px">1.5</text><text style="text-anchor: end; visibility: inherit; font-family: Roboto, sans-serif; font-size: 12px; font-weight: 200;" x="0" y="78.48888863457573" dx="0em" dy="0.3em" fill="rgb(33, 33, 33)" stroke="none" stroke-width="1px">2</text><text style="text-anchor: end; visibility: hidden; font-family: Roboto, sans-serif; font-size: 12px; font-weight: 200;" x="0" y="58.86666647593181" dx="0em" dy="0.3em" fill="rgb(33, 33, 33)" stroke="none" stroke-width="1px">2.5</text><text style="text-anchor: end; visibility: inherit; font-family: Roboto, sans-serif; font-size: 12px; font-weight: 200;" x="0" y="39.244444317287865" dx="0em" dy="0.3em" fill="rgb(33, 33, 33)" stroke="none" stroke-width="1px">3</text><text style="text-anchor: end; visibility: hidden; font-family: Roboto, sans-serif; font-size: 12px; font-weight: 200;" x="0" y="19.622222158643943" dx="0em" dy="0.3em" fill="rgb(33, 33, 33)" stroke="none" stroke-width="1px">3.5</text><text style="text-anchor: end; visibility: hidden; font-family: Roboto, sans-serif; font-size: 12px; font-weight: 200;" x="0" y="0" dx="0em" dy="0.3em" fill="rgb(33, 33, 33)" stroke="none" stroke-width="1px">4</text></g><line x1="51.53200149536133" y1="0" x2="51.53200149536133" y2="176.5999994277954" fill="rgb(0, 0, 0)" stroke="rgb(204, 204, 204)" stroke-width="1px"></line></g></g><g transform="translate(51, 0)" clip-path="url(#clip_0)"><clipPath id="clip_0"><rect width="278" height="176"></rect></clipPath><g><g><g><line x1="0" y1="0" x2="0" y2="176.5999994277954" fill="rgb(0, 0, 0)" stroke="rgb(66, 66, 66)" stroke-width="1px" opacity="0.25"></line><line x1="23.205666542053223" y1="0" x2="23.205666542053223" y2="176.5999994277954" fill="rgb(0, 0, 0)" stroke="rgb(66, 66, 66)" stroke-width="1px" opacity="0.25"></line><line x1="46.411333084106445" y1="0" x2="46.411333084106445" y2="176.5999994277954" fill="rgb(0, 0, 0)" stroke="rgb(66, 66, 66)" stroke-width="1px" opacity="0.25"></line><line x1="69.61699962615967" y1="0" x2="69.61699962615967" y2="176.5999994277954" fill="rgb(0, 0, 0)" stroke="rgb(66, 66, 66)" stroke-width="1px" opacity="0.25"></line><line x1="92.82266616821289" y1="0" x2="92.82266616821289" y2="176.5999994277954" fill="rgb(0, 0, 0)" stroke="rgb(66, 66, 66)" stroke-width="1px" opacity="0.25"></line><line x1="116.02833271026611" y1="0" x2="116.02833271026611" y2="176.5999994277954" fill="rgb(0, 0, 0)" stroke="rgb(66, 66, 66)" stroke-width="1px" opacity="0.25"></line><line x1="139.23399925231934" y1="0" x2="139.23399925231934" y2="176.5999994277954" fill="rgb(0, 0, 0)" stroke="rgb(66, 66, 66)" stroke-width="1px" opacity="0.25"></line><line x1="162.43966579437256" y1="0" x2="162.43966579437256" y2="176.5999994277954" fill="rgb(0, 0, 0)" stroke="rgb(66, 66, 66)" stroke-width="1px" opacity="0.25"></line><line x1="185.64533233642578" y1="0" x2="185.64533233642578" y2="176.5999994277954" fill="rgb(0, 0, 0)" stroke="rgb(66, 66, 66)" stroke-width="1px" opacity="0.25"></line><line x1="208.850998878479" y1="0" x2="208.850998878479" y2="176.5999994277954" fill="rgb(0, 0, 0)" stroke="rgb(66, 66, 66)" stroke-width="1px" opacity="0.25"></line><line x1="232.05666542053223" y1="0" x2="232.05666542053223" y2="176.5999994277954" fill="rgb(0, 0, 0)" stroke="rgb(66, 66, 66)" stroke-width="1px" opacity="0.25"></line><line x1="255.26233196258545" y1="0" x2="255.26233196258545" y2="176.5999994277954" fill="rgb(0, 0, 0)" stroke="rgb(66, 66, 66)" stroke-width="1px" opacity="0.25"></line><line x1="278.4679985046387" y1="0" x2="278.4679985046387" y2="176.5999994277954" fill="rgb(0, 0, 0)" stroke="rgb(66, 66, 66)" stroke-width="1px" opacity="0.25"></line></g><g><line x1="0" y1="176.5999994277954" x2="278.4679985046387" y2="176.5999994277954" fill="rgb(0, 0, 0)" stroke="rgb(66, 66, 66)" stroke-width="1px" opacity="0.25"></line><line x1="0" y1="156.97777726915146" x2="278.4679985046387" y2="156.97777726915146" fill="rgb(0, 0, 0)" stroke="rgb(66, 66, 66)" stroke-width="1px" opacity="0.25"></line><line x1="0" y1="137.35555511050754" x2="278.4679985046387" y2="137.35555511050754" fill="rgb(0, 0, 0)" stroke="rgb(66, 66, 66)" stroke-width="1px" opacity="0.25"></line><line x1="0" y1="117.73333295186362" x2="278.4679985046387" y2="117.73333295186362" fill="rgb(0, 0, 0)" stroke="rgb(66, 66, 66)" stroke-width="1px" opacity="0.25"></line><line x1="0" y1="98.11111079321968" x2="278.4679985046387" y2="98.11111079321968" fill="rgb(0, 0, 0)" stroke="rgb(66, 66, 66)" stroke-width="1px" opacity="0.25"></line><line x1="0" y1="78.48888863457573" x2="278.4679985046387" y2="78.48888863457573" fill="rgb(0, 0, 0)" stroke="rgb(66, 66, 66)" stroke-width="1px" opacity="0.25"></line><line x1="0" y1="58.86666647593181" x2="278.4679985046387" y2="58.86666647593181" fill="rgb(0, 0, 0)" stroke="rgb(66, 66, 66)" stroke-width="1px" opacity="0.25"></line><line x1="0" y1="39.244444317287865" x2="278.4679985046387" y2="39.244444317287865" fill="rgb(0, 0, 0)" stroke="rgb(66, 66, 66)" stroke-width="1px" opacity="0.25"></line><line x1="0" y1="19.622222158643943" x2="278.4679985046387" y2="19.622222158643943" fill="rgb(0, 0, 0)" stroke="rgb(66, 66, 66)" stroke-width="1px" opacity="0.25"></line><line x1="0" y1="0" x2="278.4679985046387" y2="0" fill="rgb(0, 0, 0)" stroke="rgb(66, 66, 66)" stroke-width="1px" opacity="0.25"></line></g></g></g><g><g><line x1="0" y1="156.97777726915146" x2="278.4679985046387" y2="156.97777726915146" fill="rgb(0, 0, 0)" stroke="rgb(153, 153, 153)" stroke-width="1.5px"></line></g></g><g><g><line x1="23.205666542053223" y1="0" x2="23.205666542053223" y2="176.5999994277954" fill="rgb(0, 0, 0)" stroke="rgb(153, 153, 153)" stroke-width="1.5px"></line></g></g><g><g><g><g><g><path style="fill: none;" stroke="rgb(238, 51, 119)" stroke-width="2px" d="M24.156170643615724,156.52242772379037L25.106674745178225,156.53281946353383L26.057178846740722,154.87542461553352L27.007682948303223,153.10714323923784L27.958187049865725,122.58233050510383L28.908691151428222,106.79484538843435L29.859195252990723,91.64551642132163L30.809699354553224,86.80415922339495L31.760203456115725,77.2374148435518L32.71070755767822,69.75585286876493L33.66121165924072,63.55310308149084L34.61171576080322,60.06402763053235L35.56221986236572,55.61561380257893L36.51272396392822,51.73217377111752L37.463228065490725,48.73972293194457L38.41373216705322,46.352018457275854L39.36423626861573,45.13353568391811L40.31474037017822,44.585981553809184L41.26524447174072,46.74594896968438L42.21574857330322,51.21988650685568L43.166252674865724,50.44300841844053L44.11675677642822,48.48105983265679L45.067260877990726,48.395766554742345L46.01776497955322,47.146862784173976L46.96826908111572,51.593046762741345L47.91877318267822,50.986139958149195L48.869277284240724,49.09698328899148L49.81978138580322,48.42554510222169L50.770285487365726,48.35676646759939L51.72078958892822,47.24321182786115L52.67129369049072,45.95975716101551L53.62179779205322,44.52753952836918L54.57230189361572,43.1579522890724L55.52280599517822,41.88025301217741L56.473310096740725,41.2590531659574L57.42381419830322,40.425356910452386L58.37431829986572,39.319088481124794L59.32482240142822,38.265504735224035L60.27532650299072,37.37844344225136L61.22583060455322,36.5299149091189L62.176334706115725,35.700356494461346L63.12683880767822,36.21941062418137L64.07734290924071,36.03616056321285L65.02784701080323,35.97751475203902L65.97835111236571,35.47293924534396L66.92885521392822,34.8537044631514L67.87935931549072,34.86035549214752L68.82986341705322,34.240138331456585L69.78036751861572,33.636596044953194L70.73087162017822,36.164370799841926L71.68137572174072,37.1203550252079L72.63187982330322,37.14719776279121L73.58238392486571,36.75347354854471L74.53288802642822,36.248884827612784L75.48339212799073,35.6697894813069L76.43389622955323,35.23225901182636L77.38440033111571,34.74398377146284L78.33490443267821,35.88500379489861L79.28540853424072,35.288787185835346L80.23591263580323,34.78426333175164L81.18641673736573,34.44676261009574L82.13692083892822,34.4462713128693L83.08742494049072,34.061751924419255L84.03792904205322,33.520842796541395L84.98843314361574,34.72405683888657L85.93893724517822,34.1861708812561L86.88944134674072,33.66392066998942L87.83994544830323,33.238518918327614L88.79044954986571,32.775346902327115L89.74095365142821,32.29078784647204L90.69145775299073,32.3628981610117L91.64196185455323,32.42434149996575L92.59246595611573,32.1184510650696L93.54297005767822,32.294503492638256L94.49347415924072,34.01923700664852L95.44397826080322,33.55596271429443L96.39448236236574,33.14684733580238L97.34498646392822,32.744292468773565L98.29549056549072,32.798731344736005L99.24599466705322,33.00204364448865L100.19649876861571,32.57904501111626L101.14700287017821,32.17134606286096L102.09750697174073,32.11840869094544L103.04801107330323,33.20414745963726L103.99851517486573,32.820550990517845L104.94901927642822,32.47892700377272L105.89952337799072,32.167063433561715L106.85002747955322,31.856652116530377L107.80053158111573,31.578925895440054L108.75103568267822,31.780299620595585L109.70153978424072,31.420614195831593L110.65204388580322,31.065932765205044L111.60254798736571,31.798977410459482L112.55305208892823,31.46048350321173L113.50355619049073,31.452495950480074L114.45406029205323,31.13073583118856L115.40456439361573,30.96757082495885L116.35506849517822,30.842971204321774L117.30557259674072,30.793763633354466L118.25607669830323,32.119116635343836L119.20658079986573,31.948979012101624L120.15708490142822,31.63197252201051L121.10758900299072,31.495970218410427L122.05809310455322,31.219568901272435L123.00859720611572,31.425540264743322L123.95910130767822,31.35879898649431L124.90960540924073,31.19703177050328L125.86010951080323,30.908866637459496L126.81061361236573,30.943220907256904L127.76111771392821,30.697133188315984L128.71162181549073,30.415620476847934L129.66212591705323,30.147205728542282L130.61263001861573,29.94641503708534L131.56313412017823,30.01499707954382L132.51363822174073,30.355667253464L133.4641423233032,30.534288995919237L134.4146464248657,30.31658233261266L135.36515052642824,30.295341461798404L136.31565462799074,30.416838274714546L137.2661587295532,30.619320780692462L138.2166628311157,30.433440905639184L139.1671669326782,30.29001391824106L140.11767103424074,30.038027956118615L141.06817513580322,30.046866946601142L142.01867923736572,31.126594389849785L142.96918333892825,30.90425698452816L143.91968744049072,31.46608957231914L144.87019154205322,31.270785030437327L145.82069564361572,31.684250488937256L146.77119974517822,31.546062579636445L147.7217038467407,31.32669853552589L148.67220794830322,31.7960275092666L149.62271204986573,31.570821712991997L150.57321615142823,31.70582599739027L151.52372025299073,31.540020221321786L152.4742243545532,31.307636597742427L153.42472845611573,31.161712652691484L154.37523255767823,31.289881462001944L155.32573665924073,31.33867416727475L156.27624076080323,31.10147646857316L157.2267448623657,30.88381792027666L158.17724896392824,31.126205872866755L159.1277530654907,30.897239458790157L160.0782571670532,30.702652794519764L161.02876126861574,30.478993202512402L161.9792653701782,30.274166957948964L162.92976947174074,30.05738854790391L163.8802735733032,29.86870687305498L164.83077767486571,29.786040471181394L165.78128177642824,30.69874730381545L166.73178587799072,30.88901013149128L167.68228997955322,30.73577564216772L168.63279408111572,30.545907617280438L169.58329818267822,30.921637691070572L170.53380228424075,30.73437976800396L171.48430638580322,30.79335661956469L172.43481048736572,30.904215852630323L173.38531458892822,30.709956751875662L174.33581869049073,30.50490236845177L175.2863227920532,30.55845553568467L176.23682689361573,30.358175212383088L177.18733099517823,30.17736651989233L178.13783509674073,30.06576262812209L179.08833919830323,29.884119727059222L180.0388432998657,29.764624437624054L180.98934740142823,29.597480961438848L181.93985150299073,29.437900842316562L182.8903556045532,29.258255692692263L183.84085970611574,29.07385389055355L184.7913638076782,29.102928898507326L185.74186790924074,28.972200254659963L186.6923720108032,28.83971642030238L187.6428761123657,28.719665654005077L188.59338021392824,28.553066705516724L189.54388431549071,29.35264040154488L190.49438841705322,29.198121332085247L191.44489251861572,29.03265918484171L192.39539662017822,29.308413769134837L193.34590072174075,29.13333261019481L194.29640482330322,29.02590893803271L195.24690892486572,28.852170721360793L196.19741302642822,28.682361267694905L197.14791712799072,28.55020699671624L198.0984212295532,28.477466736061487L199.04892533111573,28.30953946294892L199.99942943267823,28.18139730428235L200.94993353424073,28.02409208788059L201.90043763580323,27.860655627359893L202.8509417373657,27.769167995475442L203.80144583892823,27.71006581963993L204.75194994049073,27.573043667926584L205.7024540420532,27.459702897723176L206.65295814361573,27.469814052430635L207.6034622451782,27.558269475555463L208.55396634674074,27.40301478338206L209.50447044830324,27.261063073099784L210.4549745498657,27.297486996581444L211.40547865142824,27.16398352287933L212.3559827529907,27.213312513864537L213.3064868545532,27.928854985314967L214.25699095611571,27.781171601641404L215.20749505767822,27.630569956067074L216.15799915924075,27.553208365333017L217.10850326080322,27.422224613868615L218.05900736236572,27.284880049353283L219.00951146392822,27.28436913780728L219.96001556549072,27.450258889071943L220.91051966705322,27.41647300631883L221.86102376861572,27.27142935105095L222.81152787017822,27.13933781365987L223.76203197174073,26.996849448425433L224.71253607330323,26.85628145233908L225.6630401748657,27.040691548400535L226.61354427642823,26.900503489559075L227.56404837799073,26.806608797460708L228.5145524795532,26.66872142159201L229.46505658111573,26.534781345415784L230.4155606826782,26.40993250166175L231.36606478424073,26.275871909657404L232.31656888580324,26.147547647845414L233.2670729873657,26.017194830418042L234.21757708892824,25.8974921817046L235.1680811904907,25.780012135619334L236.1185852920532,25.698295544976467L237.06908939361574,26.349568512582824L238.0195934951782,26.219480255736254L238.97009759674074,26.094839490456263L239.92060169830322,25.967925149339827L240.87110579986572,25.842091522520985L241.82160990142822,25.721802116121818L242.77211400299072,25.641690191700274L243.72261810455322,25.53335397866343L244.67312220611572,25.41853482087122L245.62362630767822,25.33805364254342L246.57413040924072,25.45509986275453L247.52463451080322,25.36329682506549L248.47513861236573,25.243579476971966L249.42564271392823,25.125937441837625L250.37614681549073,25.023453007242153L251.3266509170532,25.04400284545543L252.27715501861573,24.932826461837287L253.2276591201782,24.87755980341633L254.17816322174073,24.80466150114508L255.12866732330323,24.69491226978558L256.0791714248657,24.58472495102173" fill="none"></path></g></g></g></g><g opacity="0.2"><g><g><g><path style="fill: none;" stroke="rgb(238, 51, 119)" stroke-width="2px" d="M24.156170643615724,156.52242772379037L25.106674745178225,156.54320081153753L26.057178846740722,151.5656054466821L27.007682948303223,147.81290172725144L27.958187049865725,0.7880226003757329L28.908691151428222,28.093916568857413L29.859195252990723,1.0671488303469694L30.809699354553224,53.04994606207331L31.760203456115725,1.047060200159649L32.71070755767822,2.7575691663615096L33.66121165924072,1.8657350373745416L34.61171576080322,21.913710777487427L35.56221986236572,2.5803550742572057L36.51272396392822,1.5994367123808395L37.463228065490725,7.158261032222935L38.41373216705322,10.821643094921159L39.36423626861573,25.802699291548834L40.31474037017822,35.360891990529126L41.26524447174072,85.25809268877393L42.21574857330322,135.37973026280042L43.166252674865724,35.06756243469651L44.11675677642822,7.730342553840728L45.067260877990726,46.540743337938196L46.01776497955322,18.764258938496322L46.96826908111572,156.97777726915146L47.91877318267822,36.00914563061688L48.869277284240724,0.6365111012498108L49.81978138580322,30.548331744501958L50.770285487365726,46.45863913211902L51.72078958892822,15.430032870842297L52.67129369049072,8.047194613767873L53.62179779205322,0.8321202780994561L54.57230189361572,0.046885945909957975L55.52280599517822,0.4253793172828857L56.473310096740725,20.5038388753512L57.42381419830322,11.765312813678882L58.37431829986572,0.22167667740945876L59.32482240142822,0.014764722140467845L60.27532650299072,4.319392328042294L61.22583060455322,4.0908479028184495L62.176334706115725,3.189498106900624L63.12683880767822,57.059625419537745L64.07734290924071,28.50289375818577L65.02784701080323,33.510455001760214L65.97835111236571,13.764061342782794L66.92885521392822,7.619747486856953L67.87935931549072,35.15921973386512L68.82986341705322,5.778929087670052L69.78036751861572,5.365339092248382L70.73087162017822,156.97777726915146L71.68137572174072,83.72035810576908L72.63187982330322,38.48116993621604L73.58238392486571,16.813257162930313L74.53288802642822,10.215391253115127L75.48339212799073,5.24360030912435L76.43389622955323,11.829910812194612L77.38440033111571,8.165761507914953L78.33490443267821,99.07176742772268L79.28540853424072,1.7092364679692302L80.23591263580323,5.893341649351738L81.18641673736573,14.80237311759306L82.13692083892822,34.41721291516676L83.08742494049072,10.957472924650732L84.03792904205322,0.5118437008697807L84.98843314361574,109.27882194609307L85.93893724517822,0.35311825955734655L86.88944134674072,0.3254788494160507L87.83994544830323,5.684689365617533L88.79044954986571,2.3423791915443886L89.74095365142821,0.00033683776746329386L90.69145775299073,37.23547837590422L91.64196185455323,36.63337150995894L92.59246595611573,10.879523051296928L93.54297005767822,44.68202575405248L94.49347415924072,156.97777726915146L95.44397826080322,0.09874024888999954L96.39448236236574,3.22176903634454L97.34498646392822,2.926381027488537L98.29549056549072,36.8814618823003L99.24599466705322,48.43763586880307L100.19649876861571,0.0742727277256563L101.14700287017821,0.4662957494250133L102.09750697174073,27.952921893360077L103.04801107330323,119.63697159468242L103.99851517486573,1.9307634397042435L104.94901927642822,4.655275721831096L105.89952337799072,6.48110484036588L106.85002747955322,6.005770610847275L107.80053158111573,8.19572135600988L108.75103568267822,48.91921095362441L109.70153978424072,0.4790862279839754L110.65204388580322,0.2310519952705139L111.60254798736571,96.1961413021676L112.55305208892823,1.4157478498575298L113.50355619049073,30.736249792327886L114.45406029205323,1.985827058079849L115.40456439361573,16.039924431857845L116.35506849517822,19.33052065202073L117.30557259674072,26.20259121776032L118.25607669830323,156.97777726915146L119.20658079986573,15.76673964584047L120.15708490142822,1.1941085988666824L121.10758900299072,18.314692798188638L122.05809310455322,4.181550828312584L123.00859720611572,51.7596047843633L123.95910130767822,24.709829155014177L124.90960540924073,14.935798299927136L125.86010951080323,1.6828976258745332L126.81061361236573,34.458297766192615L127.76111771392821,5.297148157546371L128.71162181549073,1.1070641057913697L129.66212591705323,1.9620893520783298L130.61263001861573,8.68271391492458L131.56313412017823,37.33907470260849L132.51363822174073,67.04078343180076L133.4641423233032,49.92840497475841L134.4146464248657,6.484912978459148L135.36515052642824,27.951275130941372L136.31565462799074,43.932758210144335L137.2661587295532,53.324253640648905L138.2166628311157,9.425356982739277L139.1671669326782,13.952868268050633L140.11767103424074,1.1123693006289166L141.06817513580322,31.06931684811652L142.01867923736572,156.97777726915146L142.96918333892825,4.7927897403979856L143.91968744049072,97.94340768974389L144.87019154205322,7.989904123485145L145.82069564361572,81.3343256752219L146.77119974517822,14.830620707036722L147.7217038467407,4.599444861874055L148.67220794830322,89.39061490871129L149.62271204986573,3.7369249752610365L150.57321615142823,48.50961622838904L151.52372025299073,10.757410003986841L152.4742243545532,1.9769289270560204L153.42472845611573,12.616305363360926L154.37523255767823,47.690548413778785L155.32573665924073,37.62475991244062L156.27624076080323,0.33630444099815016L157.2267448623657,2.463715640668397L158.17724896392824,62.98577132479856L159.1277530654907,0.6031641622709447L160.0782571670532,4.788644764537274L161.02876126861574,0.49955847896201355L161.9792653701782,2.6419963857029884L162.92976947174074,0.625489020970031L163.8802735733032,4.088611674306684L164.83077767486571,18.419814251451136L165.78128177642824,156.97777726915146L166.73178587799072,57.37687981346492L167.68228997955322,9.271141424869006L168.63279408111572,3.7866740421944325L169.58329818267822,84.19791920719483L170.53380228424075,4.021805517093117L171.48430638580322,39.25698216752123L172.43481048736572,46.908195915822034L173.38531458892822,2.500094119554433L174.33581869049073,0.5523016593839873L175.2863227920532,38.42672385374747L176.23682689361573,0.7614498431647245L177.18733099517823,3.3041820101172323L178.13783509674073,13.383425308944629L179.08833919830323,2.578174985373357L180.0388432998657,11.699769798093303L180.98934740142823,4.187641977940892L181.93985150299073,5.0427140072511065L182.8903556045532,1.643702808988314L183.84085970611574,0.5722499405015249L184.7913638076782,33.621386906511454L185.74186790924074,8.545780005846108L186.6923720108032,8.027396038324742L187.6428761123657,9.759425195225662L188.59338021392824,2.1011097839941613L189.54388431549071,156.97777726915146L190.49438841705322,4.404630996419813L191.44489251861572,2.344540567218951L192.39539662017822,74.01708657336096L193.34590072174075,0.6005349563637985L194.29640482330322,11.429373280262144L195.24690892486572,0.24787517043437288L196.19741302642822,0.5832158811533876L197.14791712799072,6.571882618697238L198.0984212295532,16.31960270150355L199.04892533111573,0.1023518982855869L199.99942943267823,6.55053084688193L200.94993353424073,1.3398002898992L201.90043763580323,0.000748528372149367L202.8509417373657,12.098089814723311L203.80144583892823,17.537430293162448L204.75194994049073,3.8755617863861502L205.7024540420532,7.764204106075432L206.65295814361573,29.235197777860275L207.6034622451782,43.075300246647906L208.55396634674074,0.04005562451418323L209.50447044830324,2.1259047863213247L210.4549745498657,33.7769498154516L211.40547865142824,3.3053890121173026L212.3559827529907,36.069430234388165L213.3064868545532,156.97777726915146L214.25699095611571,1.0253996603908266L215.20749505767822,0.22293046243278344L216.15799915924075,13.41114892852779L217.10850326080322,3.3708758880749645L218.05900736236572,1.9535654852405955L219.00951146392822,27.189722365125455L219.96001556549072,58.316460695989825L220.91051966705322,21.10265221645907L221.86102376861572,0.0482426535844738L222.81152787017822,2.239961797026261L223.76203197174073,0.02217515302466031L224.71253607330323,0.13133865949673587L225.6630401748657,62.250108284054065L226.61354427642823,0.021117856699015995L227.56404837799073,8.727625617253032L228.5145524795532,0.007953113953998796L229.46505658111573,0.5293218383592606L230.4155606826782,2.0691195526897914L231.36606478424073,0.03132591237408633L232.31656888580324,0.9229074130354764L233.2670729873657,0.28920329318118654L234.21757708892824,2.1755883570221606L235.1680811904907,2.4044883332227744L236.1185852920532,9.373409113712727L237.06908939361574,156.97777726915146L238.0195934951782,0.023335372001476142L238.97009759674074,0.8962504463826022L239.92060169830322,0.208558717687696L240.87110579986572,0.20190617178029593L241.82160990142822,1.1156628254663463L242.77211400299072,9.190524919189464L243.72261810455322,3.200286272064112L244.67312220611572,1.6579997008961982L245.62362630767822,8.619631686362435L246.57413040924072,49.861823376056485L247.52463451080322,6.147766443042359L248.47513861236573,0.09069356888949187L249.42564271392823,0.31627195043872725L250.37614681549073,3.329622618165354L251.3266509170532,29.410156928243488L252.27715501861573,1.2241152299848643L253.2276591201782,13.048346583155855L254.17816322174073,9.14436878844233L255.12866732330323,1.0320989893214811L256.0791714248657,0.7411366544657554" fill="none"></path></g></g></g></g></g></g><g transform="translate(51, 176)" clip-path="url(#clip_1)"><clipPath id="clip_1"><rect width="278" height="23"></rect></clipPath><g><g><line x1="0" y1="0" x2="0" y2="5" style="visibility: inherit;" fill="rgb(0, 0, 0)" stroke="rgb(204, 204, 204)" stroke-width="1px"></line><line x1="23.205666542053223" y1="0" x2="23.205666542053223" y2="5" style="visibility: inherit;" fill="rgb(0, 0, 0)" stroke="rgb(204, 204, 204)" stroke-width="1px"></line><line x1="46.411333084106445" y1="0" x2="46.411333084106445" y2="5" style="visibility: inherit;" fill="rgb(0, 0, 0)" stroke="rgb(204, 204, 204)" stroke-width="1px"></line><line x1="69.61699962615967" y1="0" x2="69.61699962615967" y2="5" style="visibility: inherit;" fill="rgb(0, 0, 0)" stroke="rgb(204, 204, 204)" stroke-width="1px"></line><line x1="92.82266616821289" y1="0" x2="92.82266616821289" y2="5" style="visibility: inherit;" fill="rgb(0, 0, 0)" stroke="rgb(204, 204, 204)" stroke-width="1px"></line><line x1="116.02833271026611" y1="0" x2="116.02833271026611" y2="5" style="visibility: inherit;" fill="rgb(0, 0, 0)" stroke="rgb(204, 204, 204)" stroke-width="1px"></line><line x1="139.23399925231934" y1="0" x2="139.23399925231934" y2="5" style="visibility: inherit;" fill="rgb(0, 0, 0)" stroke="rgb(204, 204, 204)" stroke-width="1px"></line><line x1="162.43966579437256" y1="0" x2="162.43966579437256" y2="5" style="visibility: inherit;" fill="rgb(0, 0, 0)" stroke="rgb(204, 204, 204)" stroke-width="1px"></line><line x1="185.64533233642578" y1="0" x2="185.64533233642578" y2="5" style="visibility: inherit;" fill="rgb(0, 0, 0)" stroke="rgb(204, 204, 204)" stroke-width="1px"></line><line x1="208.850998878479" y1="0" x2="208.850998878479" y2="5" style="visibility: inherit;" fill="rgb(0, 0, 0)" stroke="rgb(204, 204, 204)" stroke-width="1px"></line><line x1="232.05666542053223" y1="0" x2="232.05666542053223" y2="5" style="visibility: inherit;" fill="rgb(0, 0, 0)" stroke="rgb(204, 204, 204)" stroke-width="1px"></line><line x1="255.26233196258545" y1="0" x2="255.26233196258545" y2="5" style="visibility: inherit;" fill="rgb(0, 0, 0)" stroke="rgb(204, 204, 204)" stroke-width="1px"></line><line x1="278.4679985046387" y1="0" x2="278.4679985046387" y2="5" style="visibility: inherit;" fill="rgb(0, 0, 0)" stroke="rgb(204, 204, 204)" stroke-width="1px"></line></g><g transform="translate(0, 8)"><text style="text-anchor: middle; visibility: hidden; font-family: Roboto, sans-serif; font-size: 12px; font-weight: 200;" x="0" y="0" dx="0em" dy="0.95em" fill="rgb(33, 33, 33)" stroke="none" stroke-width="1px">-50k</text><text style="text-anchor: middle; visibility: inherit; font-family: Roboto, sans-serif; font-size: 12px; font-weight: 200;" x="23.205666542053223" y="0" dx="0em" dy="0.95em" fill="rgb(33, 33, 33)" stroke="none" stroke-width="1px">0</text><text style="text-anchor: middle; visibility: hidden; font-family: Roboto, sans-serif; font-size: 12px; font-weight: 200;" x="46.411333084106445" y="0" dx="0em" dy="0.95em" fill="rgb(33, 33, 33)" stroke="none" stroke-width="1px">50k</text><text style="text-anchor: middle; visibility: inherit; font-family: Roboto, sans-serif; font-size: 12px; font-weight: 200;" x="69.61699962615967" y="0" dx="0em" dy="0.95em" fill="rgb(33, 33, 33)" stroke="none" stroke-width="1px">100k</text><text style="text-anchor: middle; visibility: hidden; font-family: Roboto, sans-serif; font-size: 12px; font-weight: 200;" x="92.82266616821289" y="0" dx="0em" dy="0.95em" fill="rgb(33, 33, 33)" stroke="none" stroke-width="1px">150k</text><text style="text-anchor: middle; visibility: inherit; font-family: Roboto, sans-serif; font-size: 12px; font-weight: 200;" x="116.02833271026611" y="0" dx="0em" dy="0.95em" fill="rgb(33, 33, 33)" stroke="none" stroke-width="1px">200k</text><text style="text-anchor: middle; visibility: hidden; font-family: Roboto, sans-serif; font-size: 12px; font-weight: 200;" x="139.23399925231934" y="0" dx="0em" dy="0.95em" fill="rgb(33, 33, 33)" stroke="none" stroke-width="1px">250k</text><text style="text-anchor: middle; visibility: inherit; font-family: Roboto, sans-serif; font-size: 12px; font-weight: 200;" x="162.43966579437256" y="0" dx="0em" dy="0.95em" fill="rgb(33, 33, 33)" stroke="none" stroke-width="1px">300k</text><text style="text-anchor: middle; visibility: hidden; font-family: Roboto, sans-serif; font-size: 12px; font-weight: 200;" x="185.64533233642578" y="0" dx="0em" dy="0.95em" fill="rgb(33, 33, 33)" stroke="none" stroke-width="1px">350k</text><text style="text-anchor: middle; visibility: inherit; font-family: Roboto, sans-serif; font-size: 12px; font-weight: 200;" x="208.850998878479" y="0" dx="0em" dy="0.95em" fill="rgb(33, 33, 33)" stroke="none" stroke-width="1px">400k</text><text style="text-anchor: middle; visibility: hidden; font-family: Roboto, sans-serif; font-size: 12px; font-weight: 200;" x="232.05666542053223" y="0" dx="0em" dy="0.95em" fill="rgb(33, 33, 33)" stroke="none" stroke-width="1px">450k</text><text style="text-anchor: middle; visibility: inherit; font-family: Roboto, sans-serif; font-size: 12px; font-weight: 200;" x="255.26233196258545" y="0" dx="0em" dy="0.95em" fill="rgb(33, 33, 33)" stroke="none" stroke-width="1px">500k</text><text style="text-anchor: middle; visibility: hidden; font-family: Roboto, sans-serif; font-size: 12px; font-weight: 200;" x="278.4679985046387" y="0" dx="0em" dy="0.95em" fill="rgb(33, 33, 33)" stroke="none" stroke-width="1px">550k</text></g><line x1="0" y1="0" x2="278.4679985046387" y2="0" fill="rgb(0, 0, 0)" stroke="rgb(204, 204, 204)" stroke-width="1px"></line></g></g></g></g></svg>