<svg viewBox="0 0 330 200" xmlns="http://www.w3.org/2000/svg"><g><g><g><g><g><line x1="41.149001121520996" y1="176.5999994277954" x2="36.149001121520996" y2="176.5999994277954" style="visibility: inherit;" fill="rgb(0, 0, 0)" stroke="rgb(204, 204, 204)" stroke-width="1px"></line><line x1="41.149001121520996" y1="160.54545402526855" x2="36.149001121520996" y2="160.54545402526855" style="visibility: inherit;" fill="rgb(0, 0, 0)" stroke="rgb(204, 204, 204)" stroke-width="1px"></line><line x1="41.149001121520996" y1="144.4909086227417" x2="36.149001121520996" y2="144.4909086227417" style="visibility: inherit;" fill="rgb(0, 0, 0)" stroke="rgb(204, 204, 204)" stroke-width="1px"></line><line x1="41.149001121520996" y1="128.43636322021482" x2="36.149001121520996" y2="128.43636322021482" style="visibility: inherit;" fill="rgb(0, 0, 0)" stroke="rgb(204, 204, 204)" stroke-width="1px"></line><line x1="41.149001121520996" y1="112.38181781768796" x2="36.149001121520996" y2="112.38181781768796" style="visibility: inherit;" fill="rgb(0, 0, 0)" stroke="rgb(204, 204, 204)" stroke-width="1px"></line><line x1="41.149001121520996" y1="96.32727241516112" x2="36.149001121520996" y2="96.32727241516112" style="visibility: inherit;" fill="rgb(0, 0, 0)" stroke="rgb(204, 204, 204)" stroke-width="1px"></line><line x1="41.149001121520996" y1="80.27272701263426" x2="36.149001121520996" y2="80.27272701263426" style="visibility: inherit;" fill="rgb(0, 0, 0)" stroke="rgb(204, 204, 204)" stroke-width="1px"></line><line x1="41.149001121520996" y1="64.21818161010741" x2="36.149001121520996" y2="64.21818161010741" style="visibility: inherit;" fill="rgb(0, 0, 0)" stroke="rgb(204, 204, 204)" stroke-width="1px"></line><line x1="41.149001121520996" y1="48.163636207580545" x2="36.149001121520996" y2="48.163636207580545" style="visibility: inherit;" fill="rgb(0, 0, 0)" stroke="rgb(204, 204, 204)" stroke-width="1px"></line><line x1="41.149001121520996" y1="32.10909080505368" x2="36.149001121520996" y2="32.10909080505368" style="visibility: inherit;" fill="rgb(0, 0, 0)" stroke="rgb(204, 204, 204)" stroke-width="1px"></line><line x1="41.149001121520996" y1="16.05454540252684" x2="36.149001121520996" y2="16.05454540252684" style="visibility: inherit;" fill="rgb(0, 0, 0)" stroke="rgb(204, 204, 204)" stroke-width="1px"></line><line x1="41.149001121520996" y1="0" x2="36.149001121520996" y2="0" style="visibility: inherit;" fill="rgb(0, 0, 0)" stroke="rgb(204, 204, 204)" stroke-width="1px"></line></g><g transform="translate(31.149001121520996, 0)"><text style="text-anchor: end; visibility: hidden; font-family: Roboto, sans-serif; font-size: 12px; font-weight: 200;" x="0" y="176.5999994277954" dx="0em" dy="0.3em" fill="rgb(33, 33, 33)" stroke="none" stroke-width="1px">0.2</text><text style="text-anchor: end; visibility: inherit; font-family: Roboto, sans-serif; font-size: 12px; font-weight: 200;" x="0" y="160.54545402526855" dx="0em" dy="0.3em" fill="rgb(33, 33, 33)" stroke="none" stroke-width="1px">0.4</text><text style="text-anchor: end; visibility: hidden; font-family: Roboto, sans-serif; font-size: 12px; font-weight: 200;" x="0" y="144.4909086227417" dx="0em" dy="0.3em" fill="rgb(33, 33, 33)" stroke="none" stroke-width="1px">0.6</text><text style="text-anchor: end; visibility: inherit; font-family: Roboto, sans-serif; font-size: 12px; font-weight: 200;" x="0" y="128.43636322021482" dx="0em" dy="0.3em" fill="rgb(33, 33, 33)" stroke="none" stroke-width="1px">0.8</text><text style="text-anchor: end; visibility: hidden; font-family: Roboto, sans-serif; font-size: 12px; font-weight: 200;" x="0" y="112.38181781768796" dx="0em" dy="0.3em" fill="rgb(33, 33, 33)" stroke="none" stroke-width="1px">1</text><text style="text-anchor: end; visibility: inherit; font-family: Roboto, sans-serif; font-size: 12px; font-weight: 200;" x="0" y="96.32727241516112" dx="0em" dy="0.3em" fill="rgb(33, 33, 33)" stroke="none" stroke-width="1px">1.2</text><text style="text-anchor: end; visibility: hidden; font-family: Roboto, sans-serif; font-size: 12px; font-weight: 200;" x="0" y="80.27272701263426" dx="0em" dy="0.3em" fill="rgb(33, 33, 33)" stroke="none" stroke-width="1px">1.4</text><text style="text-anchor: end; visibility: inherit; font-family: Roboto, sans-serif; font-size: 12px; font-weight: 200;" x="0" y="64.21818161010741" dx="0em" dy="0.3em" fill="rgb(33, 33, 33)" stroke="none" stroke-width="1px">1.6</text><text style="text-anchor: end; visibility: hidden; font-family: Roboto, sans-serif; font-size: 12px; font-weight: 200;" x="0" y="48.163636207580545" dx="0em" dy="0.3em" fill="rgb(33, 33, 33)" stroke="none" stroke-width="1px">1.8</text><text style="text-anchor: end; visibility: inherit; font-family: Roboto, sans-serif; font-size: 12px; font-weight: 200;" x="0" y="32.10909080505368" dx="0em" dy="0.3em" fill="rgb(33, 33, 33)" stroke="none" stroke-width="1px">2</text><text style="text-anchor: end; visibility: hidden; font-family: Roboto, sans-serif; font-size: 12px; font-weight: 200;" x="0" y="16.05454540252684" dx="0em" dy="0.3em" fill="rgb(33, 33, 33)" stroke="none" stroke-width="1px">2.2</text><text style="text-anchor: end; visibility: hidden; font-family: Roboto, sans-serif; font-size: 12px; font-weight: 200;" x="0" y="0" dx="0em" dy="0.3em" fill="rgb(33, 33, 33)" stroke="none" stroke-width="1px">2.4</text></g><line x1="41.149001121520996" y1="0" x2="41.149001121520996" y2="176.5999994277954" fill="rgb(0, 0, 0)" stroke="rgb(204, 204, 204)" stroke-width="1px"></line></g></g><g transform="translate(41, 0)" clip-path="url(#clip_0)"><clipPath id="clip_0"><rect width="288" height="176"></rect></clipPath><g><g><g><line x1="0" y1="0" x2="0" y2="176.5999994277954" fill="rgb(0, 0, 0)" stroke="rgb(66, 66, 66)" stroke-width="1px" opacity="0.25"></line><line x1="24.07091657320658" y1="0" x2="24.07091657320658" y2="176.5999994277954" fill="rgb(0, 0, 0)" stroke="rgb(66, 66, 66)" stroke-width="1px" opacity="0.25"></line><line x1="48.14183314641316" y1="0" x2="48.14183314641316" y2="176.5999994277954" fill="rgb(0, 0, 0)" stroke="rgb(66, 66, 66)" stroke-width="1px" opacity="0.25"></line><line x1="72.21274971961975" y1="0" x2="72.21274971961975" y2="176.5999994277954" fill="rgb(0, 0, 0)" stroke="rgb(66, 66, 66)" stroke-width="1px" opacity="0.25"></line><line x1="96.28366629282633" y1="0" x2="96.28366629282633" y2="176.5999994277954" fill="rgb(0, 0, 0)" stroke="rgb(66, 66, 66)" stroke-width="1px" opacity="0.25"></line><line x1="120.35458286603293" y1="0" x2="120.35458286603293" y2="176.5999994277954" fill="rgb(0, 0, 0)" stroke="rgb(66, 66, 66)" stroke-width="1px" opacity="0.25"></line><line x1="144.4254994392395" y1="0" x2="144.4254994392395" y2="176.5999994277954" fill="rgb(0, 0, 0)" stroke="rgb(66, 66, 66)" stroke-width="1px" opacity="0.25"></line><line x1="168.4964160124461" y1="0" x2="168.4964160124461" y2="176.5999994277954" fill="rgb(0, 0, 0)" stroke="rgb(66, 66, 66)" stroke-width="1px" opacity="0.25"></line><line x1="192.56733258565265" y1="0" x2="192.56733258565265" y2="176.5999994277954" fill="rgb(0, 0, 0)" stroke="rgb(66, 66, 66)" stroke-width="1px" opacity="0.25"></line><line x1="216.63824915885925" y1="0" x2="216.63824915885925" y2="176.5999994277954" fill="rgb(0, 0, 0)" stroke="rgb(66, 66, 66)" stroke-width="1px" opacity="0.25"></line><line x1="240.70916573206586" y1="0" x2="240.70916573206586" y2="176.5999994277954" fill="rgb(0, 0, 0)" stroke="rgb(66, 66, 66)" stroke-width="1px" opacity="0.25"></line><line x1="264.7800823052724" y1="0" x2="264.7800823052724" y2="176.5999994277954" fill="rgb(0, 0, 0)" stroke="rgb(66, 66, 66)" stroke-width="1px" opacity="0.25"></line><line x1="288.850998878479" y1="0" x2="288.850998878479" y2="176.5999994277954" fill="rgb(0, 0, 0)" stroke="rgb(66, 66, 66)" stroke-width="1px" opacity="0.25"></line></g><g><line x1="0" y1="176.5999994277954" x2="288.850998878479" y2="176.5999994277954" fill="rgb(0, 0, 0)" stroke="rgb(66, 66, 66)" stroke-width="1px" opacity="0.25"></line><line x1="0" y1="160.54545402526855" x2="288.850998878479" y2="160.54545402526855" fill="rgb(0, 0, 0)" stroke="rgb(66, 66, 66)" stroke-width="1px" opacity="0.25"></line><line x1="0" y1="144.4909086227417" x2="288.850998878479" y2="144.4909086227417" fill="rgb(0, 0, 0)" stroke="rgb(66, 66, 66)" stroke-width="1px" opacity="0.25"></line><line x1="0" y1="128.43636322021482" x2="288.850998878479" y2="128.43636322021482" fill="rgb(0, 0, 0)" stroke="rgb(66, 66, 66)" stroke-width="1px" opacity="0.25"></line><line x1="0" y1="112.38181781768796" x2="288.850998878479" y2="112.38181781768796" fill="rgb(0, 0, 0)" stroke="rgb(66, 66, 66)" stroke-width="1px" opacity="0.25"></line><line x1="0" y1="96.32727241516112" x2="288.850998878479" y2="96.32727241516112" fill="rgb(0, 0, 0)" stroke="rgb(66, 66, 66)" stroke-width="1px" opacity="0.25"></line><line x1="0" y1="80.27272701263426" x2="288.850998878479" y2="80.27272701263426" fill="rgb(0, 0, 0)" stroke="rgb(66, 66, 66)" stroke-width="1px" opacity="0.25"></line><line x1="0" y1="64.21818161010741" x2="288.850998878479" y2="64.21818161010741" fill="rgb(0, 0, 0)" stroke="rgb(66, 66, 66)" stroke-width="1px" opacity="0.25"></line><line x1="0" y1="48.163636207580545" x2="288.850998878479" y2="48.163636207580545" fill="rgb(0, 0, 0)" stroke="rgb(66, 66, 66)" stroke-width="1px" opacity="0.25"></line><line x1="0" y1="32.10909080505368" x2="288.850998878479" y2="32.10909080505368" fill="rgb(0, 0, 0)" stroke="rgb(66, 66, 66)" stroke-width="1px" opacity="0.25"></line><line x1="0" y1="16.05454540252684" x2="288.850998878479" y2="16.05454540252684" fill="rgb(0, 0, 0)" stroke="rgb(66, 66, 66)" stroke-width="1px" opacity="0.25"></line><line x1="0" y1="0" x2="288.850998878479" y2="0" fill="rgb(0, 0, 0)" stroke="rgb(66, 66, 66)" stroke-width="1px" opacity="0.25"></line></g></g></g><g><g><line x1="0" y1="192.65454483032224" x2="288.850998878479" y2="192.65454483032224" fill="rgb(0, 0, 0)" stroke="rgb(153, 153, 153)" stroke-width="1.5px"></line></g></g><g><g><line x1="24.07091657320658" y1="0" x2="24.07091657320658" y2="176.5999994277954" fill="rgb(0, 0, 0)" stroke="rgb(153, 153, 153)" stroke-width="1.5px"></line></g></g><g><g><g><g><g><path style="fill: none;" stroke="rgb(238, 51, 119)" stroke-width="2px" d="M25.056861316045126,17.572435902965907L26.042806058883667,100.13772757418872L27.028750801722207,107.8144015177568L28.01469554456075,124.03170164455227L29.000640287399293,137.32793571908473L29.986585030237833,146.1310265924468L30.972529773076374,151.57223474122088L31.95847451591492,153.73696088161887L32.94441925875346,157.07336527590073L33.930364001592,160.64752413125288L34.916308744430545,160.61727978424062L35.902253487269085,161.37911068433093L36.888198230107626,163.1200405982284L37.87414297294616,163.51493641397042L38.86008771578471,165.47121173961872L39.84603245862325,162.75959170077692L40.8319772014618,163.9444726128918L41.81792194430034,163.84482606488194L42.80386668713887,163.6867630184041L43.78981142997742,161.0919569407029L44.77575617281596,159.4060435104363L45.7617009156545,158.4071347384375L46.74764565849305,158.03153007220337L47.73359040133158,157.44278675982414L48.71953514417012,158.8682320028541L49.70547988700867,159.94893642557466L50.69142462984721,161.01832667119962L51.677369372685746,161.72163821742006L52.663314115524294,160.72620113175074L53.649258858362835,161.80599105868703L54.635203601201376,162.81611206377258L55.621148344039916,163.76309560846053L56.60709308687846,164.65268146190814L57.593037829717,165.48993412631347L58.578982572555546,164.78502526493477L59.56492731539408,165.26899499833195L60.55087205823262,165.07748980581275L61.53681680107117,165.81671476008964L62.52276154390971,166.1588907127909L63.50870628674825,165.58276299105526L64.49465102958679,165.44658976855789L65.48059577242533,166.1077735143869L66.46654051526387,166.66551602096266L67.45248525810241,166.9374537133885L68.43843000094095,166.4183041277779L69.4243747437795,166.3110266048325L70.41031948661805,165.3807319923952L71.39626422945658,165.51272847759432L72.38220897229513,165.4276416249524L73.36815371513367,165.98563432368644L74.35409845797221,164.21530562379453L75.34004320081074,164.35814812392132L76.32598794364928,164.81000748708726L77.31193268648784,163.64459904121836L78.29787742932638,163.62269671307988L79.28382217216492,164.0721210326104L80.26976691500346,164.30300390891244L81.255711657842,163.94315330100488L82.24165640068054,163.99499711205584L83.2276011435191,164.48689050598878L84.21354588635762,164.24494510357772L85.19949062919616,163.17216738645385L86.1854353720347,163.05221919236186L87.17138011487324,163.24371504442695L88.1573248577118,162.2845070102613L89.14326960055034,162.35184603330765L90.12921434338888,161.62124431153475L91.11515908622742,161.3650670958974L92.10110382906595,161.14221738175033L93.08704857190449,161.20430502174938L94.07299331474304,161.15395048942906L95.05893805758159,160.70817767313272L96.04488280042013,160.43886187930102L97.03082754325867,160.30885414769529L98.01677228609721,160.7562894376455L99.00271702893575,161.1919446640387L99.9886617717743,161.27907555518524L100.97460651461284,161.69701575945464L101.96055125745137,162.10436989865835L102.94649600028991,161.81815412382193L103.93244074312845,162.21428634789376L104.918385485967,162.60075158843642L105.90433022880555,162.49521603714237L106.89027497164409,161.50978628514366L107.87621971448263,161.6512712115342L108.86216445732117,161.0996940946185L109.8481092001597,161.11860841902862L110.83405394299824,161.09845653940226L111.8199986858368,161.23531513275495L112.80594342867533,161.60018844968627L113.79188817151388,161.8760661829341L114.77783291435242,161.3691268308652L115.76377765719096,160.79579149935083L116.74972240002951,160.66648686486548L117.73566714286805,160.3747539229049L118.72161188570658,160.14970414274745L119.70755662854512,160.05254482478747L120.69350137138366,159.9729698503413L121.6794461142222,159.84765323299223L122.66539085706076,160.1922350148807L123.6513355998993,159.90821832563432L124.63728034273784,160.12065177854612L125.62322508557638,160.14372668719005L126.60916982841492,160.29815696186594L127.59511457125345,159.12049823465483L128.58105931409202,159.04971851923742L129.56700405693056,158.90812790770352L130.5529487997691,158.73156279724319L131.5388935426076,158.32431564655542L132.52483828544615,158.63285171606225L133.5107830282847,158.8977088015965L134.49672777112326,158.4999531203775L135.4826725139618,158.09311708579838L136.46861725680034,158.04356509036498L137.45456199963888,157.5159482300903L138.44050674247742,157.18133058987829L139.42645148531597,156.72428321918474L140.4123962281545,156.40304561470683L141.39834097099305,156.39867636091435L142.3842857138316,156.25732050970876L143.37023045667013,156.1670560846236L144.35617519950867,156.067379939779L145.3421199423472,155.9899841865296L146.32806468518575,155.85861227605858L147.3140094280243,156.1716138773061L148.29995417086286,156.31102861305072L149.28589891370137,155.9420505671132L150.27184365653991,156.10475044635604L151.25778839937846,155.6805147696366L152.243733142217,155.42174582203L153.22967788505554,155.44039834354356L154.21562262789408,154.74085598953178L155.20156737073265,154.99784326899118L156.18751211357116,154.63647420864442L157.17345685640973,154.54578373916132L158.15940159924824,154.6917181277481L159.14534634208678,154.7731655206835L160.13129108492535,154.61199118271415L161.11723582776386,154.45133268726283L162.10318057060243,154.74362369867092L163.08912531344095,155.0317620104505L164.07507005627951,154.80937147852094L165.06101479911803,155.0932643393515L166.04695954195657,155.25256130430296L167.03290428479514,155.26345725061933L168.01884902763365,155.15844045033484L169.00479377047222,154.9318968188579L169.99073851331073,154.69524071994L170.9766832561493,154.54593665440007L171.96262799898784,154.81939771358498L172.94857274182638,154.65592618608554L173.93451748466492,154.47869983219826L174.92046222750344,154.28668490425693L175.906406970342,153.7941715620875L176.89235171318055,153.76725502912308L177.8782964560191,153.45261015300392L178.86424119885763,153.18595016968962L179.85018594169617,153.37078952702507L180.8361306845347,153.2469083879071L181.82207542737325,152.86679664314502L182.8080201702118,152.62774927679214L183.79396491305036,152.55818626643466L184.77990965588887,152.53016079837624L185.7658543987274,152.33842376686886L186.75179914156595,152.15924069486468L187.7377438844045,152.16599058567274L188.72368862724306,151.9032590591324L189.70963337008158,151.90461179236877L190.69557811292015,152.13233277660007L191.68152285575866,151.8974686049345L192.6674675985972,151.99110437744022L193.65341234143574,151.90451778168344L194.63935708427428,151.77288634193482L195.62530182711285,151.733852014262L196.61124656995136,151.988624709138L197.59719131278993,152.21185508706165L198.58313605562844,151.83805929868504L199.569080798467,151.60060774446126L200.55502554130555,151.6959360159744L201.54097028414407,151.76365815085626L202.52691502698264,151.46842099116986L203.51285976982115,151.71582289291234L204.49880451265972,151.4752237405472L205.48474925549823,151.21306974878766L206.4706939983368,150.99299391630845L207.45663874117534,151.235308712085L208.44258348401388,151.23860694937798L209.42852822685242,151.4801510849673L210.41447296969093,151.28046360701975L211.4004177125295,150.94286197264626L212.38636245536804,150.70814576377862L213.37230719820658,150.6821121952023L214.35825194104513,150.60242964969794L215.34419668388367,150.2871969525566L216.3301414267222,150.1880475941932L217.31608616956078,150.17505893905766L218.3020309123993,150.1350722876689L219.28797565523783,150.05315815183386L220.27392039807637,149.9801182947837L221.2598651409149,150.21543205875253L222.24580988375345,150.0172812560414L223.231754626592,149.9373520823663L224.21769936943056,149.82765721443818L225.20364411226907,149.73858316139714L226.18958885510764,149.7756756000528L227.17553359794616,149.6716582753826L228.1614783407847,149.37904025632653L229.14742308362327,149.34669379994406L230.13336782646178,149.08269317299624L231.11931256930035,149.08397641319172L232.10525731213886,149.0312064733623L233.09120205497743,149.07168133116758L234.07714679781594,148.69450148755155L235.0630915406545,148.65284902583056L236.04903628349305,148.43476146696338L237.03498102633156,148.54042641463414L238.02092576917013,148.59916669282612L239.00687051200865,148.6999348611378L239.99281525484722,148.71079692062224L240.97875999768576,148.82078915960057L241.9647047405243,148.90339162595387L242.95064948336284,148.85677385023718L243.93659422620135,148.9166072645775L244.92253896903992,148.9426040306193L245.90848371187846,149.15945745684067L246.894428454717,148.94454884891587L247.88037319755554,148.96620240362745L248.86631794039408,148.77282627924794L249.85226268323262,148.67431591776196L250.83820742607116,148.60524896994448L251.8241521689097,148.55767106039727L252.81009691174827,148.5999959329836L253.7960416545868,148.57595455189295L254.78198639742533,148.3953609273107L255.76793114026387,148.10018933669605L256.7538758831024,147.98001333233432L257.739820625941,148.01167109574308L258.7257653687795,148.2006513109327L259.71171011161806,148.00676892840778L260.6976548544566,147.80868634617786L261.68359959729514,147.81593006869406L262.66954434013365,147.8805871947126L263.6554890829722,148.08804323427196L264.64143382581074,148.2937904814237L265.6273785686493,148.25298574688622" fill="none"></path></g></g></g></g><g opacity="0.2"><g><g><g><path style="fill: none;" stroke="rgb(238, 51, 119)" stroke-width="2px" d="M25.056861316045126,17.572435902965907L26.042806058883667,182.620453953743L27.028750801722207,123.14472705973382L28.01469554456075,172.5863630771637L29.000640287399293,190.3800425723402L30.972529773076374,184.10540851469506L31.95847451591492,168.82955260572882L32.94441925875346,183.6447697099637L33.930364001592,192.65454483032224L34.916308744430545,160.31649477285097L35.902253487269085,169.70913697221317L36.888198230107626,183.8759036951406L37.87414297294616,168.6127898469624L38.86008771578471,192.65454483032224L39.84603245862325,122.40917193891799L40.8319772014618,182.74222630900246L41.81792194430034,162.16599966304398L42.80386668713887,160.86850441047727L43.78981142997742,112.28070907192044L44.77575617281596,126.039584516575L45.7617009156545,137.65926741407708L46.74764565849305,149.86259351311998L47.73359040133158,144.06299834390052L48.71953514417012,192.65454483032224L51.677369372685746,180.44748791808078L52.663314115524294,133.25449638756265L53.649258858362835,192.65454483032224L57.593037829717,192.65454483032224L58.578982572555546,141.23296780341389L59.56492731539408,181.9064619523663L60.55087205823262,158.30936990292014L61.53681680107117,192.65454483032224L62.52276154390971,178.91112373210103L63.50870628674825,143.55752159984615L64.49465102958679,160.10988499338222L65.48059577242533,192.65454483032224L67.45248525810241,178.37708635106614L68.43843000094095,144.08239043866655L69.4243747437795,161.59295919577443L70.41031948661805,123.57790808409543L71.39626422945658,171.56992879839262L72.38220897229513,161.44198506346567L73.36815371513367,192.65454483032224L74.35409845797221,77.91961090460185L75.34004320081074,171.4568249917866L76.32598794364928,187.6944863973879L77.31193268648784,103.51710901098227L78.29787742932638,162.4719287376406L79.28382217216492,188.1106398300262L80.26976691500346,176.8706213015761L81.255711657842,144.01554919418555L82.24165640068054,166.91489544451952L83.2276011435191,192.65454483032224L84.21354588635762,150.16239826467182L85.19949062919616,99.72136841888027L86.1854353720347,155.84499733291264L87.17138011487324,174.92975634389975L88.1573248577118,102.84908890561734L89.14326960055034,166.58747382373758L90.12921434338888,114.98244461387354L91.11515908622742,144.77213275233095L92.10110382906595,146.49975643699162L93.08704857190449,165.34175302403622L94.07299331474304,157.75143450428527L95.05893805758159,130.17156958234534L96.04488280042013,141.7394253960809L97.03082754325867,151.16116052221952L98.01677228609721,192.65454483032224L99.00271702893575,192.65454483032224L99.9886617717743,167.65233570852257L100.97460651461284,192.65454483032224L101.96055125745137,192.65454483032224L102.94649600028991,140.0884801497919L103.93244074312845,192.65454483032224L104.918385485967,192.65454483032224L105.90433022880555,154.19093250957272L106.89027497164409,83.06230065785721L107.87621971448263,173.04459641048038L108.86216445732117,116.1763574683179L109.8481092001597,162.67644524263116L110.83405394299824,159.4202192337559L111.8199986858368,172.75814675009943L112.80594342867533,192.65454483032224L113.79188817151388,185.60813318173172L114.77783291435242,117.29742437092095L115.76377765719096,110.42891473752672L116.74972240002951,149.18940122555864L117.73566714286805,134.21497684145305L118.72161188570658,139.76478096911063L119.70755662854512,151.16362938994695L120.69350137138366,152.62059627304706L121.6794461142222,148.15534277183798L122.66539085706076,192.65454483032224L123.6513355998993,132.89463977778024L124.63728034273784,180.51777529043133L125.62322508557638,162.38013566137948L126.60916982841492,175.40477295390423L127.59511457125345,42.85876098314256L128.58105931409202,151.9984272518526L129.56700405693056,144.67509572446272L130.5529487997691,140.82416924017434L131.5388935426076,116.6554039307321L132.52483828544615,190.47845368538373L133.5107830282847,186.4722321017048L134.49672777112326,116.73328331057586L135.4826725139618,115.00924809644924L136.46861725680034,152.75176204800783L137.45456199963888,100.69945151689704L138.44050674247742,120.84973269124741L139.42645148531597,106.69273318703526L140.4123962281545,120.95241557942255L141.39834097099305,155.91261847165637L142.3842857138316,140.40669136286974L143.37023045667013,145.96539968207918L144.35617519950867,144.71370288278177L145.3421199423472,147.1056672943531L146.32806468518575,140.66217132638496L147.3140094280243,192.65454483032224L148.29995417086286,172.6839969872974L149.28589891370137,112.28372338716905L150.27184365653991,175.49905882102965L151.25778839937846,104.73712200777764L152.243733142217,124.12061879841116L153.22967788505554,157.71301633874768L154.21562262789408,68.89520080524855L155.20156737073265,186.7597140454427L156.18751211357116,109.65738400345013L157.17345685640973,143.17835901859053L158.15940159924824,173.11108359253535L159.14534634208678,165.12427735579035L160.13129108492535,133.9878888568033L161.11723582776386,133.75329857642367L162.10318057060243,192.65454483032224L163.08912531344095,192.65454483032224L164.07507005627951,125.57827466785379L165.06101479911803,192.65454483032224L166.04695954195657,176.46687650100534L167.03290428479514,156.72395491321038L168.01884902763365,140.99110488941855L169.00479377047222,124.17417791728876L169.99073851331073,122.36026826247988L170.9766832561493,134.01735737682895L171.96262799898784,192.65454483032224L172.94857274182638,131.89786792522207L173.93451748466492,129.65335616020874L174.92046222750344,127.22487547248288L175.906406970342,83.95871973577367L176.89235171318055,149.92757832217802L177.8782964560191,108.29868379745459L178.86424119885763,114.69009431177777L179.85018594169617,180.21273854884083L180.8361306845347,135.1514049735105L181.82207542737325,97.01909699866074L182.8080201702118,117.30216593665328L183.79396491305036,142.21919433722925L184.77990965588887,148.34096717562358L185.7658543987274,123.51505243422092L186.75179914156595,125.07100847315978L187.7377438844045,153.19213675963337L188.72368862724306,111.73920408370417L189.70963337008158,152.1125501840903L190.69557811292015,187.3294579044483L191.68152285575866,115.3979464400707L192.6674675985972,166.6217437173378L193.65341234143574,138.30234525691662L194.63935708427428,130.98365003345674L195.62530182711285,145.536127698286L196.61124656995136,192.65454483032224L197.59719131278993,188.03047758484436L198.58313605562844,91.54688995783155L199.569080798467,113.10208605402872L200.55502554130555,167.23148706122967L201.54097028414407,162.8568831103382L202.52691502698264,102.86051459579777L203.51285976982115,192.65454483032224L204.49880451265972,111.46163828020872L205.48474925549823,107.39644661264559L206.4706939983368,114.02627510925139L207.45663874117534,192.13893514259735L208.44258348401388,151.79809968813214L209.42852822685242,192.65454483032224L210.41447296969093,117.07564253803422L211.4004177125295,92.83504561775497L212.38636245536804,110.1148326578767L213.37230719820658,146.15819624230548L214.35825194104513,136.69004544596572L215.34419668388367,94.9884341543402L216.3301414267222,132.71340766192833L217.31608616956078,147.87517891567586L218.3020309123993,143.02183471852243L219.28797565523783,135.41416713989616L220.27392039807637,136.86714842838978L221.2598651409149,192.65454483032224L222.24580988375345,114.11833612464571L223.231754626592,135.39122963624246L224.21769936943056,129.7749239726478L225.20364411226907,133.38272918594024L226.18958885510764,156.61686538321942L227.17553359794616,130.40236565321362L228.1614783407847,94.93320041588001L229.14742308362327,143.30186938974532L230.13336782646178,99.5325191762414L231.11931256930035,149.32586836765506L232.10525731213886,139.04125440152495L233.09120205497743,156.76680603601437L234.07714679781594,76.67955988834431L235.0630915406545,140.6664870602806L236.04903628349305,106.44302348413883L237.03498102633156,168.97093116782952L238.02092576917013,160.0040275049413L239.00687051200865,168.34592486259947L239.99281525484722,150.8372221101693L240.97875999768576,170.44191222452196L241.9647047405243,165.20680260881886L242.95064948336284,139.61836180206643L243.93659422620135,160.82192606294524L244.92253896903992,154.1360935028713L245.90848371187846,192.65454483032224L246.894428454717,105.66795212580199L247.88037319755554,153.34389557083225L248.86631794039408,109.52394074585709L249.85226268323262,128.6015898005594L250.83820742607116,134.4770643753783L251.8241521689097,138.78743948833755L252.81009691174827,157.32509549707527L253.7960416545868,143.60086075464275L254.78198639742533,110.88049743878695L255.76793114026387,86.55038970950623L256.7538758831024,122.82566418298256L257.739820625941,154.66303886997406L258.7257653687795,188.05490849031864L259.71171011161806,106.96588756408752L260.6976548544566,105.72275524779808L261.68359959729514,149.3606765318354L262.66954434013365,161.71972550586045L263.6554890829722,192.65454483032224L264.64143382581074,192.65454483032224L265.6273785686493,139.42319206666025" fill="none"></path></g></g></g></g></g></g><g transform="translate(41, 176)" clip-path="url(#clip_1)"><clipPath id="clip_1"><rect width="288" height="23"></rect></clipPath><g><g><line x1="0" y1="0" x2="0" y2="5" style="visibility: inherit;" fill="rgb(0, 0, 0)" stroke="rgb(204, 204, 204)" stroke-width="1px"></line><line x1="24.07091657320658" y1="0" x2="24.07091657320658" y2="5" style="visibility: inherit;" fill="rgb(0, 0, 0)" stroke="rgb(204, 204, 204)" stroke-width="1px"></line><line x1="48.14183314641316" y1="0" x2="48.14183314641316" y2="5" style="visibility: inherit;" fill="rgb(0, 0, 0)" stroke="rgb(204, 204, 204)" stroke-width="1px"></line><line x1="72.21274971961975" y1="0" x2="72.21274971961975" y2="5" style="visibility: inherit;" fill="rgb(0, 0, 0)" stroke="rgb(204, 204, 204)" stroke-width="1px"></line><line x1="96.28366629282633" y1="0" x2="96.28366629282633" y2="5" style="visibility: inherit;" fill="rgb(0, 0, 0)" stroke="rgb(204, 204, 204)" stroke-width="1px"></line><line x1="120.35458286603293" y1="0" x2="120.35458286603293" y2="5" style="visibility: inherit;" fill="rgb(0, 0, 0)" stroke="rgb(204, 204, 204)" stroke-width="1px"></line><line x1="144.4254994392395" y1="0" x2="144.4254994392395" y2="5" style="visibility: inherit;" fill="rgb(0, 0, 0)" stroke="rgb(204, 204, 204)" stroke-width="1px"></line><line x1="168.4964160124461" y1="0" x2="168.4964160124461" y2="5" style="visibility: inherit;" fill="rgb(0, 0, 0)" stroke="rgb(204, 204, 204)" stroke-width="1px"></line><line x1="192.56733258565265" y1="0" x2="192.56733258565265" y2="5" style="visibility: inherit;" fill="rgb(0, 0, 0)" stroke="rgb(204, 204, 204)" stroke-width="1px"></line><line x1="216.63824915885925" y1="0" x2="216.63824915885925" y2="5" style="visibility: inherit;" fill="rgb(0, 0, 0)" stroke="rgb(204, 204, 204)" stroke-width="1px"></line><line x1="240.70916573206586" y1="0" x2="240.70916573206586" y2="5" style="visibility: inherit;" fill="rgb(0, 0, 0)" stroke="rgb(204, 204, 204)" stroke-width="1px"></line><line x1="264.7800823052724" y1="0" x2="264.7800823052724" y2="5" style="visibility: inherit;" fill="rgb(0, 0, 0)" stroke="rgb(204, 204, 204)" stroke-width="1px"></line><line x1="288.850998878479" y1="0" x2="288.850998878479" y2="5" style="visibility: inherit;" fill="rgb(0, 0, 0)" stroke="rgb(204, 204, 204)" stroke-width="1px"></line></g><g transform="translate(0, 8)"><text style="text-anchor: middle; visibility: hidden; font-family: Roboto, sans-serif; font-size: 12px; font-weight: 200;" x="0" y="0" dx="0em" dy="0.95em" fill="rgb(33, 33, 33)" stroke="none" stroke-width="1px">-50k</text><text style="text-anchor: middle; visibility: inherit; font-family: Roboto, sans-serif; font-size: 12px; font-weight: 200;" x="24.07091657320658" y="0" dx="0em" dy="0.95em" fill="rgb(33, 33, 33)" stroke="none" stroke-width="1px">0</text><text style="text-anchor: middle; visibility: hidden; font-family: Roboto, sans-serif; font-size: 12px; font-weight: 200;" x="48.14183314641316" y="0" dx="0em" dy="0.95em" fill="rgb(33, 33, 33)" stroke="none" stroke-width="1px">50k</text><text style="text-anchor: middle; visibility: inherit; font-family: Roboto, sans-serif; font-size: 12px; font-weight: 200;" x="72.21274971961975" y="0" dx="0em" dy="0.95em" fill="rgb(33, 33, 33)" stroke="none" stroke-width="1px">100k</text><text style="text-anchor: middle; visibility: hidden; font-family: Roboto, sans-serif; font-size: 12px; font-weight: 200;" x="96.28366629282633" y="0" dx="0em" dy="0.95em" fill="rgb(33, 33, 33)" stroke="none" stroke-width="1px">150k</text><text style="text-anchor: middle; visibility: inherit; font-family: Roboto, sans-serif; font-size: 12px; font-weight: 200;" x="120.35458286603293" y="0" dx="0em" dy="0.95em" fill="rgb(33, 33, 33)" stroke="none" stroke-width="1px">200k</text><text style="text-anchor: middle; visibility: hidden; font-family: Roboto, sans-serif; font-size: 12px; font-weight: 200;" x="144.4254994392395" y="0" dx="0em" dy="0.95em" fill="rgb(33, 33, 33)" stroke="none" stroke-width="1px">250k</text><text style="text-anchor: middle; visibility: inherit; font-family: Roboto, sans-serif; font-size: 12px; font-weight: 200;" x="168.4964160124461" y="0" dx="0em" dy="0.95em" fill="rgb(33, 33, 33)" stroke="none" stroke-width="1px">300k</text><text style="text-anchor: middle; visibility: hidden; font-family: Roboto, sans-serif; font-size: 12px; font-weight: 200;" x="192.56733258565265" y="0" dx="0em" dy="0.95em" fill="rgb(33, 33, 33)" stroke="none" stroke-width="1px">350k</text><text style="text-anchor: middle; visibility: inherit; font-family: Roboto, sans-serif; font-size: 12px; font-weight: 200;" x="216.63824915885925" y="0" dx="0em" dy="0.95em" fill="rgb(33, 33, 33)" stroke="none" stroke-width="1px">400k</text><text style="text-anchor: middle; visibility: hidden; font-family: Roboto, sans-serif; font-size: 12px; font-weight: 200;" x="240.70916573206586" y="0" dx="0em" dy="0.95em" fill="rgb(33, 33, 33)" stroke="none" stroke-width="1px">450k</text><text style="text-anchor: middle; visibility: inherit; font-family: Roboto, sans-serif; font-size: 12px; font-weight: 200;" x="264.7800823052724" y="0" dx="0em" dy="0.95em" fill="rgb(33, 33, 33)" stroke="none" stroke-width="1px">500k</text><text style="text-anchor: middle; visibility: hidden; font-family: Roboto, sans-serif; font-size: 12px; font-weight: 200;" x="288.850998878479" y="0" dx="0em" dy="0.95em" fill="rgb(33, 33, 33)" stroke="none" stroke-width="1px">550k</text></g><line x1="0" y1="0" x2="288.850998878479" y2="0" fill="rgb(0, 0, 0)" stroke="rgb(204, 204, 204)" stroke-width="1px"></line></g></g></g></g></svg>