<svg viewBox="0 0 330 200" xmlns="http://www.w3.org/2000/svg"><g><g><g><g><g><line x1="51.53200149536133" y1="176.5999994277954" x2="46.53200149536133" y2="176.5999994277954" style="visibility: inherit;" fill="rgb(0, 0, 0)" stroke="rgb(204, 204, 204)" stroke-width="1px"></line><line x1="51.53200149536133" y1="160.54545402526855" x2="46.53200149536133" y2="160.54545402526855" style="visibility: inherit;" fill="rgb(0, 0, 0)" stroke="rgb(204, 204, 204)" stroke-width="1px"></line><line x1="51.53200149536133" y1="144.4909086227417" x2="46.53200149536133" y2="144.4909086227417" style="visibility: inherit;" fill="rgb(0, 0, 0)" stroke="rgb(204, 204, 204)" stroke-width="1px"></line><line x1="51.53200149536133" y1="128.43636322021484" x2="46.53200149536133" y2="128.43636322021484" style="visibility: inherit;" fill="rgb(0, 0, 0)" stroke="rgb(204, 204, 204)" stroke-width="1px"></line><line x1="51.53200149536133" y1="112.38181781768799" x2="46.53200149536133" y2="112.38181781768799" style="visibility: inherit;" fill="rgb(0, 0, 0)" stroke="rgb(204, 204, 204)" stroke-width="1px"></line><line x1="51.53200149536133" y1="96.32727241516112" x2="46.53200149536133" y2="96.32727241516112" style="visibility: inherit;" fill="rgb(0, 0, 0)" stroke="rgb(204, 204, 204)" stroke-width="1px"></line><line x1="51.53200149536133" y1="80.27272701263429" x2="46.53200149536133" y2="80.27272701263429" style="visibility: inherit;" fill="rgb(0, 0, 0)" stroke="rgb(204, 204, 204)" stroke-width="1px"></line><line x1="51.53200149536133" y1="64.21818161010742" x2="46.53200149536133" y2="64.21818161010742" style="visibility: inherit;" fill="rgb(0, 0, 0)" stroke="rgb(204, 204, 204)" stroke-width="1px"></line><line x1="51.53200149536133" y1="48.16363620758056" x2="46.53200149536133" y2="48.16363620758056" style="visibility: inherit;" fill="rgb(0, 0, 0)" stroke="rgb(204, 204, 204)" stroke-width="1px"></line><line x1="51.53200149536133" y1="32.109090805053704" x2="46.53200149536133" y2="32.109090805053704" style="visibility: inherit;" fill="rgb(0, 0, 0)" stroke="rgb(204, 204, 204)" stroke-width="1px"></line><line x1="51.53200149536133" y1="16.054545402526863" x2="46.53200149536133" y2="16.054545402526863" style="visibility: inherit;" fill="rgb(0, 0, 0)" stroke="rgb(204, 204, 204)" stroke-width="1px"></line><line x1="51.53200149536133" y1="0" x2="46.53200149536133" y2="0" style="visibility: inherit;" fill="rgb(0, 0, 0)" stroke="rgb(204, 204, 204)" stroke-width="1px"></line></g><g transform="translate(41.53200149536133, 0)"><text style="text-anchor: end; visibility: hidden; font-family: Roboto, sans-serif; font-size: 12px; font-weight: 200;" x="0" y="176.5999994277954" dx="0em" dy="0.3em" fill="rgb(33, 33, 33)" stroke="none" stroke-width="1px">-1.5</text><text style="text-anchor: end; visibility: inherit; font-family: Roboto, sans-serif; font-size: 12px; font-weight: 200;" x="0" y="160.54545402526855" dx="0em" dy="0.3em" fill="rgb(33, 33, 33)" stroke="none" stroke-width="1px">-1</text><text style="text-anchor: end; visibility: hidden; font-family: Roboto, sans-serif; font-size: 12px; font-weight: 200;" x="0" y="144.4909086227417" dx="0em" dy="0.3em" fill="rgb(33, 33, 33)" stroke="none" stroke-width="1px">-0.5</text><text style="text-anchor: end; visibility: inherit; font-family: Roboto, sans-serif; font-size: 12px; font-weight: 200;" x="0" y="128.43636322021484" dx="0em" dy="0.3em" fill="rgb(33, 33, 33)" stroke="none" stroke-width="1px">0</text><text style="text-anchor: end; visibility: hidden; font-family: Roboto, sans-serif; font-size: 12px; font-weight: 200;" x="0" y="112.38181781768799" dx="0em" dy="0.3em" fill="rgb(33, 33, 33)" stroke="none" stroke-width="1px">0.5</text><text style="text-anchor: end; visibility: inherit; font-family: Roboto, sans-serif; font-size: 12px; font-weight: 200;" x="0" y="96.32727241516112" dx="0em" dy="0.3em" fill="rgb(33, 33, 33)" stroke="none" stroke-width="1px">1</text><text style="text-anchor: end; visibility: hidden; font-family: Roboto, sans-serif; font-size: 12px; font-weight: 200;" x="0" y="80.27272701263429" dx="0em" dy="0.3em" fill="rgb(33, 33, 33)" stroke="none" stroke-width="1px">1.5</text><text style="text-anchor: end; visibility: inherit; font-family: Roboto, sans-serif; font-size: 12px; font-weight: 200;" x="0" y="64.21818161010742" dx="0em" dy="0.3em" fill="rgb(33, 33, 33)" stroke="none" stroke-width="1px">2</text><text style="text-anchor: end; visibility: hidden; font-family: Roboto, sans-serif; font-size: 12px; font-weight: 200;" x="0" y="48.16363620758056" dx="0em" dy="0.3em" fill="rgb(33, 33, 33)" stroke="none" stroke-width="1px">2.5</text><text style="text-anchor: end; visibility: inherit; font-family: Roboto, sans-serif; font-size: 12px; font-weight: 200;" x="0" y="32.109090805053704" dx="0em" dy="0.3em" fill="rgb(33, 33, 33)" stroke="none" stroke-width="1px">3</text><text style="text-anchor: end; visibility: hidden; font-family: Roboto, sans-serif; font-size: 12px; font-weight: 200;" x="0" y="16.054545402526863" dx="0em" dy="0.3em" fill="rgb(33, 33, 33)" stroke="none" stroke-width="1px">3.5</text><text style="text-anchor: end; visibility: hidden; font-family: Roboto, sans-serif; font-size: 12px; font-weight: 200;" x="0" y="0" dx="0em" dy="0.3em" fill="rgb(33, 33, 33)" stroke="none" stroke-width="1px">4</text></g><line x1="51.53200149536133" y1="0" x2="51.53200149536133" y2="176.5999994277954" fill="rgb(0, 0, 0)" stroke="rgb(204, 204, 204)" stroke-width="1px"></line></g></g><g transform="translate(51, 0)" clip-path="url(#clip_0)"><clipPath id="clip_0"><rect width="278" height="176"></rect></clipPath><g><g><g><line x1="0" y1="0" x2="0" y2="176.5999994277954" fill="rgb(0, 0, 0)" stroke="rgb(66, 66, 66)" stroke-width="1px" opacity="0.25"></line><line x1="23.205666542053223" y1="0" x2="23.205666542053223" y2="176.5999994277954" fill="rgb(0, 0, 0)" stroke="rgb(66, 66, 66)" stroke-width="1px" opacity="0.25"></line><line x1="46.411333084106445" y1="0" x2="46.411333084106445" y2="176.5999994277954" fill="rgb(0, 0, 0)" stroke="rgb(66, 66, 66)" stroke-width="1px" opacity="0.25"></line><line x1="69.61699962615967" y1="0" x2="69.61699962615967" y2="176.5999994277954" fill="rgb(0, 0, 0)" stroke="rgb(66, 66, 66)" stroke-width="1px" opacity="0.25"></line><line x1="92.82266616821289" y1="0" x2="92.82266616821289" y2="176.5999994277954" fill="rgb(0, 0, 0)" stroke="rgb(66, 66, 66)" stroke-width="1px" opacity="0.25"></line><line x1="116.02833271026611" y1="0" x2="116.02833271026611" y2="176.5999994277954" fill="rgb(0, 0, 0)" stroke="rgb(66, 66, 66)" stroke-width="1px" opacity="0.25"></line><line x1="139.23399925231934" y1="0" x2="139.23399925231934" y2="176.5999994277954" fill="rgb(0, 0, 0)" stroke="rgb(66, 66, 66)" stroke-width="1px" opacity="0.25"></line><line x1="162.43966579437256" y1="0" x2="162.43966579437256" y2="176.5999994277954" fill="rgb(0, 0, 0)" stroke="rgb(66, 66, 66)" stroke-width="1px" opacity="0.25"></line><line x1="185.64533233642578" y1="0" x2="185.64533233642578" y2="176.5999994277954" fill="rgb(0, 0, 0)" stroke="rgb(66, 66, 66)" stroke-width="1px" opacity="0.25"></line><line x1="208.850998878479" y1="0" x2="208.850998878479" y2="176.5999994277954" fill="rgb(0, 0, 0)" stroke="rgb(66, 66, 66)" stroke-width="1px" opacity="0.25"></line><line x1="232.05666542053223" y1="0" x2="232.05666542053223" y2="176.5999994277954" fill="rgb(0, 0, 0)" stroke="rgb(66, 66, 66)" stroke-width="1px" opacity="0.25"></line><line x1="255.26233196258545" y1="0" x2="255.26233196258545" y2="176.5999994277954" fill="rgb(0, 0, 0)" stroke="rgb(66, 66, 66)" stroke-width="1px" opacity="0.25"></line><line x1="278.4679985046387" y1="0" x2="278.4679985046387" y2="176.5999994277954" fill="rgb(0, 0, 0)" stroke="rgb(66, 66, 66)" stroke-width="1px" opacity="0.25"></line></g><g><line x1="0" y1="176.5999994277954" x2="278.4679985046387" y2="176.5999994277954" fill="rgb(0, 0, 0)" stroke="rgb(66, 66, 66)" stroke-width="1px" opacity="0.25"></line><line x1="0" y1="160.54545402526855" x2="278.4679985046387" y2="160.54545402526855" fill="rgb(0, 0, 0)" stroke="rgb(66, 66, 66)" stroke-width="1px" opacity="0.25"></line><line x1="0" y1="144.4909086227417" x2="278.4679985046387" y2="144.4909086227417" fill="rgb(0, 0, 0)" stroke="rgb(66, 66, 66)" stroke-width="1px" opacity="0.25"></line><line x1="0" y1="128.43636322021484" x2="278.4679985046387" y2="128.43636322021484" fill="rgb(0, 0, 0)" stroke="rgb(66, 66, 66)" stroke-width="1px" opacity="0.25"></line><line x1="0" y1="112.38181781768799" x2="278.4679985046387" y2="112.38181781768799" fill="rgb(0, 0, 0)" stroke="rgb(66, 66, 66)" stroke-width="1px" opacity="0.25"></line><line x1="0" y1="96.32727241516112" x2="278.4679985046387" y2="96.32727241516112" fill="rgb(0, 0, 0)" stroke="rgb(66, 66, 66)" stroke-width="1px" opacity="0.25"></line><line x1="0" y1="80.27272701263429" x2="278.4679985046387" y2="80.27272701263429" fill="rgb(0, 0, 0)" stroke="rgb(66, 66, 66)" stroke-width="1px" opacity="0.25"></line><line x1="0" y1="64.21818161010742" x2="278.4679985046387" y2="64.21818161010742" fill="rgb(0, 0, 0)" stroke="rgb(66, 66, 66)" stroke-width="1px" opacity="0.25"></line><line x1="0" y1="48.16363620758056" x2="278.4679985046387" y2="48.16363620758056" fill="rgb(0, 0, 0)" stroke="rgb(66, 66, 66)" stroke-width="1px" opacity="0.25"></line><line x1="0" y1="32.109090805053704" x2="278.4679985046387" y2="32.109090805053704" fill="rgb(0, 0, 0)" stroke="rgb(66, 66, 66)" stroke-width="1px" opacity="0.25"></line><line x1="0" y1="16.054545402526863" x2="278.4679985046387" y2="16.054545402526863" fill="rgb(0, 0, 0)" stroke="rgb(66, 66, 66)" stroke-width="1px" opacity="0.25"></line><line x1="0" y1="0" x2="278.4679985046387" y2="0" fill="rgb(0, 0, 0)" stroke="rgb(66, 66, 66)" stroke-width="1px" opacity="0.25"></line></g></g></g><g><g><line x1="0" y1="128.43636322021484" x2="278.4679985046387" y2="128.43636322021484" fill="rgb(0, 0, 0)" stroke="rgb(153, 153, 153)" stroke-width="1.5px"></line></g></g><g><g><line x1="23.205666542053223" y1="0" x2="23.205666542053223" y2="176.5999994277954" fill="rgb(0, 0, 0)" stroke="rgb(153, 153, 153)" stroke-width="1.5px"></line></g></g><g><g><g><g><g><path style="fill: none;" stroke="rgb(238, 51, 119)" stroke-width="2px" d="M24.156170643615724,160.54545402526855L25.106674745178225,160.545454025269L26.057178846740722,160.54545402526858L27.007682948303223,151.05168501249105L27.958187049865725,122.70712677833373L28.908691151428222,106.41413109081823L29.859195252990723,92.25725332576688L30.809699354553224,86.13498223951669L31.760203456115725,77.29586537145623L32.71070755767822,70.70168874125953L33.66121165924072,64.15057248677283L34.61171576080322,60.40354226894759L35.56221986236572,55.702139048891986L36.51272396392822,51.60156199982399L37.463228065490725,49.42955863424661L38.41373216705322,45.95804891875345L39.36423626861573,44.30249525596921L40.31474037017822,42.869708465653126L41.26524447174072,44.17957211754698L42.21574857330322,46.60542306824584L43.166252674865724,44.94423598420651L44.11675677642822,42.31794591002303L45.067260877990726,41.948950892013485L46.01776497955322,40.24345195840055L46.96826908111572,43.81368453739927L47.91877318267822,43.28164140239229L48.869277284240724,41.71404232246627L49.81978138580322,41.096050375861616L50.770285487365726,40.50586146354363L51.72078958892822,39.94202802019854L52.67129369049072,39.08320808220956L53.62179779205322,38.25054679033697L54.57230189361572,37.42889464914269L55.52280599517822,36.67146415082403L56.473310096740725,35.75678215191604L57.42381419830322,34.92386245584529L58.37431829986572,33.788373637613425L59.32482240142822,33.14168840161413L60.27532650299072,32.50003221254527L61.22583060455322,31.55934734054254L62.176334706115725,30.754852204190872L63.12683880767822,31.410651876783486L64.07734290924071,31.474561006377332L65.02784701080323,31.476604217810223L65.97835111236571,30.79492312813696L66.92885521392822,30.14496486249095L67.87935931549072,29.80339402022931L68.82986341705322,29.282562973644524L69.78036751861572,28.686804895833994L70.73087162017822,30.731088993335444L71.68137572174072,30.774696019441315L72.63187982330322,30.812089711075597L73.58238392486571,30.562385304515225L74.53288802642822,29.549747700131803L75.48339212799073,28.952233644511242L76.43389622955323,28.691946107303675L77.38440033111571,28.355899322759974L78.33490443267821,29.11668912105024L79.28540853424072,28.637887382861305L80.23591263580323,28.462935941346256L81.18641673736573,28.076002193094784L82.13692083892822,27.68583659099924L83.08742494049072,27.224131048852758L84.03792904205322,26.79118672258844L84.98843314361574,27.2691867015638L85.93893724517822,26.70946528271619L86.88944134674072,25.908672055314884L87.83994544830323,25.50138500977365L88.79044954986571,24.946783494073074L89.74095365142821,24.49514519551159L90.69145775299073,24.517833069098064L91.64196185455323,24.26394792107308L92.59246595611573,23.896134518826724L93.54297005767822,24.004210375529702L94.49347415924072,25.44881179235102L95.44397826080322,25.13667747717818L96.39448236236574,24.783464907912883L97.34498646392822,24.617303839324038L98.29549056549072,24.817207594928934L99.24599466705322,24.867536256997127L100.19649876861571,24.651435553907692L101.14700287017821,24.472096398320243L102.09750697174073,24.380576448106414L103.04801107330323,24.89051450834969L103.99851517486573,24.643635740515865L104.94901927642822,24.165054502005372L105.89952337799072,23.95835757581506L106.85002747955322,23.695574586942488L107.80053158111573,23.447697562571435L108.75103568267822,23.75371807002109L109.70153978424072,23.53216954682786L110.65204388580322,23.05146590020532L111.60254798736571,23.423788994090835L112.55305208892823,23.089992772278986L113.50355619049073,22.96111693336698L114.45406029205323,22.580954538911907L115.40456439361573,22.446547896007637L116.35506849517822,22.24586618037506L117.30557259674072,22.165762393926126L118.25607669830323,23.281958144640296L119.20658079986573,23.06264718043089L120.15708490142822,22.833449195676675L121.10758900299072,22.732694240006875L122.05809310455322,22.505349971778866L123.00859720611572,22.200876718206736L123.95910130767822,22.128049889952216L124.90960540924073,21.932919903575364L125.86010951080323,21.63300858070171L126.81061361236573,21.49082543978489L127.76111771392821,21.423596151685498L128.71162181549073,21.2274033311325L129.66212591705323,20.79173929370169L130.61263001861573,20.405212710262155L131.56313412017823,20.44065989125814L132.51363822174073,20.493127806732286L133.4641423233032,20.48947049760131L134.4146464248657,20.107455161505527L135.36515052642824,19.976859696841313L136.31565462799074,20.041577892803918L137.2661587295532,20.114839441326257L138.2166628311157,19.86226044346027L139.1671669326782,19.70082937563876L140.11767103424074,19.46827996859965L141.06817513580322,19.36913120105279L142.01867923736572,20.296902720779585L142.96918333892825,20.12664271243933L143.91968744049072,20.44538365655632L144.87019154205322,20.34195816106723L145.82069564361572,20.467405065430402L146.77119974517822,20.19998500838901L147.7217038467407,20.042286133340202L148.67220794830322,20.155123001339252L149.62271204986573,20.050291863525146L150.57321615142823,20.019902236292584L151.52372025299073,19.798572009500102L152.4742243545532,19.62244607099494L153.42472845611573,19.500157892244214L154.37523255767823,19.544703166295594L155.32573665924073,19.472052417592906L156.27624076080323,19.351964030677674L157.2267448623657,19.295410664027887L158.17724896392824,19.407972838627398L159.1277530654907,19.327505895198744L160.0782571670532,19.170809296867432L161.02876126861574,18.98708571896036L161.9792653701782,18.72869803588524L162.92976947174074,18.423028902524948L163.8802735733032,18.18751676001487L164.83077767486571,18.06382693922776L165.78128177642824,18.85584197522666L166.73178587799072,18.911844347565204L167.68228997955322,18.71229895732128L168.63279408111572,18.469674036052115L169.58329818267822,18.551389493177798L170.53380228424075,18.387177487620495L171.48430638580322,18.32341158656668L172.43481048736572,18.306711643981586L173.38531458892822,18.18527342896791L174.33581869049073,17.96349509653352L175.2863227920532,17.862781793020375L176.23682689361573,17.58408643636242L177.18733099517823,17.400424715793914L178.13783509674073,17.317096679762997L179.08833919830323,17.08421531324971L180.0388432998657,16.885949991860016L180.98934740142823,16.767286137759527L181.93985150299073,16.54656157119428L182.8903556045532,16.385506415154577L183.84085970611574,16.300970122196205L184.7913638076782,16.233555944559484L185.74186790924074,16.13408064749772L186.6923720108032,15.990825084078235L187.6428761123657,15.845961885289304L188.59338021392824,15.674157073595634L189.54388431549071,16.376215840520146L190.49438841705322,16.301634917360822L191.44489251861572,16.011046785909723L192.39539662017822,16.14057761514764L193.34590072174075,16.007844491215522L194.29640482330322,15.917849565139305L195.24690892486572,15.674322159319109L196.19741302642822,15.606492749726339L197.14791712799072,15.365446110161958L198.0984212295532,15.207815675143795L199.04892533111573,14.982471487620117L199.99942943267823,14.931600555463636L200.94993353424073,14.782369932464585L201.90043763580323,14.727071065425871L202.8509417373657,14.550164472813679L203.80144583892823,14.343684017681026L204.75194994049073,14.106072212416583L205.7024540420532,13.99095437132572L206.65295814361573,13.967624390916791L207.6034622451782,13.93844300630475L208.55396634674074,13.788768946069597L209.50447044830324,13.635966723790876L210.4549745498657,13.639274726826736L211.40547865142824,13.506711183010886L212.3559827529907,13.507519508127203L213.3064868545532,14.141255939944392L214.25699095611571,13.904594452282756L215.20749505767822,13.723565524878609L216.15799915924075,13.588493980875437L217.10850326080322,13.431848199926097L218.05900736236572,13.317251704950845L219.00951146392822,13.291321868012401L219.96001556549072,13.298497610317042L220.91051966705322,13.242952421010097L221.86102376861572,13.014087100217159L222.81152787017822,12.870091509459666L223.76203197174073,12.740841477242773L224.71253607330323,12.624026993475821L225.6630401748657,12.626121479819753L226.61354427642823,12.497855575967389L227.56404837799073,12.322023390327955L228.5145524795532,12.241358068628548L229.46505658111573,12.136317212224744L230.4155606826782,12.082724423475272L231.36606478424073,11.974660621948473L232.31656888580324,11.914058710945627L233.2670729873657,11.829581509687511L234.21757708892824,11.716048541923074L235.1680811904907,11.653567764139785L236.1185852920532,11.56689295273844L237.06908939361574,12.146678351980055L238.0195934951782,11.962522259390148L238.97009759674074,11.872977817274627L239.92060169830322,11.684517346068361L240.87110579986572,11.551558250880438L241.82160990142822,11.426925433686439L242.77211400299072,11.35629084090744L243.72261810455322,11.293494352208942L244.67312220611572,11.16564144131941L245.62362630767822,11.013874234661737L246.57413040924072,10.984716950902046L247.52463451080322,10.833069990563072L248.47513861236573,10.73638570758403L249.42564271392823,10.72190615037921L250.37614681549073,10.555406268993021L251.3266509170532,10.483012194212211L252.27715501861573,10.372099352273233L253.2276591201782,10.341927243819494L254.17816322174073,10.368530535977055L255.12866732330323,10.356345402351836L256.0791714248657,10.246071990167618" fill="none"></path></g></g></g></g><g opacity="0.2"><g><g><g><path style="fill: none;" stroke="rgb(238, 51, 119)" stroke-width="2px" d="M24.156170643615724,160.54545402526855L25.106674745178225,160.54545402526855L26.057178846740722,160.54545402526855L27.007682948303223,122.62730262265204L27.958187049865725,9.612056120159204L28.908691151428222,25.193221972939217L29.859195252990723,7.612786172996039L30.809699354553224,43.45016580721721L31.760203456115725,6.900397261022588L32.71070755767822,11.650047099773012L33.66121165924072,-1.0013574394379425L34.61171576080322,19.432691372416237L35.56221986236572,-0.3493313864746704L36.51272396392822,-1.334275640152537L37.463228065490725,19.24858656628613L38.41373216705322,-5.699953390206261L39.36423626861573,18.037670103063185L40.31474037017822,18.73038462725527L41.26524447174072,67.53439536320639L42.21574857330322,92.23843320524134L43.166252674865724,12.067144120738254L44.11675677642822,-12.231497985048925L45.067260877990726,33.923766000243184L46.01776497955322,1.484260311519387L46.96826908111572,128.43636322021484L47.91877318267822,30.152101653110996L48.869277284240724,1.5021356794063578L49.81978138580322,24.641856824620838L50.770285487365726,24.218046014517768L51.72078958892822,23.833851919110668L52.67129369049072,13.714127695557627L53.62179779205322,12.846946518627195L54.57230189361572,11.56540895529406L55.52280599517822,12.096678668621742L56.473310096740725,5.195890982005039L57.42381419830322,6.290514206011261L58.37431829986572,-6.341736512877098L59.32482240142822,9.663546366158236L60.27532650299072,8.586752577616153L61.22583060455322,-4.402837080127949L62.176334706115725,-0.7737622842860183L63.12683880767822,57.74125066601665L64.07734290924071,34.10181538196275L65.02784701080323,31.562556216536912L65.97835111236571,1.4662471463639193L66.92885521392822,1.5597885254692319L67.87935931549072,14.45489518943986L68.82986341705322,5.382093368777992L69.78036751861572,0.7801775126754382L70.73087162017822,128.43636322021484L71.68137572174072,32.90034568703641L72.63187982330322,32.670400322916066L73.58238392486571,17.916071669008936L74.53288802642822,-22.695761312294042L75.48339212799073,-2.441691043918585L76.43389622955323,14.769853812825657L77.38440033111571,10.063908674403596L78.33490443267821,71.24727769221431L79.28540853424072,1.6712665156919648L80.23591263580323,18.444562470755045L81.18641673736573,5.554339954412635L82.13692083892822,4.608997104623082L83.08742494049072,-0.5179646215128813L84.03792904205322,0.3707435509200057L84.98843314361574,56.88750472276569L85.93893724517822,-8.497038900413816L89.74095365142821,-5.601504897261275L90.69145775299073,26.050879827535034L91.64196185455323,6.872148820978504L92.59246595611573,-1.6422984676901216L93.54297005767822,31.608718301486977L94.49347415924072,128.43636322021484L95.44397826080322,2.5946383565583364L96.39448236236574,-1.0525567800923632L97.34498646392822,12.309475928216678L98.29549056549072,39.8093093449179L99.24599466705322,28.68851858727157L100.19649876861571,8.045461940706438L101.14700287017821,10.525636699557705L102.09750697174073,17.179139532433517L103.04801107330323,65.48534998049672L103.99851517486573,4.763284112928888L104.94901927642822,-14.813114499733274L105.89952337799072,6.934218835037434L106.85002747955322,1.811153709438715L107.80053158111573,2.5776510155128562L108.75103568267822,49.79911371047955L109.70153978424072,4.473710808563737L110.65204388580322,-18.739387382131092L111.60254798736571,56.131962299537925L112.55305208892823,-6.537776093540735L113.50355619049073,11.404783272636902L114.45406029205323,-11.854010023375835L115.40456439361573,10.149947757779051L116.35506849517822,3.703768570776896L117.30557259674072,14.691906491273139L118.25607669830323,128.43636322021484L119.20658079986573,2.2034012896497206L120.15708490142822,0.8266534691815739L121.10758900299072,12.967572716398088L122.05809310455322,0.2661707349302507L123.00859720611572,-7.85756770969239L123.95910130767822,14.872818994016143L124.90960540924073,2.3179797184138717L125.86010951080323,-8.784269651214341L126.81061361236573,6.9428617859343795L127.76111771392821,14.484513946765214L128.71162181549073,0.8015820217169747L129.66212591705323,-24.955529340167214L130.61263001861573,-20.52788875170792L131.56313412017823,24.22616839795592L132.51363822174073,26.14314275420474L133.4641423233032,20.09237282918548L134.4146464248657,-21.710572085694377L135.36515052642824,5.564812546819212L136.31565462799074,27.24115732209703L137.2661587295532,28.32986291896123L138.2166628311157,-8.684136969432078L139.1671669326782,1.3129170635338525L140.11767103424074,-7.226241868620473L141.06817513580322,7.900101133238429L142.01867923736572,128.43636322021484L142.96918333892825,0.13118299961933563L143.91968744049072,58.15954192997561L144.87019154205322,8.013332210932727L145.82069564361572,35.53141611030742L146.77119974517822,-12.14759475933533L147.7217038467407,0.8282993809998569L148.67220794830322,34.002111402793616L149.62271204986573,7.093879936815036L150.57321615142823,16.237348790009946L151.52372025299073,-7.943645070086859L152.4742243545532,-2.607598955201855L153.42472845611573,3.958609308074294L154.37523255767823,25.24478111757254L155.32573665924073,10.112275515649793L156.27624076080323,3.7761810353777054L157.2267448623657,11.9111269911723L158.17724896392824,34.203188239161584L159.1277530654907,8.681090118717291L160.0782571670532,-1.6972030237866385L163.8802735733032,-13.99115379308477L164.83077767486571,1.057081123741682L165.78128177642824,128.43636322021484L166.73178587799072,26.70834121720055L167.68228997955322,-9.239429339902916L168.63279408111572,-15.724903714641176L169.58329818267822,30.138153507376508L170.53380228424075,-5.037868136641922L171.48430638580322,9.17252111063862L172.43481048736572,15.895856537032616L173.38531458892822,0.550293391785539L174.33581869049073,-14.431997876656155L175.2863227920532,3.0655375554720212L176.23682689361573,-23.600538177315684L177.18733099517823,-9.896798864722768L178.13783509674073,4.8613804572987735L179.08833919830323,-17.924285917292753L182.8903556045532,-8.37144434557284L183.84085970611574,3.2348291552375414L184.7913638076782,5.75692490533037L185.74186790924074,0.5910124846295641L186.6923720108032,-6.513661571551875L188.59338021392824,-11.604367305262702L189.54388431549071,128.43636322021484L190.49438841705322,4.334688675447062L191.44489251861572,-30.8591930256507L192.39539662017822,37.141684368473314L193.34590072174075,-5.6235371494149256L194.29640482330322,1.1762298285780233L195.24690892486572,-24.420079776361476L196.19741302642822,4.382450739792601L197.14791712799072,-24.722560091543514L199.04892533111573,-22.869186830114806L199.99942943267823,6.3444005934015895L200.94993353424073,-10.53219738061944L201.90043763580323,5.300647527686124L202.8509417373657,-15.752478479150334L205.7024540420532,-6.013350311215621L206.65295814361573,9.894264926062995L207.6034622451782,8.81938498847239L208.55396634674074,-12.590628288395227L209.50447044830324,-13.420474060963883L210.4549745498657,14.227736392304902L211.40547865142824,-10.183907129062394L212.3559827529907,13.652639492187978L213.3064868545532,128.43636322021484L214.25699095611571,-28.97132451467224L218.05900736236572,-7.818494528666648L219.00951146392822,8.487798828020011L219.96001556549072,14.633648868309587L220.91051966705322,2.8628071518819507L221.86102376861572,-29.941555082235023L224.71253607330323,-9.58487178124416L225.6630401748657,13.026021724456768L226.61354427642823,-12.095599256685084L229.46505658111573,-8.258144369244274L230.4155606826782,1.6341531180405529L231.36606478424073,-9.180589906250141L232.31656888580324,0.0015693577802356222L233.2670729873657,-4.843849582583065L236.1185852920532,-5.748519271951405L237.06908939361574,128.43636322021484L238.0195934951782,-25.121376008220054L245.62362630767822,-20.51285353863297L246.57413040924072,4.904778941474888L247.52463451080322,-20.908546050556637L248.47513861236573,-9.577201066630533L249.42564271392823,7.668295505993234L250.37614681549073,-24.689167220141815L252.27715501861573,-13.280410792929622L253.2276591201782,3.883923188543127L254.17816322174073,16.08355172754774L255.12866732330323,7.729133000039392L256.0791714248657,-13.616146182244862" fill="none"></path></g></g></g></g></g></g><g transform="translate(51, 176)" clip-path="url(#clip_1)"><clipPath id="clip_1"><rect width="278" height="23"></rect></clipPath><g><g><line x1="0" y1="0" x2="0" y2="5" style="visibility: inherit;" fill="rgb(0, 0, 0)" stroke="rgb(204, 204, 204)" stroke-width="1px"></line><line x1="23.205666542053223" y1="0" x2="23.205666542053223" y2="5" style="visibility: inherit;" fill="rgb(0, 0, 0)" stroke="rgb(204, 204, 204)" stroke-width="1px"></line><line x1="46.411333084106445" y1="0" x2="46.411333084106445" y2="5" style="visibility: inherit;" fill="rgb(0, 0, 0)" stroke="rgb(204, 204, 204)" stroke-width="1px"></line><line x1="69.61699962615967" y1="0" x2="69.61699962615967" y2="5" style="visibility: inherit;" fill="rgb(0, 0, 0)" stroke="rgb(204, 204, 204)" stroke-width="1px"></line><line x1="92.82266616821289" y1="0" x2="92.82266616821289" y2="5" style="visibility: inherit;" fill="rgb(0, 0, 0)" stroke="rgb(204, 204, 204)" stroke-width="1px"></line><line x1="116.02833271026611" y1="0" x2="116.02833271026611" y2="5" style="visibility: inherit;" fill="rgb(0, 0, 0)" stroke="rgb(204, 204, 204)" stroke-width="1px"></line><line x1="139.23399925231934" y1="0" x2="139.23399925231934" y2="5" style="visibility: inherit;" fill="rgb(0, 0, 0)" stroke="rgb(204, 204, 204)" stroke-width="1px"></line><line x1="162.43966579437256" y1="0" x2="162.43966579437256" y2="5" style="visibility: inherit;" fill="rgb(0, 0, 0)" stroke="rgb(204, 204, 204)" stroke-width="1px"></line><line x1="185.64533233642578" y1="0" x2="185.64533233642578" y2="5" style="visibility: inherit;" fill="rgb(0, 0, 0)" stroke="rgb(204, 204, 204)" stroke-width="1px"></line><line x1="208.850998878479" y1="0" x2="208.850998878479" y2="5" style="visibility: inherit;" fill="rgb(0, 0, 0)" stroke="rgb(204, 204, 204)" stroke-width="1px"></line><line x1="232.05666542053223" y1="0" x2="232.05666542053223" y2="5" style="visibility: inherit;" fill="rgb(0, 0, 0)" stroke="rgb(204, 204, 204)" stroke-width="1px"></line><line x1="255.26233196258545" y1="0" x2="255.26233196258545" y2="5" style="visibility: inherit;" fill="rgb(0, 0, 0)" stroke="rgb(204, 204, 204)" stroke-width="1px"></line><line x1="278.4679985046387" y1="0" x2="278.4679985046387" y2="5" style="visibility: inherit;" fill="rgb(0, 0, 0)" stroke="rgb(204, 204, 204)" stroke-width="1px"></line></g><g transform="translate(0, 8)"><text style="text-anchor: middle; visibility: hidden; font-family: Roboto, sans-serif; font-size: 12px; font-weight: 200;" x="0" y="0" dx="0em" dy="0.95em" fill="rgb(33, 33, 33)" stroke="none" stroke-width="1px">-50k</text><text style="text-anchor: middle; visibility: inherit; font-family: Roboto, sans-serif; font-size: 12px; font-weight: 200;" x="23.205666542053223" y="0" dx="0em" dy="0.95em" fill="rgb(33, 33, 33)" stroke="none" stroke-width="1px">0</text><text style="text-anchor: middle; visibility: hidden; font-family: Roboto, sans-serif; font-size: 12px; font-weight: 200;" x="46.411333084106445" y="0" dx="0em" dy="0.95em" fill="rgb(33, 33, 33)" stroke="none" stroke-width="1px">50k</text><text style="text-anchor: middle; visibility: inherit; font-family: Roboto, sans-serif; font-size: 12px; font-weight: 200;" x="69.61699962615967" y="0" dx="0em" dy="0.95em" fill="rgb(33, 33, 33)" stroke="none" stroke-width="1px">100k</text><text style="text-anchor: middle; visibility: hidden; font-family: Roboto, sans-serif; font-size: 12px; font-weight: 200;" x="92.82266616821289" y="0" dx="0em" dy="0.95em" fill="rgb(33, 33, 33)" stroke="none" stroke-width="1px">150k</text><text style="text-anchor: middle; visibility: inherit; font-family: Roboto, sans-serif; font-size: 12px; font-weight: 200;" x="116.02833271026611" y="0" dx="0em" dy="0.95em" fill="rgb(33, 33, 33)" stroke="none" stroke-width="1px">200k</text><text style="text-anchor: middle; visibility: hidden; font-family: Roboto, sans-serif; font-size: 12px; font-weight: 200;" x="139.23399925231934" y="0" dx="0em" dy="0.95em" fill="rgb(33, 33, 33)" stroke="none" stroke-width="1px">250k</text><text style="text-anchor: middle; visibility: inherit; font-family: Roboto, sans-serif; font-size: 12px; font-weight: 200;" x="162.43966579437256" y="0" dx="0em" dy="0.95em" fill="rgb(33, 33, 33)" stroke="none" stroke-width="1px">300k</text><text style="text-anchor: middle; visibility: hidden; font-family: Roboto, sans-serif; font-size: 12px; font-weight: 200;" x="185.64533233642578" y="0" dx="0em" dy="0.95em" fill="rgb(33, 33, 33)" stroke="none" stroke-width="1px">350k</text><text style="text-anchor: middle; visibility: inherit; font-family: Roboto, sans-serif; font-size: 12px; font-weight: 200;" x="208.850998878479" y="0" dx="0em" dy="0.95em" fill="rgb(33, 33, 33)" stroke="none" stroke-width="1px">400k</text><text style="text-anchor: middle; visibility: hidden; font-family: Roboto, sans-serif; font-size: 12px; font-weight: 200;" x="232.05666542053223" y="0" dx="0em" dy="0.95em" fill="rgb(33, 33, 33)" stroke="none" stroke-width="1px">450k</text><text style="text-anchor: middle; visibility: inherit; font-family: Roboto, sans-serif; font-size: 12px; font-weight: 200;" x="255.26233196258545" y="0" dx="0em" dy="0.95em" fill="rgb(33, 33, 33)" stroke="none" stroke-width="1px">500k</text><text style="text-anchor: middle; visibility: hidden; font-family: Roboto, sans-serif; font-size: 12px; font-weight: 200;" x="278.4679985046387" y="0" dx="0em" dy="0.95em" fill="rgb(33, 33, 33)" stroke="none" stroke-width="1px">550k</text></g><line x1="0" y1="0" x2="278.4679985046387" y2="0" fill="rgb(0, 0, 0)" stroke="rgb(204, 204, 204)" stroke-width="1px"></line></g></g></g></g></svg>