<svg viewBox="0 0 330 200" xmlns="http://www.w3.org/2000/svg"><g><g><g><g><g><line x1="41.149001121520996" y1="176.5999994277954" x2="36.149001121520996" y2="176.5999994277954" style="visibility: inherit;" fill="rgb(0, 0, 0)" stroke="rgb(204, 204, 204)" stroke-width="1px"></line><line x1="41.149001121520996" y1="154.52499949932107" x2="36.149001121520996" y2="154.52499949932107" style="visibility: inherit;" fill="rgb(0, 0, 0)" stroke="rgb(204, 204, 204)" stroke-width="1px"></line><line x1="41.149001121520996" y1="132.44999957084653" x2="36.149001121520996" y2="132.44999957084653" style="visibility: inherit;" fill="rgb(0, 0, 0)" stroke="rgb(204, 204, 204)" stroke-width="1px"></line><line x1="41.149001121520996" y1="110.37499964237217" x2="36.149001121520996" y2="110.37499964237217" style="visibility: inherit;" fill="rgb(0, 0, 0)" stroke="rgb(204, 204, 204)" stroke-width="1px"></line><line x1="41.149001121520996" y1="88.2999997138976" x2="36.149001121520996" y2="88.2999997138976" style="visibility: inherit;" fill="rgb(0, 0, 0)" stroke="rgb(204, 204, 204)" stroke-width="1px"></line><line x1="41.149001121520996" y1="66.22499978542326" x2="36.149001121520996" y2="66.22499978542326" style="visibility: inherit;" fill="rgb(0, 0, 0)" stroke="rgb(204, 204, 204)" stroke-width="1px"></line><line x1="41.149001121520996" y1="44.14999985694891" x2="36.149001121520996" y2="44.14999985694891" style="visibility: inherit;" fill="rgb(0, 0, 0)" stroke="rgb(204, 204, 204)" stroke-width="1px"></line><line x1="41.149001121520996" y1="22.074999928474348" x2="36.149001121520996" y2="22.074999928474348" style="visibility: inherit;" fill="rgb(0, 0, 0)" stroke="rgb(204, 204, 204)" stroke-width="1px"></line><line x1="41.149001121520996" y1="0" x2="36.149001121520996" y2="0" style="visibility: inherit;" fill="rgb(0, 0, 0)" stroke="rgb(204, 204, 204)" stroke-width="1px"></line></g><g transform="translate(31.149001121520996, 0)"><text style="text-anchor: end; visibility: hidden; font-family: Roboto, sans-serif; font-size: 12px; font-weight: 200;" x="0" y="176.5999994277954" dx="0em" dy="0.3em" fill="rgb(33, 33, 33)" stroke="none" stroke-width="1px">4</text><text style="text-anchor: end; visibility: inherit; font-family: Roboto, sans-serif; font-size: 12px; font-weight: 200;" x="0" y="154.52499949932107" dx="0em" dy="0.3em" fill="rgb(33, 33, 33)" stroke="none" stroke-width="1px">4.1</text><text style="text-anchor: end; visibility: hidden; font-family: Roboto, sans-serif; font-size: 12px; font-weight: 200;" x="0" y="132.44999957084653" dx="0em" dy="0.3em" fill="rgb(33, 33, 33)" stroke="none" stroke-width="1px">4.2</text><text style="text-anchor: end; visibility: inherit; font-family: Roboto, sans-serif; font-size: 12px; font-weight: 200;" x="0" y="110.37499964237217" dx="0em" dy="0.3em" fill="rgb(33, 33, 33)" stroke="none" stroke-width="1px">4.3</text><text style="text-anchor: end; visibility: hidden; font-family: Roboto, sans-serif; font-size: 12px; font-weight: 200;" x="0" y="88.2999997138976" dx="0em" dy="0.3em" fill="rgb(33, 33, 33)" stroke="none" stroke-width="1px">4.4</text><text style="text-anchor: end; visibility: inherit; font-family: Roboto, sans-serif; font-size: 12px; font-weight: 200;" x="0" y="66.22499978542326" dx="0em" dy="0.3em" fill="rgb(33, 33, 33)" stroke="none" stroke-width="1px">4.5</text><text style="text-anchor: end; visibility: hidden; font-family: Roboto, sans-serif; font-size: 12px; font-weight: 200;" x="0" y="44.14999985694891" dx="0em" dy="0.3em" fill="rgb(33, 33, 33)" stroke="none" stroke-width="1px">4.6</text><text style="text-anchor: end; visibility: inherit; font-family: Roboto, sans-serif; font-size: 12px; font-weight: 200;" x="0" y="22.074999928474348" dx="0em" dy="0.3em" fill="rgb(33, 33, 33)" stroke="none" stroke-width="1px">4.7</text><text style="text-anchor: end; visibility: hidden; font-family: Roboto, sans-serif; font-size: 12px; font-weight: 200;" x="0" y="0" dx="0em" dy="0.3em" fill="rgb(33, 33, 33)" stroke="none" stroke-width="1px">4.8</text></g><line x1="41.149001121520996" y1="0" x2="41.149001121520996" y2="176.5999994277954" fill="rgb(0, 0, 0)" stroke="rgb(204, 204, 204)" stroke-width="1px"></line></g></g><g transform="translate(41, 0)" clip-path="url(#clip_0)"><clipPath id="clip_0"><rect width="288" height="176"></rect></clipPath><g><g><g><line x1="0" y1="0" x2="0" y2="176.5999994277954" fill="rgb(0, 0, 0)" stroke="rgb(66, 66, 66)" stroke-width="1px" opacity="0.25"></line><line x1="36.106374859809875" y1="0" x2="36.106374859809875" y2="176.5999994277954" fill="rgb(0, 0, 0)" stroke="rgb(66, 66, 66)" stroke-width="1px" opacity="0.25"></line><line x1="72.21274971961975" y1="0" x2="72.21274971961975" y2="176.5999994277954" fill="rgb(0, 0, 0)" stroke="rgb(66, 66, 66)" stroke-width="1px" opacity="0.25"></line><line x1="108.31912457942963" y1="0" x2="108.31912457942963" y2="176.5999994277954" fill="rgb(0, 0, 0)" stroke="rgb(66, 66, 66)" stroke-width="1px" opacity="0.25"></line><line x1="144.4254994392395" y1="0" x2="144.4254994392395" y2="176.5999994277954" fill="rgb(0, 0, 0)" stroke="rgb(66, 66, 66)" stroke-width="1px" opacity="0.25"></line><line x1="180.53187429904938" y1="0" x2="180.53187429904938" y2="176.5999994277954" fill="rgb(0, 0, 0)" stroke="rgb(66, 66, 66)" stroke-width="1px" opacity="0.25"></line><line x1="216.63824915885925" y1="0" x2="216.63824915885925" y2="176.5999994277954" fill="rgb(0, 0, 0)" stroke="rgb(66, 66, 66)" stroke-width="1px" opacity="0.25"></line><line x1="252.74462401866913" y1="0" x2="252.74462401866913" y2="176.5999994277954" fill="rgb(0, 0, 0)" stroke="rgb(66, 66, 66)" stroke-width="1px" opacity="0.25"></line><line x1="288.850998878479" y1="0" x2="288.850998878479" y2="176.5999994277954" fill="rgb(0, 0, 0)" stroke="rgb(66, 66, 66)" stroke-width="1px" opacity="0.25"></line></g><g><line x1="0" y1="176.5999994277954" x2="288.850998878479" y2="176.5999994277954" fill="rgb(0, 0, 0)" stroke="rgb(66, 66, 66)" stroke-width="1px" opacity="0.25"></line><line x1="0" y1="154.52499949932107" x2="288.850998878479" y2="154.52499949932107" fill="rgb(0, 0, 0)" stroke="rgb(66, 66, 66)" stroke-width="1px" opacity="0.25"></line><line x1="0" y1="132.44999957084653" x2="288.850998878479" y2="132.44999957084653" fill="rgb(0, 0, 0)" stroke="rgb(66, 66, 66)" stroke-width="1px" opacity="0.25"></line><line x1="0" y1="110.37499964237217" x2="288.850998878479" y2="110.37499964237217" fill="rgb(0, 0, 0)" stroke="rgb(66, 66, 66)" stroke-width="1px" opacity="0.25"></line><line x1="0" y1="88.2999997138976" x2="288.850998878479" y2="88.2999997138976" fill="rgb(0, 0, 0)" stroke="rgb(66, 66, 66)" stroke-width="1px" opacity="0.25"></line><line x1="0" y1="66.22499978542326" x2="288.850998878479" y2="66.22499978542326" fill="rgb(0, 0, 0)" stroke="rgb(66, 66, 66)" stroke-width="1px" opacity="0.25"></line><line x1="0" y1="44.14999985694891" x2="288.850998878479" y2="44.14999985694891" fill="rgb(0, 0, 0)" stroke="rgb(66, 66, 66)" stroke-width="1px" opacity="0.25"></line><line x1="0" y1="22.074999928474348" x2="288.850998878479" y2="22.074999928474348" fill="rgb(0, 0, 0)" stroke="rgb(66, 66, 66)" stroke-width="1px" opacity="0.25"></line><line x1="0" y1="0" x2="288.850998878479" y2="0" fill="rgb(0, 0, 0)" stroke="rgb(66, 66, 66)" stroke-width="1px" opacity="0.25"></line></g></g></g><g><g><line x1="0" y1="1059.5999965667727" x2="288.850998878479" y2="1059.5999965667727" fill="rgb(0, 0, 0)" stroke="rgb(153, 153, 153)" stroke-width="1.5px"></line></g></g><g><g><line x1="36.106374859809875" y1="0" x2="36.106374859809875" y2="176.5999994277954" fill="rgb(0, 0, 0)" stroke="rgb(153, 153, 153)" stroke-width="1.5px"></line></g></g><g><g><g><g><g><path style="fill: none;" stroke="rgb(204, 51, 17)" stroke-width="2px" d="M36.84583341693878,10.69003075473832L37.585291974067694,55.97445850796322L38.32475053119659,82.02565345293591L39.0642090883255,98.85421194361726L39.80366764545441,118.22680611055006L40.543126202583316,114.67865062720364L41.282584759712215,127.99953192815373L42.02204331684113,129.86195278367896L42.76150187397003,122.1703292725291L43.50096043109894,131.42818662660295L44.240418988227844,126.47858809526694L44.97987754535675,124.96142720540561L45.719336102485656,125.06287246250142L46.45879465961457,126.54018478832975L47.19825321674347,120.71972969969408L47.93771177387237,123.46429759601148L48.677170331001285,118.69991110259102L49.41662888813019,110.39179638039957L50.15608744525909,105.94108116012367L50.895546002388,103.76584854579245L51.63500455951691,105.13400962880002L52.37446311664581,105.70468505520563L53.11392167377472,107.15401840141774L53.853380230903625,105.83892681073085L54.59283878803253,144.44915970932533L55.33229734516144,141.40089587564665L56.07175590229034,138.7904588531559L56.81121445941925,137.61202248495565L57.55067301654816,134.22292463583847L58.290131573677066,134.47152930301314L59.02959013080597,132.75514798563395L59.76904868793488,135.43136601677534L60.50850724506378,135.14805069093504L61.24796580219269,132.92601251449574L61.9874243593216,129.15025169435725L62.7268829164505,126.27977549675225L63.466341473579405,126.33358939756222L64.20580003070832,128.0184532864221L64.94525858783722,127.74580844034945L65.68471714496613,128.5206092072393L66.42417570209503,128.7711730432785L67.16363425922394,128.9259044644439L67.90309281635285,128.79062825124072L68.64255137348175,130.2128856258565L69.38200993061065,130.5057033272668L70.12146848773956,130.64504633662182L70.86092704486848,129.029760067319L71.60038560199737,130.00224393440118L72.33984415912629,129.0409568005228L73.07930271625519,148.11198908112777L73.8187612733841,147.26316831775404L74.55821983051301,145.06035490809444L75.29767838764191,145.2343996914749L76.03713694477081,143.7239841509353L76.77659550189972,144.08508499721205L77.51605405902862,144.37633889764126L78.25551261615753,143.9820001679708L78.99497117328644,143.87954725419453L79.73442973041534,142.86903296665176L80.47388828754426,142.83156915724084L81.21334684467317,141.69965464970215L81.95280540180207,141.00739424694552L82.69226395893097,140.08319778921552L83.43172251605988,138.8984233655611L84.17118107318878,138.34885227497026L84.91063963031769,137.7203995576694L85.6500981874466,137.67586512300022L86.3895567445755,136.9100844422889L87.12901530170441,135.29976636465196L87.86847385883333,135.20117162401664L88.60793241596221,135.73828133008791L89.34739097309112,133.97122705217177L90.08684953022004,133.4030754744018L90.82630808734893,133.6307752870764L91.56576664447785,146.43963168385085L92.30522520160676,144.69971279925272L93.04468375873566,143.64057114042393L93.78414231586457,144.77170595801758L94.52360087299346,145.99881042169199L95.26305943012237,145.33706212861395L96.00251798725128,145.1678151716799L96.7419765443802,143.6377106566857L97.48143510150909,142.08574512870825L98.220893658638,141.20650782149576L98.96035221576692,141.29476377099107L99.69981077289582,140.84874600407218L100.43926933002471,140.21231774704316L101.17872788715361,140.41075582577562L101.91818644428253,139.83822914209952L102.65764500141144,138.5994439782419L103.39710355854035,137.79710074927502L104.13656211566925,136.70853469134656L104.87602067279816,135.46811089787371L105.61547922992708,134.50443466231349L106.35493778705597,134.0626383587877L107.09439634418487,133.5806689403393L107.83385490131377,133.14991824804528L108.57331345844268,132.44865199942322L109.3127720155716,132.68102545908403L110.05223057270051,142.41676618852583L110.79168912982941,142.22243848926135L111.53114768695832,141.53314871630113L112.27060624408723,141.1431507051899L113.01006480121612,139.44316107407525L113.74952335834503,138.9233419537249L114.48898191547393,138.77617746188454L115.22844047260284,137.90271715292232L115.96789902973175,137.4758822830767L116.70735758686067,136.7167095271825L117.44681614398957,135.9331556569154L118.18627470111848,135.84249472202532L118.92573325824736,134.80287252901178L119.66519181537628,133.9364245881167L120.40465037250519,132.40810973882742L121.14410892963409,131.97601862887234L121.883567486763,131.52663790887257L122.62302604389191,130.8362311975672L123.36248460102082,130.49077628063563L124.10194315814972,129.9889936908443L124.84140171527862,128.93715851103948L125.58086027240752,128.26899882202176L126.32031882953643,128.2640643282407L127.05977738666535,128.49742446660957L127.79923594379424,128.2809178523665L128.53869450092316,136.20310768897687L129.27815305805206,135.40472211618209L130.01761161518098,135.0645308038178L130.75707017230988,133.76127039233603L131.49652872943878,133.07894743272013L132.23598728656768,133.394294635121L132.9754458436966,132.4712958654573L133.7149044008255,131.897692281315L134.4543629579544,131.27317960451302L135.19382151508333,130.64962810304414L135.93328007221223,130.06808312653706L136.67273862934113,129.41395222544398L137.41219718647002,129.43826485602858L138.15165574359892,128.76759755919636L138.89111430072785,128.4691947651991L139.63057285785675,127.65973792699519L140.37003141498565,127.4067801199985L141.10948997211457,126.76642525070218L141.84894852924347,126.55832492182341L142.58840708637237,125.84317819927165L143.32786564350127,125.10522253072934L144.0673242006302,124.83984687314012L144.8067827577591,125.21083257294718L145.546241314888,125.42332621721452L146.28569987201692,125.42962212613716L147.02515842914582,132.13307397812807L147.76461698627472,131.8476606055841L148.50407554340364,131.45087296551273L149.24353410053254,130.85066505545626L149.98299265766144,130.2862408514133L150.72245121479037,130.40083810902647L151.46190977191927,129.819623642996L152.20136832904817,129.29076691010508L152.94082688617704,128.85154829740708L153.68028544330596,128.112759339382L154.41974400043486,127.71906031920456L155.15920255756376,127.39185163973805L155.8986611146927,126.85765792992838L156.63811967182158,126.37549173037993L157.3775782289505,126.12816953182802L158.1170367860794,125.83459314368417L158.8564953432083,125.03374005108553L159.59595390033724,125.00629211917467L160.33541245746613,124.61766316753993L161.07487101459503,124.40781591690505L161.81432957172396,124.39561317534718L162.55378812885286,124.38942738768158L163.29324668598176,124.10706396883573L164.03270524311068,123.59688131875586L164.77216380023955,123.76270324931869L165.51162235736845,129.58923678959135L166.25108091449735,129.98034434721856L166.99053947162628,129.38312188191523L167.72999802875518,128.8823099048643L168.46945658588407,127.9286455732846L169.208915143013,127.53409048190791L169.9483737001419,126.90738771252317L170.68783225727083,126.9720352202572L171.42729081439973,126.59769738596411L172.16674937152862,126.72065416022309L172.90620792865755,126.34805044884226L173.64566648578645,125.72729426005839L174.38512504291535,125.28874682069515L175.12458360004428,125.67548099509771L175.86404215717317,125.28893920594516L176.60350071430207,125.17043075997566L177.34295927143094,125.16977067041121L178.08241782855987,124.79752139681904L178.82187638568877,124.72513248024937L179.56133494281767,124.37206715478955L180.3007934999466,124.18351752108806L181.0402520570755,124.23866297965648L181.7797106142044,124.15691978976983L182.51916917133332,123.78160105382821L183.25862772846222,123.8477820440067L183.99808628559114,129.00767272368935L184.73754484272004,128.62504504341348L185.47700339984894,128.15450047123105L186.21646195697787,127.72635761348612L186.95592051410677,127.28805307085429L187.69537907123566,127.05288292079622L188.4348376283646,126.62572906620237L189.17429618549346,126.20680092903572L189.91375474262236,125.75031310126677L190.65321329975126,125.11189285583268L191.39267185688018,124.60762144835422L192.13213041400908,124.23769180095726L192.87158897113798,124.29543473018593L193.6110475282669,123.80505265824245L194.3505060853958,123.46883870565765L195.0899646425247,123.1439101615779L195.82942319965363,122.73272961758288L196.56888175678253,122.34155713940714L197.30834031391146,121.72800965489613L198.04779887104036,121.90273063682191L198.78725742816926,121.71818172940574L199.52671598529818,121.42734056671874L200.26617454242708,121.18381586143823L201.00563309955598,121.23081049031339L201.74509165668485,121.54480456108918L202.48455021381378,126.19846391937095L203.22400877094267,125.74422717343371L203.96346732807157,125.29547413710718L204.7029258852005,125.08720700043989L205.4423844423294,125.19749805059374L206.1818429994583,124.73780136162462L206.92130155658722,124.31986391622532L207.66076011371612,123.82737667688589L208.40021867084502,123.47993189095861L209.13967722797395,123.09947355774356L209.87913578510285,122.75800840569332L210.61859434223177,122.41010241737149L211.35805289936067,122.61876569679796L212.09751145648957,122.42103282805438L212.8369700136185,122.0676041825271L213.57642857074737,121.97075281659254L214.31588712787627,121.60286979289532L215.05534568500516,121.19389512781052L215.7948042421341,120.80511851147604L216.534262799263,120.53024189851276L217.2737213563919,120.58200261503029L218.01317991352082,120.3311480542252L218.7526384706497,119.99017138782763L219.4920970277786,119.90283614053094L220.23155558490754,120.26551958097335L220.97101414203644,124.51020461960715L221.71047269916534,124.09985479977163L222.44993125629426,123.8454625824529L223.18938981342316,123.41862589341753L223.92884837055206,122.96910802489889L224.668306927681,122.85073533053983L225.4077654848099,122.83356163399169L226.14722404193876,122.69182584181482L226.88668259906768,122.37208300347486L227.62614115619658,121.94504259521167L228.36559971332548,121.71983795359338L229.1050582704544,121.3304127965568L229.8445168275833,121.1606826852777L230.5839753847122,120.96046499668826L231.32343394184113,120.56279205954678L232.06289249897003,120.37951311694516L232.80235105609893,120.06421968926246L233.54180961322785,119.84559823917935L234.28126817035675,119.39114124234331L235.02072672748565,119.41039948953076L235.76018528461458,119.39915009388906L236.49964384174348,119.45533465961253L237.23910239887238,119.37058259876342L237.97856095600127,119.30202313487435L238.71801951313017,119.57342150283104L239.45747807025907,123.48152973081791L240.196936627388,123.2681930836359L240.9363951845169,123.04317456303264L241.6758537416458,122.78436245408835L242.41531229877472,122.1975849078823L243.15477085590362,121.8537075233393L243.89422941303252,121.55466197581798L244.63368797016145,121.1726602252054L245.37314652729034,121.07516131792224L246.11260508441924,120.69171023813263L246.85206364154817,120.34059154663393L247.59152219867707,120.18459878716881L248.33098075580597,119.88567590952681L249.0704393129349,119.64018726639146L249.8098978700638,119.20439376367517L250.54935642719266,118.70140048572529L251.2888149843216,118.50216681706257L252.0282735414505,118.36571755548499L252.7677320985794,117.93057618285158L253.5071906557083,117.67211716466598L254.2466492128372,117.4535131998959L254.9861077699661,117.13388893527151L255.72556632709504,116.87607367862287L256.46502488422396,116.78289896035255L257.20448344135286,117.0064963394289L257.94394199848176,120.64174147571346L258.68340055561066,120.45763016111039L259.42285911273956,120.06574032681985L260.16231766986846,119.74243278669773L260.9017762269974,119.93712892308642L261.6412347841263,119.60709876753243L262.38069334125515,119.14041627872818L263.1201518983841,119.08724496885992L263.859610455513,118.81211109114264L264.5990690126419,118.29409597688405L265.3385275697708,117.80221829130772L266.0779861268997,117.80356304135739L266.8174446840286,117.51015335133506L267.55690324115756,117.0621248580512L268.29636179828645,116.72753386866836L269.03582035541535,116.51813638158737L269.77527891254425,116.07358539523412L270.51473746967315,116.16930671515023L271.25419602680205,116.2633966215349L271.993654583931,115.91318794841649L272.7331131410599,115.69970611912386L273.4725716981888,115.5018497761333L274.2120302553177,115.29081404100445L274.9514888124466,115.28814831891886L275.6909473695755,115.50648370658078L276.4304059267044,118.90751791132836L277.1698644838333,118.75574185568658L277.9093230409622,118.61781658662396L278.64878159809115,118.29453050662059L279.38824015522005,118.13591657035118L280.12769871234894,117.84337258294961L280.86715726947784,117.44808887304926L281.60661582660674,117.17602760441262L282.34607438373564,116.9168584758503L283.0855329408646,116.46204770679505L283.8249914979935,116.3605452259721L284.5644500551224,115.94566383000256L285.3039086122513,115.47515722553614L286.0433671693802,115.1947535454673L286.7828257265091,115.38317020850093L287.522284283638,115.3870840197553L288.2617428407669,115.27142597391284L289.00120139789584,115.02947262620432" fill="none"></path></g></g></g></g><g opacity="0.2"><g><g><g><path style="fill: none;" stroke="rgb(204, 51, 17)" stroke-width="2px" d="M36.84583341693878,10.69003075473832L37.585291974067694,101.21360183346358L38.32475053119659,134.0499158092158L39.0642090883255,149.23898336215905L39.80366764545441,195.5236504656856L40.543126202583316,96.9910246329042L41.282584759712215,207.6455469913697L42.02204331684113,142.84685515372905L42.76150187397003,60.913594501538775L43.50096043109894,214.33340823345225L44.240418988227844,77.2540156483925L44.97987754535675,108.3724570100819L45.719336102485656,126.27233175848835L46.45879465961457,145.6113458683817L47.19825321674347,39.84186586345375L47.93771177387237,164.30499986817586L48.677170331001285,43.11445529796431L49.41662888813019,-29.581766414161432L50.15608744525909,26.584983954121828L50.895546002388,62.847253810382746L51.63500455951691,132.2117289550872L52.37446311664581,117.55791766700361L53.11392167377472,138.6752246654985L53.853380230903625,75.95213767714687L54.59283878803253,1059.5999965667727L55.33229734516144,66.17710566536208L56.07175590229034,71.8277697381635L56.81121445941925,106.2358529463413L57.55067301654816,40.6918549172869L58.290131573677066,141.5739241781248L59.02959013080597,82.0541643583491L59.76904868793488,217.07989917990608L60.50850724506378,126.23001651395077L61.24796580219269,60.83212186653359L61.9874243593216,2.9964456222720237L62.7268829164505,27.601181393837653L63.466341473579405,128.23546437198536L64.20580003070832,189.18804784510803L64.94525858783722,117.58486468840067L65.68471714496613,158.14107924720224L66.42417570209503,138.59090996183033L67.16363425922394,135.1384281071339L67.90309281635285,123.22952883846915L68.64255137348175,190.0431420963543L69.38200993061065,143.10390447502448L70.12146848773956,136.77335442095887L70.86092704486848,56.4468099195685L71.60038560199737,174.62865639371648L72.33984415912629,84.01213914353183L73.07930271625519,1059.5999965667727L73.8187612733841,105.88691007160979L74.55821983051301,35.58971009643899L75.29767838764191,154.04892141973255L76.03713694477081,65.79637372632622L76.77659550189972,163.05764751053835L77.51605405902862,159.95474010138742L78.25551261615753,122.51701169848195L78.99497117328644,138.2059675507012L79.73442973041534,85.95579832359736L80.47388828754426,140.6862513990567L81.21334684467317,75.81603416673123L81.95280540180207,100.06277454856478L82.69226395893097,84.55181640408942L83.43172251605988,66.5975213038772L84.17118107318878,104.29577266755506L84.91063963031769,98.19069339408519L85.6500981874466,134.83295835676563L86.3895567445755,87.30946510159048L87.12901530170441,29.492946505353377L87.86847385883333,128.63093296334773L88.60793241596221,172.03142668296982L89.34739097309112,12.92337041482229L90.08684953022004,93.95453742102494L90.82630808734893,149.6523464599179L91.56576664447785,1059.5999965667727L92.30522520160676,19.044449482246666L93.04468375873566,66.16878998297783L93.78414231586457,228.556751380898L94.52360087299346,238.02747152214016L95.26305943012237,95.0967332381325L96.00251798725128,132.16225590799104L96.7419765443802,24.64785100580089L97.48143510150909,19.966121823468104L98.220893658638,71.21272502713599L98.96035221576692,148.4017309864081L99.69981077289582,104.52271711338345L100.43926933002471,87.79430096313295L101.17872788715361,156.93656844311397L101.91818644428253,91.6342515122145L102.65764500141144,33.16647814494759L103.39710355854035,68.77644061215538L104.13656211566925,42.07204766946775L104.87602067279816,26.49824822900003L105.61547922992708,48.968485172871716L106.35493778705597,94.44663634692834L107.09439634418487,89.92406300972196L107.83385490131377,93.74138227130207L108.57331345844268,67.65477084650261L109.3127720155716,154.36197001986875L110.05223057270051,1059.5999965667727L110.79168912982941,123.73941700896671L111.53114768695832,75.3499349060039L112.27060624408723,103.34473228348291L113.01006480121612,-26.852538403290094L113.74952335834503,87.60535602794651L114.48898191547393,124.11520164329295L115.22844047260284,50.100365333350716L115.96789902973175,94.18590286255129L116.70735758686067,59.03930284921021L117.44681614398957,55.05851200860807L118.18627470111848,126.40369848779903L118.92573325824736,25.63646985330566L119.66519181537628,42.17973049325367L120.40465037250519,-30.805119080867183L121.14410892963409,85.4462259385068L121.883567486763,82.73447138682262L122.62302604389191,55.25956205106272L123.36248460102082,92.3676104890635L124.10194315814972,74.1681606512194L124.84140171527862,10.991921603827297L125.58086027240752,52.75380484654281L126.32031882953643,127.70199755776537L127.05977738666535,155.2850107645205L127.79923594379424,103.23652315068533L128.53869450092316,1059.5999965667727L129.27815305805206,41.64173742153339L130.01761161518098,94.81231584823068L130.75707017230988,-21.591237737315776L131.49652872943878,51.14372031806827L132.23598728656768,171.53922249526408L132.9754458436966,20.013384372715297L133.7149044008255,61.5068500194835L134.4543629579544,54.08768240569746L135.19382151508333,53.03706435661898L135.93328007221223,57.17543211531254L136.67273862934113,46.85167032796958L137.41219718647002,132.52814593289804L138.15165574359892,42.94803638847698L138.89111430072785,90.02521960176328L139.63057285785675,22.671034358000686L140.37003141498565,94.37758460459837L141.10948997211457,42.59793563391982L141.84894852924347,99.02499843937083L142.58840708637237,30.60377430536592L143.32786564350127,26.18930483915479L144.0673242006302,89.03923229931682L144.8067827577591,175.57938099238163L145.546241314888,154.45691616557247L146.28569987201692,126.29527883139679L147.02515842914582,1059.5999965667727L147.76461698627472,92.11319271282638L148.50407554340364,75.87003347132769L149.24353410053254,46.25978321345517L149.98299265766144,50.25425808836051L150.72245121479037,146.74827859537265L151.46190977191927,46.410939161604325L152.20136832904817,52.94338135254325L152.94082688617704,65.06922519581484L153.68028544330596,20.196750432378128L154.41974400043486,69.87505804309738L155.15920255756376,79.0380979361223L155.8986611146927,47.46166247248514L156.63811967182158,54.30220595885064L157.3775782289505,88.9488124111134L158.1170367860794,81.45280368162479L158.8564953432083,3.284757698860137L159.59595390033724,120.81029683546637L160.33541245746613,64.87870133359341L161.07487101459503,91.97329977752678L161.81432957172396,122.4992224538878L162.55378812885286,123.42289476935355L163.29324668598176,79.7496677198885L164.03270524311068,43.02108807929558L164.77216380023955,150.0912881756435L165.51162235736845,1059.5999965667727L166.25108091449735,192.73584426181634L166.99053947162628,33.054479587266044L167.72999802875518,47.684606969824905L168.46945658588407,-27.489056521993387L169.208915143013,62.903989921839845L169.9483737001419,23.72691549719578L170.68783225727083,137.6695534060159L171.42729081439973,64.34228718890812L172.16674937152862,147.27174553837108L172.90620792865755,63.7608209928246L173.64566648578645,20.94137242207667L174.38512504291535,50.89624982078508L175.12458360004428,191.59943784383705L175.86404215717317,59.077512883456826L176.60350071430207,104.77281915572495L177.34295927143094,125.05561058532953L178.08241782855987,60.11086799695281L178.82187638568877,112.08619865816706L179.56133494281767,62.436627519484524L180.3007934999466,90.95247081850833L181.0402520570755,134.00317956898027L181.7797106142044,109.61559889562612L182.51916917133332,56.707859189352554L183.25862772846222,135.72936786542732L183.99808628559114,1059.5999965667727L184.73754484272004,59.30445732928522L185.47700339984894,42.521199780019586L186.21646195697787,49.459847266158796L186.95592051410677,46.806197229362034L187.69537907123566,83.67898553915016L188.4348376283646,47.4951357256268L189.17429618549346,48.259125886954486L189.91375474262236,40.443016016573395L190.65321329975126,5.287047702824754L191.39267185688018,29.551998376461786L192.13213041400908,54.205786147914274L192.87158897113798,135.27358426132855L193.6110475282669,30.176411387896867L194.3505060853958,59.00382962182423L195.0899646425247,60.58044089715711L195.82942319965363,43.23024328052982L196.56888175678253,46.39251834619618L197.30834031391146,2.109404414017906L198.04779887104036,156.10721070253794L198.78725742816926,85.44148915740185L199.52671598529818,64.02344918964364L200.26617454242708,72.92365036224486L201.00563309955598,130.5815394223672L201.74509165668485,184.27279535430108L202.48455021381378,1059.5999965667727L203.22400877094267,34.273621781878504L203.96346732807157,34.57119689707186L204.7029258852005,82.8159440218278L205.4423844423294,147.67068776921042L206.1818429994583,30.703246708569925L206.92130155658722,38.49546214982156L207.66076011371612,22.30314435884937L208.40021867084502,51.5801357505379L209.13967722797395,44.06654830005978L209.87913578510285,51.554978179780484L210.61859434223177,49.5890034976205L211.35805289936067,166.45939317651062L212.09751145648957,80.72091837000845L212.8369700136185,47.25408619828588L213.57642857074737,101.39307320644012L214.31588712787627,43.150665357966616L215.05534568500516,33.65741919102534L215.7948042421341,37.28663561183767L216.534262799263,61.264642612316926L217.2737213563919,131.7825765869785L218.01317991352082,65.85205721976L218.7526384706497,45.67231709463872L219.4920970277786,100.79939664128607L220.23155558490754,199.88075224962563L220.97101414203644,1059.5999965667727L221.71047269916534,33.38163326891477L222.44993125629426,67.40772139642876L223.18938981342316,28.391802791155403L223.92884837055206,22.54377283898096L224.668306927681,96.31366493489598L225.4077654848099,118.9702152688958L226.14722404193876,90.69763199506188L226.88668259906768,49.948893599794566L227.62614115619658,24.888584747734814L228.36559971332548,70.36220966429117L229.1050582704544,32.222279778027044L229.8445168275833,82.19237310481138L230.5839753847122,74.83846780847135L231.32343394184113,28.649483683264823L232.06289249897003,77.87790235081592L232.80235105609893,46.70714587336736L233.54180961322785,68.81296645756468L234.28126817035675,12.959685736626927L235.02072672748565,123.93530922310708L235.76018528461458,116.74740178904506L236.49964384174348,132.7422484388419L237.23910239887238,99.26320589804878L237.97856095600127,102.98410534869252L238.71801951313017,184.37579402788322L239.45747807025907,1059.5999965667727L240.196936627388,72.00513587509339L240.9363951845169,68.80233501552912L241.6758537416458,60.20139314695857L242.41531229877472,-20.134519654839362L243.15477085590362,38.18072936084805L243.89422941303252,48.564279851915764L244.63368797016145,27.646128183433536L245.37314652729034,97.13070704459913L246.11260508441924,26.23225165450636L246.85206364154817,33.5816306933461L247.59152219867707,81.52259225657109L248.33098075580597,45.574634142074366L249.0704393129349,58.42846861027599L249.8098978700638,10.214142146394085L250.54935642719266,-7.471945881475488L251.2888149843216,68.37634050149039L252.0282735414505,83.93403488620127L252.7677320985794,7.80185742234524L253.5071906557083,52.066655800917694L254.2466492128372,61.801688327816215L254.9861077699661,35.526553015039624L255.72556632709504,50.85825031014313L256.46502488422396,92.85476211025728L257.20448344135286,174.59434104615616L257.94394199848176,1059.5999965667727L258.68340055561066,72.7665997531651L259.42285911273956,18.263091123534156L260.16231766986846,35.51665840562039L260.9017762269974,170.80175830812414L261.6412347841263,33.14279423942283L262.38069334125515,-3.469260585988234L263.1201518983841,105.07860469150022L263.859610455513,46.122311299609215L264.5990690126419,-18.945061288484606L265.3385275697708,-12.87335000635407L266.0779861268997,118.1618046269839L266.8174446840286,39.1308223886992L267.55690324115756,-2.948846235257445L268.29636179828645,26.857822545767096L269.03582035541535,60.1219204861977L269.77527891254425,-3.9799908509044535L270.51473746967315,142.0891807005413L271.25419602680205,141.8100264007561L271.993654583931,20.572219281297368L272.7331131410599,57.42616572846803L273.4725716981888,61.34990467220607L274.2120302553177,57.37869265561617L274.9514888124466,114.55469318466135L275.6909473695755,175.73801052849637L276.4304059267044,1059.5999965667727L277.1698644838333,76.66633900597138L277.9093230409622,80.26987154701463L278.64878159809115,28.17685819079289L279.38824015522005,73.80721793102201L280.12769871234894,35.87402222453848L280.86715726947784,6.407454326849535L281.60661582660674,40.55490931245261L282.34607438373564,43.74065776003904L283.0855329408646,-12.279357655793017L283.8249914979935,87.55598824265267L284.5644500551224,-2.0868573359584097L285.3039086122513,-18.718748413470205L286.0433671693802,35.02024374582136L286.7828257265091,169.3906185860576L287.522284283638,116.51172061362308L288.2617428407669,81.9546919551451L289.00120139789584,45.15979737908285" fill="none"></path></g></g></g></g></g></g><g transform="translate(41, 176)" clip-path="url(#clip_1)"><clipPath id="clip_1"><rect width="288" height="23"></rect></clipPath><g><g><line x1="0" y1="0" x2="0" y2="5" style="visibility: inherit;" fill="rgb(0, 0, 0)" stroke="rgb(204, 204, 204)" stroke-width="1px"></line><line x1="36.106374859809875" y1="0" x2="36.106374859809875" y2="5" style="visibility: inherit;" fill="rgb(0, 0, 0)" stroke="rgb(204, 204, 204)" stroke-width="1px"></line><line x1="72.21274971961975" y1="0" x2="72.21274971961975" y2="5" style="visibility: inherit;" fill="rgb(0, 0, 0)" stroke="rgb(204, 204, 204)" stroke-width="1px"></line><line x1="108.31912457942963" y1="0" x2="108.31912457942963" y2="5" style="visibility: inherit;" fill="rgb(0, 0, 0)" stroke="rgb(204, 204, 204)" stroke-width="1px"></line><line x1="144.4254994392395" y1="0" x2="144.4254994392395" y2="5" style="visibility: inherit;" fill="rgb(0, 0, 0)" stroke="rgb(204, 204, 204)" stroke-width="1px"></line><line x1="180.53187429904938" y1="0" x2="180.53187429904938" y2="5" style="visibility: inherit;" fill="rgb(0, 0, 0)" stroke="rgb(204, 204, 204)" stroke-width="1px"></line><line x1="216.63824915885925" y1="0" x2="216.63824915885925" y2="5" style="visibility: inherit;" fill="rgb(0, 0, 0)" stroke="rgb(204, 204, 204)" stroke-width="1px"></line><line x1="252.74462401866913" y1="0" x2="252.74462401866913" y2="5" style="visibility: inherit;" fill="rgb(0, 0, 0)" stroke="rgb(204, 204, 204)" stroke-width="1px"></line><line x1="288.850998878479" y1="0" x2="288.850998878479" y2="5" style="visibility: inherit;" fill="rgb(0, 0, 0)" stroke="rgb(204, 204, 204)" stroke-width="1px"></line></g><g transform="translate(0, 8)"><text style="text-anchor: middle; visibility: hidden; font-family: Roboto, sans-serif; font-size: 12px; font-weight: 200;" x="0" y="0" dx="0em" dy="0.95em" fill="rgb(33, 33, 33)" stroke="none" stroke-width="1px">-100k</text><text style="text-anchor: middle; visibility: inherit; font-family: Roboto, sans-serif; font-size: 12px; font-weight: 200;" x="36.106374859809875" y="0" dx="0em" dy="0.95em" fill="rgb(33, 33, 33)" stroke="none" stroke-width="1px">0</text><text style="text-anchor: middle; visibility: inherit; font-family: Roboto, sans-serif; font-size: 12px; font-weight: 200;" x="72.21274971961975" y="0" dx="0em" dy="0.95em" fill="rgb(33, 33, 33)" stroke="none" stroke-width="1px">100k</text><text style="text-anchor: middle; visibility: inherit; font-family: Roboto, sans-serif; font-size: 12px; font-weight: 200;" x="108.31912457942963" y="0" dx="0em" dy="0.95em" fill="rgb(33, 33, 33)" stroke="none" stroke-width="1px">200k</text><text style="text-anchor: middle; visibility: inherit; font-family: Roboto, sans-serif; font-size: 12px; font-weight: 200;" x="144.4254994392395" y="0" dx="0em" dy="0.95em" fill="rgb(33, 33, 33)" stroke="none" stroke-width="1px">300k</text><text style="text-anchor: middle; visibility: inherit; font-family: Roboto, sans-serif; font-size: 12px; font-weight: 200;" x="180.53187429904938" y="0" dx="0em" dy="0.95em" fill="rgb(33, 33, 33)" stroke="none" stroke-width="1px">400k</text><text style="text-anchor: middle; visibility: inherit; font-family: Roboto, sans-serif; font-size: 12px; font-weight: 200;" x="216.63824915885925" y="0" dx="0em" dy="0.95em" fill="rgb(33, 33, 33)" stroke="none" stroke-width="1px">500k</text><text style="text-anchor: middle; visibility: inherit; font-family: Roboto, sans-serif; font-size: 12px; font-weight: 200;" x="252.74462401866913" y="0" dx="0em" dy="0.95em" fill="rgb(33, 33, 33)" stroke="none" stroke-width="1px">600k</text><text style="text-anchor: middle; visibility: hidden; font-family: Roboto, sans-serif; font-size: 12px; font-weight: 200;" x="288.850998878479" y="0" dx="0em" dy="0.95em" fill="rgb(33, 33, 33)" stroke="none" stroke-width="1px">700k</text></g><line x1="0" y1="0" x2="288.850998878479" y2="0" fill="rgb(0, 0, 0)" stroke="rgb(204, 204, 204)" stroke-width="1px"></line></g></g></g></g></svg>