<svg viewBox="0 0 330 200" xmlns="http://www.w3.org/2000/svg"><g><g><g><g><g><line x1="82.68100261688232" y1="176.5999994277954" x2="77.68100261688232" y2="176.5999994277954" style="visibility: inherit;" fill="rgb(0, 0, 0)" stroke="rgb(204, 204, 204)" stroke-width="1px"></line><line x1="82.68100261688232" y1="154.52499949932098" x2="77.68100261688232" y2="154.52499949932098" style="visibility: inherit;" fill="rgb(0, 0, 0)" stroke="rgb(204, 204, 204)" stroke-width="1px"></line><line x1="82.68100261688232" y1="132.44999957084656" x2="77.68100261688232" y2="132.44999957084656" style="visibility: inherit;" fill="rgb(0, 0, 0)" stroke="rgb(204, 204, 204)" stroke-width="1px"></line><line x1="82.68100261688232" y1="110.37499964237213" x2="77.68100261688232" y2="110.37499964237213" style="visibility: inherit;" fill="rgb(0, 0, 0)" stroke="rgb(204, 204, 204)" stroke-width="1px"></line><line x1="82.68100261688232" y1="88.2999997138977" x2="77.68100261688232" y2="88.2999997138977" style="visibility: inherit;" fill="rgb(0, 0, 0)" stroke="rgb(204, 204, 204)" stroke-width="1px"></line><line x1="82.68100261688232" y1="66.22499978542328" x2="77.68100261688232" y2="66.22499978542328" style="visibility: inherit;" fill="rgb(0, 0, 0)" stroke="rgb(204, 204, 204)" stroke-width="1px"></line><line x1="82.68100261688232" y1="44.14999985694885" x2="77.68100261688232" y2="44.14999985694885" style="visibility: inherit;" fill="rgb(0, 0, 0)" stroke="rgb(204, 204, 204)" stroke-width="1px"></line><line x1="82.68100261688232" y1="22.074999928474426" x2="77.68100261688232" y2="22.074999928474426" style="visibility: inherit;" fill="rgb(0, 0, 0)" stroke="rgb(204, 204, 204)" stroke-width="1px"></line><line x1="82.68100261688232" y1="0" x2="77.68100261688232" y2="0" style="visibility: inherit;" fill="rgb(0, 0, 0)" stroke="rgb(204, 204, 204)" stroke-width="1px"></line></g><g transform="translate(72.68100261688232, 0)"><text style="text-anchor: end; visibility: hidden; font-family: Roboto, sans-serif; font-size: 12px; font-weight: 200;" x="0" y="176.5999994277954" dx="0em" dy="0.3em" fill="rgb(33, 33, 33)" stroke="none" stroke-width="1px">2.65e+3</text><text style="text-anchor: end; visibility: inherit; font-family: Roboto, sans-serif; font-size: 12px; font-weight: 200;" x="0" y="154.52499949932098" dx="0em" dy="0.3em" fill="rgb(33, 33, 33)" stroke="none" stroke-width="1px">2.7e+3</text><text style="text-anchor: end; visibility: hidden; font-family: Roboto, sans-serif; font-size: 12px; font-weight: 200;" x="0" y="132.44999957084656" dx="0em" dy="0.3em" fill="rgb(33, 33, 33)" stroke="none" stroke-width="1px">2.75e+3</text><text style="text-anchor: end; visibility: inherit; font-family: Roboto, sans-serif; font-size: 12px; font-weight: 200;" x="0" y="110.37499964237213" dx="0em" dy="0.3em" fill="rgb(33, 33, 33)" stroke="none" stroke-width="1px">2.8e+3</text><text style="text-anchor: end; visibility: hidden; font-family: Roboto, sans-serif; font-size: 12px; font-weight: 200;" x="0" y="88.2999997138977" dx="0em" dy="0.3em" fill="rgb(33, 33, 33)" stroke="none" stroke-width="1px">2.85e+3</text><text style="text-anchor: end; visibility: inherit; font-family: Roboto, sans-serif; font-size: 12px; font-weight: 200;" x="0" y="66.22499978542328" dx="0em" dy="0.3em" fill="rgb(33, 33, 33)" stroke="none" stroke-width="1px">2.9e+3</text><text style="text-anchor: end; visibility: hidden; font-family: Roboto, sans-serif; font-size: 12px; font-weight: 200;" x="0" y="44.14999985694885" dx="0em" dy="0.3em" fill="rgb(33, 33, 33)" stroke="none" stroke-width="1px">2.95e+3</text><text style="text-anchor: end; visibility: inherit; font-family: Roboto, sans-serif; font-size: 12px; font-weight: 200;" x="0" y="22.074999928474426" dx="0em" dy="0.3em" fill="rgb(33, 33, 33)" stroke="none" stroke-width="1px">3e+3</text><text style="text-anchor: end; visibility: hidden; font-family: Roboto, sans-serif; font-size: 12px; font-weight: 200;" x="0" y="0" dx="0em" dy="0.3em" fill="rgb(33, 33, 33)" stroke="none" stroke-width="1px">3.05e+3</text></g><line x1="82.68100261688232" y1="0" x2="82.68100261688232" y2="176.5999994277954" fill="rgb(0, 0, 0)" stroke="rgb(204, 204, 204)" stroke-width="1px"></line></g></g><g transform="translate(82, 0)" clip-path="url(#clip_0)"><clipPath id="clip_0"><rect width="247" height="176"></rect></clipPath><g><g><g><line x1="0" y1="0" x2="0" y2="176.5999994277954" fill="rgb(0, 0, 0)" stroke="rgb(66, 66, 66)" stroke-width="1px" opacity="0.25"></line><line x1="30.91487467288971" y1="0" x2="30.91487467288971" y2="176.5999994277954" fill="rgb(0, 0, 0)" stroke="rgb(66, 66, 66)" stroke-width="1px" opacity="0.25"></line><line x1="61.82974934577942" y1="0" x2="61.82974934577942" y2="176.5999994277954" fill="rgb(0, 0, 0)" stroke="rgb(66, 66, 66)" stroke-width="1px" opacity="0.25"></line><line x1="92.74462401866913" y1="0" x2="92.74462401866913" y2="176.5999994277954" fill="rgb(0, 0, 0)" stroke="rgb(66, 66, 66)" stroke-width="1px" opacity="0.25"></line><line x1="123.65949869155884" y1="0" x2="123.65949869155884" y2="176.5999994277954" fill="rgb(0, 0, 0)" stroke="rgb(66, 66, 66)" stroke-width="1px" opacity="0.25"></line><line x1="154.57437336444855" y1="0" x2="154.57437336444855" y2="176.5999994277954" fill="rgb(0, 0, 0)" stroke="rgb(66, 66, 66)" stroke-width="1px" opacity="0.25"></line><line x1="185.48924803733826" y1="0" x2="185.48924803733826" y2="176.5999994277954" fill="rgb(0, 0, 0)" stroke="rgb(66, 66, 66)" stroke-width="1px" opacity="0.25"></line><line x1="216.40412271022797" y1="0" x2="216.40412271022797" y2="176.5999994277954" fill="rgb(0, 0, 0)" stroke="rgb(66, 66, 66)" stroke-width="1px" opacity="0.25"></line><line x1="247.31899738311768" y1="0" x2="247.31899738311768" y2="176.5999994277954" fill="rgb(0, 0, 0)" stroke="rgb(66, 66, 66)" stroke-width="1px" opacity="0.25"></line></g><g><line x1="0" y1="176.5999994277954" x2="247.31899738311768" y2="176.5999994277954" fill="rgb(0, 0, 0)" stroke="rgb(66, 66, 66)" stroke-width="1px" opacity="0.25"></line><line x1="0" y1="154.52499949932098" x2="247.31899738311768" y2="154.52499949932098" fill="rgb(0, 0, 0)" stroke="rgb(66, 66, 66)" stroke-width="1px" opacity="0.25"></line><line x1="0" y1="132.44999957084656" x2="247.31899738311768" y2="132.44999957084656" fill="rgb(0, 0, 0)" stroke="rgb(66, 66, 66)" stroke-width="1px" opacity="0.25"></line><line x1="0" y1="110.37499964237213" x2="247.31899738311768" y2="110.37499964237213" fill="rgb(0, 0, 0)" stroke="rgb(66, 66, 66)" stroke-width="1px" opacity="0.25"></line><line x1="0" y1="88.2999997138977" x2="247.31899738311768" y2="88.2999997138977" fill="rgb(0, 0, 0)" stroke="rgb(66, 66, 66)" stroke-width="1px" opacity="0.25"></line><line x1="0" y1="66.22499978542328" x2="247.31899738311768" y2="66.22499978542328" fill="rgb(0, 0, 0)" stroke="rgb(66, 66, 66)" stroke-width="1px" opacity="0.25"></line><line x1="0" y1="44.14999985694885" x2="247.31899738311768" y2="44.14999985694885" fill="rgb(0, 0, 0)" stroke="rgb(66, 66, 66)" stroke-width="1px" opacity="0.25"></line><line x1="0" y1="22.074999928474426" x2="247.31899738311768" y2="22.074999928474426" fill="rgb(0, 0, 0)" stroke="rgb(66, 66, 66)" stroke-width="1px" opacity="0.25"></line><line x1="0" y1="0" x2="247.31899738311768" y2="0" fill="rgb(0, 0, 0)" stroke="rgb(66, 66, 66)" stroke-width="1px" opacity="0.25"></line></g></g></g><g><g><line x1="0" y1="1346.57499563694" x2="247.31899738311768" y2="1346.57499563694" fill="rgb(0, 0, 0)" stroke="rgb(153, 153, 153)" stroke-width="1.5px"></line></g></g><g><g><line x1="30.91487467288971" y1="0" x2="30.91487467288971" y2="176.5999994277954" fill="rgb(0, 0, 0)" stroke="rgb(153, 153, 153)" stroke-width="1.5px"></line></g></g><g><g><g><g><g><path style="fill: none;" stroke="rgb(204, 51, 17)" stroke-width="2px" d="M32.181147939491275,153.559541616707L32.814284572792054,122.73786476479816L33.447421206092834,119.55205619177055L34.08055783939362,116.22199588367316L34.7136944726944,119.95127704835544L35.34683110599518,118.67521154588623L35.97996773929596,119.80187772857093L36.613104372596744,114.34341332496354L37.246241005897524,110.73209157575228L37.8793776391983,108.10215990294782L38.51251427249908,108.15692652627399L39.14565090579987,106.62638094914811L39.77878753910065,103.71079238466781L40.41192417240143,102.29622353345412L41.04506080570221,100.63531397999247L41.67819743900299,101.5268664228291L42.31133407230377,99.00299981621613L42.94447070560455,98.22102861795456L43.57760733890533,98.36639121928522L44.21074397220612,99.37110481462047L44.8438806055069,100.47928774257059L45.477017238807676,101.05305638508696L46.110153872108455,99.76929906939377L46.74329050540924,99.64730042090045L47.37642713871002,98.15345590067136L48.0095637720108,98.07652760736468L48.64270040531158,97.80184992648898L49.275837038612366,96.36896616131027L49.90897367191315,95.12429303214662L50.54211030521393,93.82155602058117L51.17524693851471,92.44339360797684L51.80838357181549,91.9307954101531L52.44152020511628,90.30921705490708L53.074656838417056,88.97854838164777L53.707793471717835,88.19585724458263L54.340930105018614,87.66643386167267L54.9740667383194,87.46472146125083L55.60720337162018,87.10556211691711L56.24034000492096,87.76694291252561L56.87347663822174,88.10005581207629L57.506613271522525,88.7748791453423L58.139749904823304,89.29402624073276L58.772886538124084,90.0272905196269L59.40602317142486,91.15903407113754L60.03915980472565,92.40853979745744L60.67229643802643,93.63823689632274L61.30543307132721,95.51536877997496L61.93856970462799,95.96971650082361L62.571706337928774,97.12061081739392L63.20484297122955,98.31359167152313L63.83797960453034,99.13555651737795L64.47111623783113,99.8027590713093L65.10425287113189,100.31081659408738L65.73738950443267,100.15001639702886L66.37052613773345,100.24050111807415L67.00366277103424,100.19788712561544L67.63679940433502,100.48292214903624L68.2699360376358,101.45673444407353L68.9030726709366,101.77185058411786L69.53620930423737,102.27183496407153L70.16934593753815,102.84405087077126L70.80248257083892,103.1859334174724L71.43561920413971,103.69605327901176L72.06875583744049,103.50578101150491L72.70189247074127,104.06812839202588L73.33502910404205,103.93040056752669L73.96816573734284,103.6005592902591L74.60130237064362,103.3449419552329L75.2344390039444,102.96459489288378L75.86757563724517,102.47390007794803L76.50071227054596,102.02668425165898L77.13384890384674,101.6245493653802L77.76698553714752,101.2326178279214L78.4001221704483,100.40491644493328L79.03325880374909,99.65953589481025L79.66639543704987,98.97397332282847L80.29953207035065,98.1657054725775L80.93266870365142,97.17634468119489L81.56580533695221,96.13730760114066L82.19894197025299,95.25585075691767L82.83207860355377,94.76649238038704L83.46521523685455,94.02261039968903L84.09835187015534,93.42971179484387L84.73148850345612,92.78888513405913L85.3646251367569,92.36836347427514L85.99776177005768,91.8012137028426L86.63089840335846,91.22216525546588L87.26403503665924,90.8566025345459L87.89717166996002,90.4210294463104L88.53030830326081,89.85541056905305L89.16344493656159,89.23547291065857L89.79658156986237,88.77924124762421L90.42971820316315,88.10092957080198L91.06285483646394,87.68111449741268L91.6959914697647,87.18725201318017L92.32912810306549,86.5865345215606L92.96226473636627,85.96301880505617L93.59540136966706,85.29147772089452L94.22853800296784,84.65033437987364L94.86167463626862,83.80699799459506L95.4948112695694,83.22187166367189L96.12794790287019,82.43162648442845L96.76108453617096,81.81906484061373L97.39422116947173,80.93290624346982L98.02735780277251,79.9538907351595L98.66049443607331,78.9678950306072L99.29363106937409,78.0981972808039L99.92676770267487,77.10460645832339L100.55990433597565,76.22210606095173L101.19304096927644,75.45355048709195L101.8261776025772,74.88344421264118L102.45931423587798,74.29033594030038L103.09245086917876,73.73760921962385L103.72558750247956,73.52200496257358L104.35872413578034,73.2383360745463L104.99186076908111,73.00877291417842L105.62499740238191,72.6544524312417L106.25813403568269,72.41475849675246L106.89127066898345,72.05974867835191L107.52440730228423,71.56555104982944L108.15754393558502,71.201271514635L108.7906805688858,70.99079475568143L109.42381720218658,70.57978264229884L110.05695383548736,70.15623299184223L110.69009046878816,69.67912910423655L111.32322710208894,69.28549064604839L111.95636373538971,68.8501970213636L112.58950036869048,68.3048707691408L113.22263700199127,67.70270901124475L113.85577363529205,67.01105382697939L114.48891026859283,66.48370126912062L115.12204690189361,65.93748967277311L115.7551835351944,65.47661094384486L116.38832016849518,65.04783691655918L117.02145680179596,64.6319143575255L117.65459343509673,64.2958003030913L118.28773006839752,63.925061546557096L118.9208667016983,63.49161188013488L119.55400333499908,63.153926003670506L120.18713996829986,62.709715162526294L120.82027660160065,62.236233662886555L121.45341323490143,61.88802123297662L122.08654986820221,61.609499151812166L122.71968650150299,61.62471294814853L123.35282313480377,61.34334341660347L123.98595976810455,61.190579438976386L124.61909640140533,60.98343883964726L125.25223303470612,60.72238463098324L125.8853696680069,60.65869893322949L126.51850630130768,60.46249228254109L127.15164293460846,60.43819025395111L127.78477956790925,60.181673922046414L128.41791620121003,59.85828432565279L129.0510528345108,59.450130068876206L129.6841894678116,59.13713057256531L130.31732610111237,58.857557459517466L130.95046273441312,58.691734588222275L131.58359936771393,58.38342546648214L132.2167360010147,58.12249763653663L132.8498726343155,57.93263150388528L133.48300926761627,57.75075467669866L134.11614590091705,57.519473569306605L134.74928253421783,57.27132947840906L135.3824191675186,57.07676250946019L136.01555580081939,56.91053860209406L136.6486924341202,56.760240583624324L137.28182906742097,56.626144213759616L137.91496570072175,56.54965595489087L138.54810233402253,56.40604335327644L139.1812389673233,56.243975587228164L139.8143756006241,56.18134326852968L140.44751223392487,56.12364702529903L141.08064886722565,55.883570130642994L141.71378550052643,55.6219658841644L142.3469221338272,55.3552796533948L142.98005876712799,55.30243798955399L143.61319540042876,55.13202444174752L144.24633203372954,54.87819459511419L144.87946866703032,54.64040364899826L145.5126053003311,54.38388212435137L146.1457419336319,54.06070667716162L146.7788785669327,53.813729215352055L147.41201520023347,53.61420533893747L148.04515183353425,53.3855334604523L148.67828846683503,53.297192038004376L149.3114251001358,53.00507439361615L149.9445617334366,52.754367354909185L150.57769836673737,52.58956476382584L151.21083500003817,52.42072117215256L151.84397163333892,52.27229586094713L152.4771082666397,52.078973274345955L153.11024489994048,51.9454930688435L153.74338153324126,51.63663774472414L154.37651816654204,51.25457976736959L155.00965479984282,50.9309585003337L155.6427914331436,50.59262412459491L156.2759280664444,50.32996532405426L156.9090646997452,50.099038528203245L157.54220133304597,49.84125590507882L158.17533796634675,49.55301369107042L158.80847459964752,49.3609550589325L159.4416112329483,49.08660205593824L160.07474786624908,48.74657613090781L160.70788449954986,48.31542779456295L161.34102113285067,48.101054189559804L161.97415776615142,47.78079690109731L162.6072943994522,47.57035561457246L163.24043103275298,47.39413785048108L163.87356766605376,47.231505192473534L164.50670429935454,47.052639521842195L165.13984093265532,46.961010344367104L165.77297756595613,46.87005252143578L166.4061141992569,46.764354038705775L167.03925083255768,46.64804330434443L167.67238746585846,46.53018443807066L168.30552409915924,46.39246592088008L168.93866073246002,46.23888166577736L169.5717973657608,46.153965962014304L170.20493399906158,46.10718859084677L170.8380706323624,45.936789095150004L171.47120726566317,45.820293659458585L172.10434389896395,45.627620132514664L172.7374805322647,45.46740683664081L173.37061716556548,45.31333712131201L174.00375379886626,45.11566890026274L174.63689043216704,44.998851857837174L175.27002706546781,44.785098729946135L175.90316369876862,44.43339559121042L176.5363003320694,44.10499077745271L177.16943696537018,43.8536475334025L177.80257359867096,43.44985768853273L178.43571023197174,43.14226274508999L179.06884686527252,42.91008013381379L179.7019834985733,42.603682530595925L180.3351201318741,42.26705386609949L180.96825676517489,42.004328027671846L181.60139339847566,41.79752845958622L182.23453003177644,41.63614275311958L182.8676666650772,41.51700742781257L183.50080329837797,41.312353980737505L184.13393993167875,41.2079543309736L184.76707656497953,41.06042849904968L185.40021319828034,40.9809944481275L186.03334983158112,40.80814892487558L186.6664864648819,40.52562780529053L187.29962309818268,40.400896392333856L187.93275973148346,40.343551493534235L188.56589636478424,40.29488487169415L189.19903299808502,40.0540198047957L189.8321696313858,39.81788884637559L190.4653062646866,39.556422980385534L191.09844289798738,39.20594474597244L191.73157953128816,38.88784600776022L192.36471616458894,38.49718911903596L192.99785279788972,38.219380782615865L193.63098943119047,37.81160276850885L194.26412606449125,37.4989297493692L194.89726269779203,37.160273880655936L195.53039933109284,36.96339603591785L196.16353596439362,36.654395410097294L196.7966725976944,36.47600459764288L197.42980923099518,36.224581884425525L198.06294586429595,35.978512842386486L198.69608249759673,35.73699051966451L199.3292191308975,35.51704207903024L199.96235576419832,35.279086841104416L200.5954923974991,35.13499551380835L201.22862903079988,34.98907249014265L201.86176566410066,34.90404106499355L202.49490229740144,34.753623182919576L203.12803893070222,34.597633436802454L203.76117556400297,34.36147118557445L204.39431219730375,34.16839733846225L205.02744883060456,33.92595474621302L205.66058546390533,33.74546793183395L206.2937220972061,33.5768842893076L206.9268587305069,33.24491097025871L207.55999536380767,32.93570520272879L208.19313199710845,32.62119634597405L208.82626863040923,32.32541877122195L209.45940526371,32.07910184530205L210.09254189701082,31.77433689145179L210.7256785303116,31.545400387800317L211.35881516361238,31.33399355064004L211.99195179691316,31.09627912593998L212.62508843021394,30.857207038371836L213.25822506351471,30.736913621818342L213.8913616968155,30.60760931251172L214.52449833011627,30.478505005529126L215.15763496341705,30.237562406645054L215.79077159671783,30.088926511658297L216.4239082300186,29.913435390016275L217.0570448633194,29.73152915806761L217.69018149662017,29.653313364786978L218.32331812992095,29.58177516768789L218.95645476322173,29.411977583055336L219.58959139652254,29.285116292295157L220.22272802982332,29.072402409171097L220.8558646631241,28.848481681781458L221.48900129642487,28.711607582962234L222.12213792972565,28.54974374278812L222.75527456302643,28.3269449096104L223.3884111963272,28.028842799020094L224.021547829628,27.744434745443503L224.65468446292877,27.49599464736297L225.28782109622955,27.20957971784494L225.92095772953033,27.018677242269394L226.5540943628311,26.720313754761726L227.1872309961319,26.401636407775033L227.82036762943267,26.1671819895045L228.45350426273345,25.957584623046756L229.08664089603423,25.838691093380568L229.71977752933503,25.62104734924961L230.3529141626358,25.43446292882122L230.9860507959366,25.256409165125262L231.61918742923737,25.149731108701896L232.25232406253815,24.99742382740213L232.88546069583893,24.791272932243725L233.5185973291397,24.681613561403626L234.1517339624405,24.53403450086956L234.7848705957413,24.353893854128582L235.41800722904205,24.17908253310182L236.05114386234283,24.1025862010039L236.6842804956436,23.884969297994488L237.31741712894438,23.671463278171807L237.95055376224516,23.47475437809322L238.58369039554594,23.283482897690416L239.21682702884675,23.024753269993106L239.84996366214753,22.77106656721191L240.4831002954483,22.571161801252867L241.1162369287491,22.328763575598522L241.74937356204987,22.107311371864828L242.38251019535065,21.927047134270477L243.01564682865143,21.818510586632208L243.6487834619522,21.655977708543098L244.281920095253,21.470170804885033L244.9150567285538,21.346438785668344L245.54819336185454,21.17784972512778L246.18132999515532,21.050818887003544L246.8144666284561,20.97250957965634L247.4476032617569,20.84213552133428" fill="none"></path></g></g></g></g><g opacity="0.2"><g><g><g><path style="fill: none;" stroke="rgb(204, 51, 17)" stroke-width="2px" d="M32.181147939491275,153.559541616707L32.814284572792054,91.94700958977629L33.447421206092834,113.18999328559497L34.08055783939362,106.25178200436466L34.7136944726944,134.83114616957667L35.34683110599518,112.31399951401923L35.97996773929596,126.53825422867318L36.613104372596744,76.28669421083002L37.246241005897524,81.97122226858338L37.8793776391983,84.55080673288147L38.51251427249908,108.70158961361449L39.14565090579987,89.89105964526593L39.77878753910065,68.9503137414367L40.41192417240143,84.03504074334167L41.04506080570221,77.55622228288848L41.67819743900299,114.793664422977L42.31133407230377,58.96266973082907L42.94447070560455,85.04652413850184L43.57760733890533,100.95820133303991L44.21074397220612,118.2709080640541L44.8438806055069,122.41169516001247L45.477017238807676,112.97053674333728L46.110153872108455,71.8491665152472L46.74329050540924,96.8747574986145L47.37642713871002,62.7459237468912L48.0095637720108,96.1781231014576L48.64270040531158,90.7558434559405L49.275837038612366,58.218069635585415L49.90897367191315,60.774264085310854L50.54211030521393,56.60361968964454L51.17524693851471,51.733215042339296L51.80838357181549,76.29197582702385L52.44152020511628,39.26612169894506L53.074656838417056,45.80508591115648L53.707793471717835,62.0449778263108L54.340930105018614,69.46640309523325L54.9740667383194,80.33586143403836L55.60720337162018,74.0661518596264L56.24034000492096,112.4153203144722L56.87347663822174,100.83489176312695L57.506613271522525,115.22158312276238L58.139749904823304,110.13797364216356L58.772886538124084,120.17121201297502L59.40602317142486,138.76821378377323L60.03915980472565,146.16732691897894L60.67229643802643,147.72033765613452L61.30543307132721,179.86436159983566L61.93856970462799,116.81932591543706L62.571706337928774,151.03104870497774L63.20484297122955,155.3313621676067L63.83797960453034,139.2027075567795L64.47111623783113,132.95994500376457L65.10425287113189,126.04145894219693L65.73738950443267,91.85377289574245L66.37052613773345,104.99464956214885L67.00366277103424,97.91857731945115L67.63679940433502,115.99819627942574L68.2699360376358,155.3839627533738L68.9030726709366,119.51952524750844L69.53620930423737,130.90280939031274L70.16934593753815,136.15014897292014L70.80248257083892,123.4070103423344L71.43561920413971,134.34717766528541L72.06875583744049,91.89440900400922L72.70189247074127,138.9128653946327L73.33502910404205,95.26731377823685L73.96816573734284,82.54476267199847L74.60130237064362,86.78827181352244L75.2344390039444,77.97368553837178L75.86757563724517,69.77456923193007L76.50071227054596,71.80777589038131L77.13384890384674,74.077254032442L77.76698553714752,74.01958740665228L78.4001221704483,42.16562120126909L79.03325880374909,46.520367647120146L79.66639543704987,49.46330574793625L80.29953207035065,39.044293818804434L80.93266870365142,23.892738203834735L81.56580533695221,18.213060609932864L82.19894197025299,28.33511636326905L82.83207860355377,57.16239312533405L83.46521523685455,36.174004887674826L84.09835187015534,46.776256562306656L84.73148850345612,41.77435045058374L85.3646251367569,58.50510930750695L85.99776177005768,45.6095583238994L86.63089840335846,43.5301105767308L87.26403503665924,60.41274284624786L87.89717166996002,53.74788215006935L88.53030830326081,41.71560594393813L89.16344493656159,35.90604370690242L89.79658156986237,49.11590474808529L90.42971820316315,28.511996611719375L91.06285483646394,50.41830818624819L91.6959914697647,42.902460554350405L92.32912810306549,32.173773455323534L92.96226473636627,28.91878884672944L93.59540136966706,23.24406950476462L94.22853800296784,24.830278972281384L94.86167463626862,4.358087876504284L95.4948112695694,27.568958650907742L96.12794790287019,6.555024636964075L96.76108453617096,22.44988689015038L97.39422116947173,-5.752542339759516L101.19304096927644,-3.873041491357141L101.8261776025772,15.529137278785338L102.45931423587798,12.010503012842387L103.09245086917876,15.203940624565593L103.72558750247956,50.496993488727604L104.35872413578034,42.6914114827686L104.99186076908111,48.0836182524066L105.62499740238191,33.868094372685306L106.25813403568269,45.9629954565433L106.89127066898345,32.566661027292724L107.52440730228423,16.149781075602522L108.15754393558502,30.03051516148669L108.7906805688858,47.01630062891171L109.42381720218658,23.399392136097312L110.05695383548736,21.162142631627496L110.69009046878816,14.068716507150086L111.32322710208894,23.0563026596699L111.95636373538971,17.345258732861847L112.58950036869048,3.300363392626756L113.22263700199127,-4.606539413785201L113.85577363529205,-16.652720282957315L114.48891026859283,2.2312133716768585L115.12204690189361,-1.0918933070090056L115.7551835351944,8.515150973386477L116.38832016849518,11.678946861572916L117.02145680179596,12.498890828642761L117.65459343509673,21.872573903739678L118.28773006839752,16.808042914289988L118.9208667016983,8.026763157586105L119.55400333499908,19.649013486139594L120.18713996829986,5.094388289157642L120.82027660160065,0.41282836780300514L121.45341323490143,16.118845895038685L122.08654986820221,24.758815471536362L122.71968650150299,63.6508047254046L123.35282313480377,23.62844181797235L123.98595976810455,40.58189085972087L124.61909640140533,32.860060196263944L125.25223303470612,25.05383146179142L125.8853696680069,51.90222676054166L126.51850630130768,33.316003798302255L127.15164293460846,57.05492840400257L127.78477956790925,24.24962455521745L128.41791620121003,14.281059035758954L129.0510528345108,1.5762929636426246L129.6841894678116,14.487365431574867L130.31732610111237,18.73669512972062L130.95046273441312,34.75303455536488L131.58359936771393,13.611479448084712L132.2167360010147,20.008378963490838L132.8498726343155,30.036659082365215L133.48300926761627,30.873633566958024L134.11614590091705,23.144688889852258L134.74928253421783,20.179223079148223L135.3824191675186,27.827973420576303L136.01555580081939,31.78142482378229L136.6486924341202,33.91131739500619L137.28182906742097,36.12668591810157L137.91496570072175,44.79209348279808L138.54810233402253,34.20892029931535L139.1812389673233,31.057520040971582L139.8143756006241,46.395010103581015L140.44751223392487,47.05995480357494L141.08064886722565,17.96698041053488L141.71378550052643,14.085423660416277L142.3469221338272,12.787762898019274L142.98005876712799,46.82368331996548L143.61319540042876,27.645272615504226L144.24633203372954,13.724225785610036L144.87946866703032,15.887856027623053L145.5126053003311,12.364371297828624L146.1457419336319,0.8530349093454361L146.7788785669327,12.945241291063718L147.41201520023347,20.431770563681486L148.04515183353425,15.165136913753818L148.67828846683503,38.45824999746111L149.3114251001358,3.6945444216229975L149.9445617334366,10.22596346784324L150.57769836673737,24.49678263547132L151.21083500003817,23.49920390335202L151.84397163333892,26.725409093094065L152.4771082666397,18.644536316542652L153.11024489994048,28.75031606895499L153.74338153324126,-2.288772209380988L155.6427914331436,-9.315693085050427L156.2759280664444,3.6055114629270975L156.9090646997452,8.829784395218597L157.54220133304597,3.561102771664728L158.17533796634675,-2.4318069989566053L158.80847459964752,14.565727369797532L159.4416112329483,-0.8422561007866107L160.70788449954986,-30.852399314097127L161.34102113285067,8.562793307216488L161.97415776615142,-11.547122032898466L162.6072943994522,8.414692477618228L163.24043103275298,14.463005324231919L163.87356766605376,16.707045478093786L164.50670429935454,13.336296465577911L165.13984093265532,29.614560939201613L165.77297756595613,29.577050685416907L166.4061141992569,26.58334439628874L167.03925083255768,24.346849408418063L167.67238746585846,23.837011763585608L168.30552409915924,19.764346737719016L168.93866073246002,16.41935907765873L169.5717973657608,29.598608302534558L170.20493399906158,36.94975573965348L170.8380706323624,12.441439779024222L171.47120726566317,22.82736076588043L172.10434389896395,7.444815283495124L172.7374805322647,13.589059526282355L173.37061716556548,14.53414546072017L174.00375379886626,5.468628522320072L174.63689043216704,21.4751592321758L175.27002706546781,1.5706879831920306L175.90316369876862,-26.95057840388794L181.60139339847566,-1.651529047383241L182.23453003177644,7.601323583769253L182.8676666650772,16.298528633714305L183.50080329837797,-2.169666374805975L184.13393993167875,18.94440277064917L184.76707656497953,9.484165862824877L185.40021319828034,23.91666715883534L186.03334983158112,3.5412697639165076L186.6664864648819,-20.609513116816533L187.29962309818268,13.312475298662898L187.93275973148346,27.844896150013657L188.56589636478424,29.64969985510339L189.19903299808502,-12.819991535610159L199.96235576419832,-20.084261775744977L200.5954923974991,1.499871210960551L201.22862903079988,0.8146623508760232L201.86176566410066,14.925092847148772L202.49490229740144,-0.7034250465489286L212.62508843021394,-28.395585479284048L213.25822506351471,0.8324473849980812L213.8913616968155,-1.6339595894323444L217.0570448633194,-16.306612740133424L217.69018149662017,9.799553801256112L218.32331812992095,11.369702844020209L218.95645476322173,-13.941203201899182L235.41800722904205,-23.792387496152095L236.05114386234283,3.055145497913478L236.6842804956436,-36.14835132330483" fill="none"></path></g></g></g></g></g></g><g transform="translate(82, 176)" clip-path="url(#clip_1)"><clipPath id="clip_1"><rect width="247" height="23"></rect></clipPath><g><g><line x1="0" y1="0" x2="0" y2="5" style="visibility: inherit;" fill="rgb(0, 0, 0)" stroke="rgb(204, 204, 204)" stroke-width="1px"></line><line x1="30.91487467288971" y1="0" x2="30.91487467288971" y2="5" style="visibility: inherit;" fill="rgb(0, 0, 0)" stroke="rgb(204, 204, 204)" stroke-width="1px"></line><line x1="61.82974934577942" y1="0" x2="61.82974934577942" y2="5" style="visibility: inherit;" fill="rgb(0, 0, 0)" stroke="rgb(204, 204, 204)" stroke-width="1px"></line><line x1="92.74462401866913" y1="0" x2="92.74462401866913" y2="5" style="visibility: inherit;" fill="rgb(0, 0, 0)" stroke="rgb(204, 204, 204)" stroke-width="1px"></line><line x1="123.65949869155884" y1="0" x2="123.65949869155884" y2="5" style="visibility: inherit;" fill="rgb(0, 0, 0)" stroke="rgb(204, 204, 204)" stroke-width="1px"></line><line x1="154.57437336444855" y1="0" x2="154.57437336444855" y2="5" style="visibility: inherit;" fill="rgb(0, 0, 0)" stroke="rgb(204, 204, 204)" stroke-width="1px"></line><line x1="185.48924803733826" y1="0" x2="185.48924803733826" y2="5" style="visibility: inherit;" fill="rgb(0, 0, 0)" stroke="rgb(204, 204, 204)" stroke-width="1px"></line><line x1="216.40412271022797" y1="0" x2="216.40412271022797" y2="5" style="visibility: inherit;" fill="rgb(0, 0, 0)" stroke="rgb(204, 204, 204)" stroke-width="1px"></line><line x1="247.31899738311768" y1="0" x2="247.31899738311768" y2="5" style="visibility: inherit;" fill="rgb(0, 0, 0)" stroke="rgb(204, 204, 204)" stroke-width="1px"></line></g><g transform="translate(0, 8)"><text style="text-anchor: middle; visibility: hidden; font-family: Roboto, sans-serif; font-size: 12px; font-weight: 200;" x="0" y="0" dx="0em" dy="0.95em" fill="rgb(33, 33, 33)" stroke="none" stroke-width="1px">-100k</text><text style="text-anchor: middle; visibility: inherit; font-family: Roboto, sans-serif; font-size: 12px; font-weight: 200;" x="30.91487467288971" y="0" dx="0em" dy="0.95em" fill="rgb(33, 33, 33)" stroke="none" stroke-width="1px">0</text><text style="text-anchor: middle; visibility: hidden; font-family: Roboto, sans-serif; font-size: 12px; font-weight: 200;" x="61.82974934577942" y="0" dx="0em" dy="0.95em" fill="rgb(33, 33, 33)" stroke="none" stroke-width="1px">100k</text><text style="text-anchor: middle; visibility: inherit; font-family: Roboto, sans-serif; font-size: 12px; font-weight: 200;" x="92.74462401866913" y="0" dx="0em" dy="0.95em" fill="rgb(33, 33, 33)" stroke="none" stroke-width="1px">200k</text><text style="text-anchor: middle; visibility: hidden; font-family: Roboto, sans-serif; font-size: 12px; font-weight: 200;" x="123.65949869155884" y="0" dx="0em" dy="0.95em" fill="rgb(33, 33, 33)" stroke="none" stroke-width="1px">300k</text><text style="text-anchor: middle; visibility: inherit; font-family: Roboto, sans-serif; font-size: 12px; font-weight: 200;" x="154.57437336444855" y="0" dx="0em" dy="0.95em" fill="rgb(33, 33, 33)" stroke="none" stroke-width="1px">400k</text><text style="text-anchor: middle; visibility: hidden; font-family: Roboto, sans-serif; font-size: 12px; font-weight: 200;" x="185.48924803733826" y="0" dx="0em" dy="0.95em" fill="rgb(33, 33, 33)" stroke="none" stroke-width="1px">500k</text><text style="text-anchor: middle; visibility: inherit; font-family: Roboto, sans-serif; font-size: 12px; font-weight: 200;" x="216.40412271022797" y="0" dx="0em" dy="0.95em" fill="rgb(33, 33, 33)" stroke="none" stroke-width="1px">600k</text><text style="text-anchor: middle; visibility: hidden; font-family: Roboto, sans-serif; font-size: 12px; font-weight: 200;" x="247.31899738311768" y="0" dx="0em" dy="0.95em" fill="rgb(33, 33, 33)" stroke="none" stroke-width="1px">700k</text></g><line x1="0" y1="0" x2="247.31899738311768" y2="0" fill="rgb(0, 0, 0)" stroke="rgb(204, 204, 204)" stroke-width="1px"></line></g></g></g></g></svg>